/* XPM */
static char *collectible21727179827[] = {
/* columns rows colors chars-per-pixel */
"64 64 255 2 ",
"   c #3D0E18",
".  c #392714",
"X  c #13102B",
"o  c #37122D",
"O  c #38272A",
"+  c #342B32",
"@  c #52090F",
"#  c #471918",
"$  c #581B19",
"%  c #661A18",
"&  c #731115",
"*  c #582A0C",
"=  c #4A251B",
"-  c #562719",
";  c #5A3319",
":  c #702E07",
">  c #672919",
",  c #76281A",
"<  c #7B2B1C",
"1  c #6A351A",
"2  c #77371B",
"3  c #50052E",
"4  c #57092A",
"5  c #471927",
"6  c #581B27",
"7  c #481634",
"8  c #531935",
"9  c #6B1C28",
"0  c #661131",
"q  c #4A2627",
"w  c #572627",
"e  c #542B2C",
"r  c #5B2B2B",
"t  c #4A3429",
"y  c #58362A",
"u  c #4A2737",
"i  c #572736",
"p  c #5C2C33",
"a  c #483336",
"s  c #583536",
"d  c #672726",
"f  c #642C2C",
"g  c #6D2C2B",
"h  c #772826",
"j  c #742D2B",
"k  c #6D3423",
"l  c #6B3B25",
"z  c #663729",
"x  c #6C332C",
"c  c #783725",
"v  c #743C24",
"b  c #74332C",
"n  c #7B342B",
"m  c #7B3C2B",
"M  c #662937",
"N  c #6B2C32",
"B  c #772C35",
"V  c #6C3333",
"C  c #6C3B33",
"Z  c #663738",
"A  c #733333",
"S  c #7B3433",
"D  c #743B33",
"F  c #7C3C34",
"G  c #77353B",
"H  c #733A3C",
"J  c #7B3B3A",
"K  c #654D17",
"L  c #714E13",
"P  c #7B461B",
"I  c #59432D",
"U  c #6B4527",
"Y  c #794727",
"T  c #7C432B",
"R  c #75532F",
"E  c #694334",
"W  c #7C4434",
"Q  c #7D4A33",
"!  c #774538",
"~  c #7B6326",
"^  c #2B2446",
"/  c #4E1842",
"(  c #4F2B48",
")  c #5A3545",
"_  c #6E2A46",
"`  c #693A45",
"'  c #783844",
"]  c #5A4140",
"[  c #7A4546",
"{  c #724A46",
"}  c #861E17",
"|  c #8F340C",
" . c #872818",
".. c #89381A",
"X. c #973B1B",
"o. c #8E1926",
"O. c #852B27",
"+. c #982D2F",
"@. c #8C3523",
"#. c #843C24",
"$. c #873628",
"%. c #843C2C",
"&. c #8C3D2C",
"*. c #953926",
"=. c #933D2B",
"-. c #862D34",
";. c #843533",
":. c #833B33",
">. c #8B3C34",
",. c #8A3638",
"<. c #833C3B",
"1. c #963A36",
"2. c #A33C28",
"3. c #A63D37",
"4. c #91510E",
"5. c #87451B",
"6. c #99471C",
"7. c #99551B",
"8. c #AD4D14",
"9. c #A7581A",
"0. c #906C15",
"q. c #AF6F15",
"w. c #B77518",
"e. c #884826",
"r. c #84432C",
"t. c #8C432B",
"y. c #8C4C2C",
"u. c #944424",
"i. c #9A4726",
"p. c #93452C",
"a. c #924B2C",
"s. c #9B4A2B",
"d. c #89552A",
"f. c #995727",
"g. c #95542C",
"h. c #9B542B",
"j. c #844432",
"k. c #8B4434",
"l. c #844C33",
"z. c #8C4C34",
"x. c #82453B",
"c. c #8C433B",
"v. c #834B3B",
"b. c #8C4C3A",
"n. c #934434",
"m. c #984437",
"M. c #934B35",
"N. c #9C4B33",
"B. c #934B3B",
"V. c #9C4C3C",
"C. c #885437",
"Z. c #8B533B",
"A. c #945433",
"S. c #9B5433",
"D. c #975A37",
"F. c #93533B",
"G. c #9B543B",
"H. c #A64B28",
"J. c #A65728",
"K. c #AB532C",
"L. c #B65929",
"P. c #A64A35",
"I. c #A34C3B",
"U. c #B44D36",
"Y. c #A45333",
"T. c #AA5837",
"R. c #A4533B",
"E. c #A45B3C",
"W. c #B85936",
"Q. c #B35C3B",
"!. c #866825",
"~. c #996326",
"^. c #9C6436",
"/. c #907132",
"(. c #AA6629",
"). c #B6672A",
"_. c #A7762C",
"`. c #B97328",
"'. c #AA6433",
"]. c #A86638",
"[. c #AC633C",
"{. c #B36434",
"}. c #B76839",
"|. c #BA7438",
" X c #C55B0E",
".X c #C15D11",
"XX c #CE6E0E",
"oX c #D96502",
"OX c #E36D04",
"+X c #E77805",
"@X c #C35B29",
"#X c #C35C38",
"$X c #C6762B",
"%X c #CE702F",
"&X c #C66838",
"*X c #C77838",
"=X c #873A44",
"-X c #8B3649",
";X c #884746",
":X c #974A44",
">X c #8D5343",
",X c #8A5547",
"<X c #995646",
"1X c #904C55",
"2X c #A54C43",
"3X c #A75844",
"4X c #B55847",
"5X c #B15A53",
"6X c #996444",
"7X c #9A7241",
"8X c #A86643",
"9X c #B36C45",
"0X c #B86845",
"qX c #BB7447",
"wX c #B2704C",
"eX c #C56B46",
"rX c #C37344",
"tX c #C87748",
"yX c #CF724D",
"uX c #B48B10",
"iX c #998534",
"pX c #AE9132",
"aX c #BEA13C",
"sX c #D3900D",
"dX c #EC8709",
"fX c #F68A0B",
"gX c #EE940A",
"hX c #FA950B",
"jX c #FD9B0B",
"kX c #D4AB13",
"lX c #FEA30C",
"zX c #F5A90C",
"xX c #FEAC0C",
"cX c #E8B908",
"vX c #F5B907",
"bX c #FEB30C",
"nX c #FEBB0A",
"mX c #E3AE14",
"MX c #CBAA2F",
"NX c #F7C506",
"BX c #FECC03",
"VX c #FEC409",
"CX c #FECC09",
"ZX c #FFD105",
"AX c #F3C612",
"SX c #FBCA17",
"DX c #FED32B",
"FX c #F5CE33",
"GX c #FFE03C",
"HX c #BEA944",
"JX c #CA8143",
"KX c #D1B746",
"LX c #DDC350",
"PX c #EECF4B",
"IX c #FBD849",
/* pixels */
": - N A O.#.< j F Q F.D.A.u... .=.m.p.T.|.*X`.J.| : - d j h h < k Q Z.<XD.M...| u.p.=.Y.}.*X*X|.6.: : , k b A g 9 n k.G.].A.e. .",
"- 6 8 i g n c T Q Q R e.e.g.h.s.&.$.$.h.).$X'.s.m d 6 5 f j %.%.m Y Q l.l.e.g.7.u.%.j t.'.|.{.'.r.d 9 $ 6 f A ' ,.;.k.l.C.d.5.6.",
") u o o w b W Z.Z.Q ; ; Y A.}.'.k.0 d t.(.).a.A _ u O O i A <.B.A.e.U ; ; R '.{.g.Y 5 l ~.(.~.Y _ 8 i 5 # 8 ' ;X:X2X&.2 * U h.[.",
"` Z C z C J b.Z.C.Y q o E D.rX|.g.k c 5.J.9.O.0 / Z Z z D J c.c.S.e.1 = O E |.*X'.d.w 1 7.~.5.d i ( C l C Z ' 1X2X2X1.h X z D.qX",
"l.A.(.'.<X:X1.1.M.b.] ( { <XrX%X`.9.7.J.H.*.O.B ,.M.J.(.E.G.c.:.g.C.Q s ( { 9X*X$X`.9.9.f.i...1 x j.h.(.{.3X;X[ >.m.B.=X( { <X0X",
"[.}.|.`.3Xm.,.&.a.v.{ ( ) ;X}.%X$Xw.q.J.2.+.O.@.V.Q.|.$X{.V.:.S e.l.{ ` ( ` R.}.$X$Xq.8.H.t.O.< e.h.$X*X*X[.v.A :.=.c.;X_ _ :XP.",
"tXJX|.).a.-.-.;.e.m p 7 7 B *.).*X*X(.h.=.,.+.=.Q.eX*X*XJ.#.g x T Q Z u o 4 O.J.&X$X`.(.M.,.;.$.H.).*X*X}.h.D r n :.;.N / 8 B @.",
"tXqX_.0.k 4 9 x v l r q 8 h  .H.}.9Xf.e.x.c.n.K.eXeX|._.P > 6 f D C Z e e d & *.[.}.(.g.v.' ;XN.L.&XtX|.g.1 e e V F j w u d ,  .",
"9X].~ I q o u e y U E Q Z.M.&.1.:X,Xx y E Z.R.W.#X}./.R y 5 6 p p Z E Q C.C.=.1.:X>XE I ] [ 1X4X#X#X[.C.I + + a M x x m R d.e.X.",
"S.d.1 = s r 6 # y R 6X8X8X<X<.G ' ' 8 O I R E.Q.W.h.U . y f f d 6 C Z.6X8X[.m.,.' ' s u a Z >X4X#XL.a.z a a s s 8 r T Z.].'.h.6.",
"p.$.<  .s.=.} & h S.qXqXwXD.D Z G ' M q + t ~ G.R.n., , k.a.c % @ m 8XtXtX[.l.g G G B 9 5 q ! B.R.U.O.< c r.j.l @ - A.|.JX*Xh.2 ",
"$.$.O.2.#XW.2. .*.T.rXqX^.Y t y W ;Xc.H = . y Y c.>.O.*.K.T.h.u. .p.0XtX0XD.l q A c.:X1.b = - b c.1. ...i.T.E.F.2 Y T.|.*X}.5.* ",
"-.$.3.4X&X%X#X@XU.K.{.'.e.; . s c.3X5X3XD . . - b :.+.P.Q.&X0X}.K.K.{.W.h.P - = F :X4X4XV.x # $ g ;.$.*.K.}.qXwXE.S.T.{.).H.: # ",
":.1.2X4XeX*XyXyX#XU.J.6.1 - O z I.#XyX0Xn.- # # f :.I.Q.Q.eXyXyX&XW.K.i.&.1 # - &.3XyXeXR.n $ @ $ n a.Y.T.}.eXqX9X'.'.J.6...> # ",
"x.:X4X4XE.[.rXeX#XK.S.Z.v.H e n H.@X@X#X3.B N f Z Q <X3X8X8X0X0X&X@XK.M.>X[ Z d *.H.@X@XK.*.O.h d v d.~.'.].wX5X0X}.J.f.Y.n.S f ",
">X<X3X3Xg.A.[.0XP.s.y.C.Z.>XJ >.2.8. X8.+.B G H ! Z.3XQ.G.G.3XQ.W.U.p.x.,X,Xx.;.s.H. X8.*.$.;.S ;.l.^.^.^.D.:X2X8X[.a...p.m.,.J ",
"<X3XT.J.....z.z.%.c l T b.:X:XI.T.H.i...h N G =X;X<XR.J.s.u.p.n.c.;.k 2 v.F.:X2XI.R.H.5.n M Z ' ;X:XG.S.s.u.t.>.:Xv.b 1 @.p.m.M.",
"<XG.H.4.| | h A r e - : e.G.2X2XI.m.n f w r ` [ :X<XY.i.6.| < h M 8 5 @ 2 a.V.3X3XV.j.x e u s ' ;X:XV.Y.p.*...n J _ 8 6 , 5.s.R.",
":.t.f.J.6.X.$.G Z s $ * ..n.I.P.k.A g r e r i N S k.s.p.} & 0 4 ( 7 o   @ h m.2XV.>.b r u u u p M $.n.P.N.s.#.D ' _ ) M > | u.s.",
"h c y.y.#.#.m G H M = - > %.N.m.;.f e e s Z :.$.o.& h m l.g.f.~._./.0.L L < -.,.,.B f e p V H A b , c $.t.r.T ! ' ' _ _ - 1 r.n.",
"d g p Z l l Y j.<.S r t y x :.,.F y t t Z Z.3XN. .@ % R iXpXMXkXmXkXkXuXuXL U B 0 M f d c =.I.P.t.2 1 e y I I R -X-X-XN t ; C :.",
"n N ( u E Y e.k.;.-.Z y y C ,.1.x.! y y E Z.E.T.i.d./.pXMXMXcXNXZXZXNXmXkXuX0.0.l.V z ,  .*.W.eXT.5.; q t I R { -X-X-.B ; I H ' ",
"u.:.' { >X<XZ.j.n j m T j.M.2X2XG.z.2 1 L L 5.g./.aXLXLXAXAXcXNXNXCXZXAXAXNXcXkXiXd.k &  .2.&X&X&XJ.e.S ! >X>X>X=XB -.%.P e.B.:X",
"6.t.Q ! <XG.n.n b D M.S.N.P.2XU.R.g.5.L 0.4.L !.iXKXFXFXAXcXAXAXCXZXZXZXZXZXZXNXkXuXe.} @.T.rXyX&XJ.u.:.:X>XZ.l.b j %.n.h.h.V.2X",
"4.e.F x.k.&.h > x v.3XQ.P.2.2.2.H.J.f.f.~.~.!.iXiXpXkXAXkXkXmXAXAXZXZXCXNXNXNXBXNXkXq.#.T.eXtXrX).8.@.;.;.&.#.2 > c B.E.{.J.i.@.",
": 1 k k j h h h m l.G.T.H.6.X.*.p.y.a.h.].7XpXpXiX0.uXuXuXMXFXAXZXZXZXAXcXkXNXNXBXcXuXf.{.0XrX}.a.O.h h h j j g k m A.S.Y.H.6.| ",
"i w # # g S <.b.r.r.2 c t.s.T.G.W p N Q ^.iXHXHXiX~ K ~ HXKXDXZXZXBXZXNXcXcXkXNXVXvXsX_.'.'.].F.H / 8 4 4 i M ! Q j.T v 2 5.d.f.",
"i i - w V =X;XB.a.r.- $ D G.0X0Xv.u 8 z /.iXKXLXHXiX~ iXKXFXSXZXZXCXCXCXNXcXcXcXnXcXsXw.~.f.d.E ( ^ u i r p { [ >Xz.m : # z A.].",
"H x.C.C.b.;Xc.M.A.l.Z s [ 8XyX*X].Y k 1 U iXKXLXLXLXLXLXFXDXSXZXZXCXCXCXNXNXcXvXbXzXsXw.7.c 2 b _ ` D j.g.v.;X;XM.N.a.n i ! <X9X",
"F.E.|.9X3Xm.;.t.y.d.Z ( ` <X&X%X$Xq.4.L !.pXMXPXIXIXPXGXGXSXCXBXCXCXZXCXCXNXvXvXbXzXsXuX7., , h G b.].).(.h.k.:.p.i.p.j.7 ` F.9X",
"9X9X*X|.G.>.n c 5.Y s ( u S L.%X$X$X4.4.iXMXPXGXGXDXDXDXZXZXBXCXCXCXCXCXCXCXnXbXxXzXsXw.e.h , @.m.[.*X$X`.7.#.O.X.X.=.n u i ;.s.",
"&XrX|.}.y.h , 2 U U a O 7 9 X.L.*X*X#.~.aXFXIXGXDXZXZXZXZXZXNXCXCXCXVXCXCXVXbXxXzXgXdXw.u.h @.H.K.&X*XpX(.4.2 9  .$.$.j u 6 9  .",
"eX&Xg.l - # - I I I t y b ;.+.2X5X1X0 R KXPXIXIXDXBXCXCXCXBXCXCXnXnXnXnXnXbXxXlXlXgXsXq.6.n H.U.@X&X|.^.R O O u Z V f ; 1 2 #.*.",
"#XK.#.= - = = = I E R C.G.N.-.-X1X-Xo ~ HXPXIXIXDXBXBXCXCXCXCXCXVXnXbXxXbXxXlXlXgXdXXXq.Y x P.W.#XW.^.Q t + + a u e Z Q C.A.p.*.",
"U.*.< > m l - = I R wXqX0XE.;.B _ _ o L aXPXIXIXSXnXVXCXCXZXZXCXVXbXxXlXlXlXjXhXgXdXXX4.> O l.T.W.U.>.c z C E s 5 d l.[.qX9XV.;.",
"O.O.< 5.S.g.v : P A.qXtX9XG.D g <.-X4 !.pXFXFXDXSXnXVXVXCXCXZXBXnXbXlXjXjXhXhXhXfXXXXX6.= X E j.2X1.o.} t.A.A.e.> 2 T.qXtX9XM.g ",
",.;.@.f.{.{.J.i.i.J.`.).7.1 = x c.<X-XA.pXcXAXSXnXnXnXnXnXnXVXnXbXlXjXhXhXhXfXfXdXXX{.Z.] + + e ,.+.o.+.3.#X_.(.6.8.).&X{.f.1 $ ",
"=X,.s.K.}.qXqX{.K.9.L.J...> # x G.Q.2X].uXsXcXBXnXnXbXxXbXbXbXxXlXlXhXhXhXfXdX+XOXXXW.F.{ a + # M -.+.3.U.#X|.|.(.L.L.W.E.l.w @ ",
"k.M.T.}.wXwXqXtXW.L.K.s.k.B 8 j H.L.#XK.f.w.mXbXbXbXxXxXxXlXlXjXlXhXhXhXfXfX+XOXoX.XK.R.>X! f $ $ n I.4X4X9XwXiX|.).L.P.1X;XM 4 ",
"B.G.T.Q.6X8XwX0XW.K.s.B.c.=X_ ,.H.L.@XH.$.e.sXmXzXxXxXlXjXjXhXhXhXfXfX+X+X+XOXOX X8.J.Y.N.k.S k 1 $.2X4X4X6X7X7X|.{.Y.=X1X1X' B ",
"<XR.P.H.t.z.F.G.p.&.r.t.:X:X-X:XT.K.8.X.9 j 7.uXsXjXjXjXgXhXhXfXfXfX+X+X+XOXOX XK.u.H.6.#.n S F c.m.4XR.G.y.R d.D.Y.&.S [ ;X:X-X",
"3XI.H.H.| ..$.F G V k m M.:X2X2XR.g.e.c 9 6 z d.w.sXdXgXgXgXdXdX+X+X+X+XOXoXoX8.H.t.6...1 r x <.c.2XI.I.s...2 Y l.j.g d C x.V.3X",
"m.P.P.H.H.*.;.G ) u 5 : #.I.T.T.M.m z y q 5 5 r e.7.w.XXXXdX+X+X+XOXOXOXoX8.9.i.t.&.#.1 q O e g ;.1.I.I.P.s.5.2 A M p 6 > P i.K.",
";.p.m.N.X.@.%.H ) ) 5 * 2 t.V.m.<.V p e y f f r - 2 5.7.q.8..XXX X X X@X8.6.%.F j.%.j r e y r j O.O.>.m.M.p...#.G Z M w - : X.H.",
"h b A D 2 2 2 Q H Z e w d A >.x.' M i M D k.k.j.> $ w Z z T a.s.H.H.X...< k V G J A M 9 V D z.p. .< g V Z D ;.;.<.=XB f w r < #.",
", d p s k v T Y E C x r M A ' ' ' _ M j ;.I.Q.E.u.1 5 X + s H <.,.@.h d 5 i Z [ [ ' N d A k.E.T.H...r u u ) J <.>.<.S B r N j S ",
"..b Z ` v.A.A.C.W z f x F ;X:X1X;X;Xg 9 h N.0X0XE.Y Z s { ,X,X>X,.O.h d k ! ;X,X,X;XS 9 & $.4X0X{.f.D p ` 1X,X<X:X;.j j V J ;X:X",
"u.&.;.[ Z.Z.l.! Z H W b.k.n.I.I.V.N.@...p.Q.rXrX'.a.%.W ;X,X>Xl.-.B F l.R d.C.>X<XI.p.@.@.N.0X*X`.(.:.' ;X,X>Xv.F S ,.c.l.z.G.I.",
"6.p.1.=Xb.j.m x ` ' <X8XS.6.2.8.9.8.4.6.W.&XtXqX'.e.u.%.y.d.Y 1 M ! ,X6X!.!.d.m.P.K.6.8.K.W.tX*X_.4.6.:.>.b.Q K 1 j c.3XS.f.i.p.",
"X.@.-.+.,.n k g ' ;X<X[.h.4.| 8.8.8.8.8.*XtX*X[.f.........2 : 1 9 ! ,X/.~ L e.=.H.H.6.H.#XyXtX|.~.4...$.%.Y K * > B V.E.(.7.6...",
"% % % 9 N V H W F :.r.r.e.p.H.=.:.m T T.&X%XQ.z.l - $ * * 1 c &.+.,.k.Y L ~ 1X-X-X;.g y.&X*X&XT.T q - $ - * K U %.1.1.t.5.P e.z.",
"6 6 $ 6 M H [ b.y.e.1 x W G.3X2X! p z S.&X%XN.x q = # # - z :.m.3.2.$.1 K d.5X5X:X' u T ).&XL.p.g 7 6 # * ; ; T m.3.+.O.1 U >X<X",
"C V l k H J ;Xl.g.e.1 r ! 3XtXwX>Xs z u.L.L.$.w i y l K z D >.1.3.3.2., I [ qXyX5X;Xa l f.L.6.h M i g k l l E x.I.P.1.O.5 E 6XwX",
">XA.h.g.M.c.>.z.f.y.z a [ <XyXyX}.A.d.e.6.X., d H b.d.~.C.;X=X-XU.2.&.M ( { wXyXeX3XR P 7.6.: d B ,.P.P.S.B.! ;X1.H.P.,./ ` 6XwX",
"[.}.`.$XK.p.@...5.Y ) ( ) x.9XrX$X$X(.7.| .., -.V.8X|.|.[.:X-X,.X.u.:.) ^ ] U.&X%X$Xw.7.d.P : 1 :.U.eXyX&X4X;XG =.*.n.=X( _ :XR.",
"qXrX*X`.H... .2 P U s ( 7 S 9.@X%X*X(.7.P c O.m.4X0XtX*X[.c.;.B #.r.C s ^ i *..XsXJX|.~.d.v k r.I.}.yX%X&X2X=X_ n 5.j.=X/ / S X.",
"yXtX}.d.1 $ > D D Z e 3 4 , | H.0X9XD.d.Y e.u.K.0XyXqX8XT 6 6 N m v > 5 5 6 : X.}.0X6XZ.Q Y t.H.U.eXtXqXG.x 8 8 x v 2 z o 5 ,  .",
"tX0XC.y = # q e Z C D :.$.@. .+.>X,XU y U C.Y.Q.eX0X3Xv.w o 5 e z c k m l.%. .@.:X,X[ ` E Y g.K.#XeX9X6XE o o O r k 1 U U Y %.@.",
"T.m.l t Z y q 5 e x.3X0X4XU.+.O.F C = = l l.R.Q.Q.I.:.x z s a s $ v A.8X9X8Xi.O.<.' M u e l A.Q.#XU.a.U t a ) s q - Y D.wX9XY.=.",
"*.O.d y v.v.k $ k B.0XyXeXQ.&.j b C w = t U F.Y.Y.@., d Q ! ! z # 2 ].qXtX0Xy.k V Z M w - z j.R.P.P., ; U Q ! ! w ; d.[.JXqXE.$.",
"F D l W 3XR.p. .X.J.&X&XW.&.d x Q C.l.E q 7 C j.B.%., , D.^.d.P : 4.(.*X).f.l e H v.Z.Q z 5 e H 1X;X9 < 5.~.~.f.: 2 T.|.$XL.u., ",
"W W l.S.0X0XQ.K.9.).@X).6.2 5 V z.].E.Z.M 3 i x W :.;.p.'._._.J.f.H.).).J.5.w q ! G.8XR.F 8 5 i H [ ;.=.J.).)._.g.g.'.).).H. .4 ",
":.l.S.}.}.eXrXqXQ.J.J.g.m d 8 N m.4X0XR.<.0 4 $ k >.I.Q.{.).|.|.}.T.T.Y.M.F 6 6 <.R.&X4XB.V 9 6 w S m.T.L.).*X|.|.[.E.J.Y.z.B 4 ",
"%.a.].}.0XrXyXtX}.^.A.l.C M 8 B I.W.&XQ.m.A % @ % >.3X0X'.|.*XJXrX0XR.c.>.B 8 9 1.U.&X#XI.J h @ @ h P.Q.Q.{.*XJXtXqX].d.C.! _ 0 "
};
