/* XPM */
static char *collectible31727179828[] = {
/* columns rows colors chars-per-pixel */
"64 64 255 2 ",
"   c #392714",
".  c #1E0022",
"X  c #38152D",
"o  c #39272A",
"O  c #352C2E",
"+  c #510910",
"@  c #461918",
"#  c #581B19",
"$  c #661A18",
"%  c #751315",
"&  c #53300F",
"*  c #49251B",
"=  c #572719",
"-  c #5A3519",
";  c #702E07",
":  c #672819",
">  c #78291C",
",  c #6A361A",
"<  c #77371B",
"1  c #53072C",
"2  c #471927",
"3  c #581B27",
"4  c #481634",
"5  c #541835",
"6  c #6C0E2E",
"7  c #6B1C28",
"8  c #492627",
"9  c #572728",
"0  c #542B2B",
"q  c #4A3627",
"w  c #58372A",
"e  c #4A2836",
"r  c #572736",
"t  c #5B2C33",
"y  c #483336",
"u  c #593536",
"i  c #672726",
"p  c #642B2C",
"a  c #6D2B2C",
"s  c #772926",
"d  c #742D2B",
"f  c #693727",
"g  c #6B3B24",
"h  c #64332C",
"j  c #6C332C",
"k  c #7B3323",
"l  c #743C23",
"z  c #753826",
"x  c #74332C",
"c  c #7B352C",
"v  c #7B3C2B",
"b  c #662937",
"n  c #6A2C32",
"m  c #752C35",
"M  c #7B2D34",
"N  c #633334",
"B  c #6C3433",
"V  c #6C3B33",
"C  c #673839",
"Z  c #743333",
"A  c #7B3334",
"S  c #743B33",
"D  c #7C3B34",
"F  c #77353B",
"G  c #733A3C",
"H  c #7B3C3A",
"J  c #165207",
"K  c #265800",
"L  c #315109",
"P  c #1A6A03",
"I  c #007200",
"U  c #1B7B02",
"Y  c #276401",
"T  c #2C6C00",
"R  c #336C03",
"E  c #277701",
"W  c #2E7300",
"Q  c #327400",
"!  c #337B00",
"~  c #3A7A03",
"^  c #386214",
"/  c #4F4B12",
"(  c #694D11",
")  c #7B471B",
"_  c #4F6F13",
"`  c #756B15",
"'  c #53472D",
"]  c #594429",
"[  c #6B4627",
"{  c #784727",
"}  c #7C432B",
"|  c #785528",
" . c #694335",
".. c #794637",
"X. c #7C4434",
"o. c #6E5434",
"O. c #706828",
"+. c #1E2543",
"@. c #302846",
"#. c #4F1443",
"$. c #65004A",
"%. c #4F2A48",
"&. c #593446",
"*. c #692945",
"=. c #693A45",
"-. c #783944",
";. c #7B4546",
":. c #724A46",
">. c #655D41",
",. c #8F340C",
"<. c #862918",
"1. c #88381A",
"2. c #973B1C",
"3. c #A53A1B",
"4. c #8E0E2B",
"5. c #852A28",
"6. c #962C2E",
"7. c #8C3423",
"8. c #833C24",
"9. c #873628",
"0. c #843B2C",
"q. c #8C3D2C",
"w. c #963926",
"e. c #933D2B",
"r. c #852C35",
"t. c #843533",
"y. c #843C33",
"u. c #8B3C34",
"i. c #8A3738",
"p. c #833C3B",
"a. c #953936",
"s. c #A43B28",
"d. c #A63D36",
"f. c #93500E",
"g. c #87451C",
"h. c #98471B",
"j. c #99531A",
"k. c #AC4E15",
"l. c #A45A1B",
"z. c #8C6D1A",
"x. c #B56B1D",
"c. c #884826",
"v. c #83432C",
"b. c #8C432B",
"n. c #8C4C2C",
"m. c #944424",
"M. c #9A4727",
"N. c #93452C",
"B. c #934B2C",
"V. c #9B4A2C",
"C. c #89542A",
"Z. c #985629",
"A. c #9B542A",
"S. c #844432",
"D. c #8B4434",
"F. c #844B33",
"G. c #8C4C34",
"H. c #82453B",
"J. c #8C433B",
"K. c #834B3B",
"L. c #8B4C3A",
"P. c #944434",
"I. c #984537",
"U. c #934B34",
"Y. c #9C4C33",
"T. c #934B3B",
"R. c #9C4C3C",
"E. c #885337",
"W. c #8C543B",
"Q. c #945433",
"!. c #9B5433",
"~. c #975A37",
"^. c #94533B",
"/. c #9B543B",
"(. c #A64A28",
"). c #A65728",
"_. c #AB532D",
"`. c #B55928",
"'. c #A64936",
"]. c #A34D3B",
"[. c #B44C36",
"{. c #A45433",
"}. c #A95837",
"|. c #A4533B",
" X c #A35C3B",
".X c #B75A38",
"XX c #8D6F2B",
"oX c #9B632A",
"OX c #9D6536",
"+X c #AA6629",
"@X c #B7672A",
"#X c #BA7328",
"$X c #A86636",
"%X c #AC633C",
"&X c #B36434",
"*X c #B76839",
"=X c #AB7130",
"-X c #BA7438",
";X c #C35B29",
":X c #C35B38",
">X c #C7762C",
",X c #CD6E30",
"<X c #C66738",
"1X c #C77738",
"2X c #8F3343",
"3X c #873C43",
"4X c #884746",
"5X c #944C43",
"6X c #984945",
"7X c #8D5343",
"8X c #8A5547",
"9X c #995646",
"0X c #8C4C54",
"qX c #A54C44",
"wX c #A85744",
"eX c #A45C42",
"rX c #B55847",
"tX c #B35A53",
"yX c #8D6B41",
"uX c #996444",
"iX c #A86643",
"pX c #B46C45",
"aX c #B86845",
"sX c #BB7447",
"dX c #B2704C",
"fX c #C56A46",
"gX c #C47344",
"hX c #C87748",
"jX c #CF724D",
"kX c #1A8C02",
"lX c #288701",
"zX c #348300",
"xX c #398800",
"cX c #2D9300",
"vX c #319600",
"bX c #3B9400",
"nX c #3D9C00",
"mX c #3DA300",
"MX c #4D8A07",
"NX c #459B01",
"BX c #599700",
"VX c #6F900E",
"CX c #42A400",
"ZX c #47AB00",
"AX c #55AB00",
"SX c #68A801",
"DX c #76A90B",
"FX c #78B701",
"GX c #749525",
"HX c #7AC302",
"JX c #8E931B",
"KX c #8CB20D",
"LX c #CB803A",
"PX c #87C903",
"IX c #CA8143",
/* pixels */
"; = n Z c 5.< k S K.~.~.Q.m.1.1.e.V.P.}.-X1X@X).f.; # i d c s k g } E.^./.Q.1.,.h.e.q.{.*X1X1X*Xj.; % > k x Z d 7 x F.9X$X~.c.; ",
"= 3 5 r d k k } ....} C.n.n.V.M.q.c 0.A.@X>X+XU.c i 2 2 i x 9.0.v } F.F.F.n.Z.j.N.v.d b.$X-X=X$Xv.i $ = 3 p B -.t.u.D.n.C.C.m.M.",
"&.e X X 9 x F.E.E...- & { Q.*X$XD.7 a c.+X@XB.Z b e o o r n i.J.Q.C.< - w { $X&XQ.v 2 g oX+XoX{ *.5 r 2 @ 5 =.4X6XqXu.> & ) A.%X",
"=.C N f B H L.^.Q.{ 8 X V OXgX-XA.i l m.).k.5.6 *.=.C g S H J.L.Q.c., o o ..=X1X+XC.0 , j.oXg.: r %.S [ f =.-.0XqXqXa.s . w  XaX",
"F.~.+X=X9X6X2XP.Q.K.:.&.:.9XgX1Xx.l.l.j.(.w.5.s M J.).=X XR.J.y.n.G...&.%.:.pX1X>Xx.l.l.A.M.1.s x S.A.).*X%X4X4Xa.I.J.3X%.;.9XaX",
"%X*X#X#X X2Xr.q.N.L.&.%.&.4X*X,X>X#Xx.).s.6.5.w.R..X1X>X&XR.y.c C.E...=.%.=.|.-X>X>Xx.k.(.e.s < c.A.>X1X-X%XK.Z D q.T.4X&.*.6XqX",
"hXgXLX+XY.s r.t.c.v u X 4 n w.;X1X1X+XA.P.i.7.a.rXfX1X-XZ.v d j } X.C e X 5 s k.>X1X#X).Q.u.t.8.(.@X1X1X*XA.S p v 0.y.n #.5 M 7.",
"hXsX=Xz.g 6 7 B l g 0 3 5 s <.).%X-XZ.v.H.J.P.[.<XgX-X=Xg.: 3 p S V p 9 r i % e.%X*X+XZ.K.-.J.].`.<XhX-XZ.g 0 8 B D d 9 e i > <.",
"pX$X| / 8 X e 0 w [  ...W.U.q.a.6X8XB w  .:. X.X<X&XXX] w 9 5 9 N V  ...E.E.e.a.6X5X..] &.:.9XrX:X;X%XW.' O O e N n j z | C.n.2.",
"!.Q.g * w t 3 @ w o.uXiX%X9Xp.F -.=.5 8 ' o.~..X.X{.{ q w p p i 3 V E.OXiX%XP.i.-.=.u o y  .0XwX:X`.n.g y y u u 3 p } Q.$X$X).m.",
"P.9.> > V.e.% % s !.sXsXdX~.S N F F n 2   ] F./.].V.> : b.b.k $ + 0.iXsXhX%XF.a F H M 7 2 8 S T.wX'.5.> v v.X.g + : Q.pXhX1XZ.< ",
"9.5.6.s.:X.Xs.3.w..XgXsXOX{ w w X.5X4XX.q   - } D.i.5.w._.}.{.m.<.P.aXhXaX~.g 8 Z 3XqX3Xx * = z J.a.<.1.M.}. X^.g l  X-X1X@Xg.& ",
"t.i.d.[.<X,X:X:X[.[.*X+X| & o w 4XwXtX9XS     = x t.a.'..XfXfX*X_._..X&XA.1.& 8 D 6X:XtX].i @ # d t.7.w.}.*XaXpX XA.$X@X@X(.< @ ",
"0.a.qXrXfX1XjX<X.X[._.c., = o j R.:XjXaXD.= @ @ p y.].[..XfXgXhX<X`._.M.c.f @ # y.}.fXjX|.c # + 3 c N.).}.*XhXhXpX%X$X).h.1.: @ ",
"H.9XrXrX%X%XgXfX:X`.!.Q.....t d k.;X;X:Xd.M a p h H.9XrXeXiXaXfX<X;X_.T.7X;.B i w.`.;X;X_.e.5.s i v C.OXOXiXdXtXaX*X).M.Y.P.c p ",
"7X9XwXwXB.!.iX%X{.V.n.E.7XL.p.u.3.;Xk.k.6.M F G ;.7XOX%X/.~.eXwX.X[.B.F.8X8X..i.V.(.k.k.(.5.A A y...OXoXoXQ.qXwXiXeXN.g.P.I.u.A ",
"9XeX}.(.g.1.B.U.0.z l v L.^.6X].}._.M.1.s n F ;.0X9X X).A.b.N.N.I.S.l g E.W.T.6X|.'.M.h.k b B -.4X5X~.!.A.m.q.u.5XL.x : 9.N.U.T.",
"9X9Xl.f.,.<.5.Z t 0 = ; b.R.qXwX].P.c i 3 t C 3X6XqX'.h.2.,.<.s *.r 8 = < P.|.qXwXR.S.j 8 e &.-.4X5X].'.V.7.1.c F =.r 7 > g.V.{.",
"0.n.A.).h.7.t.B C u @ ; < V.].'.u.Z a 0 0 0 N Z r.4.6.4.4.4.6 6 $.#.1 + % 5.].wXR.y.j t e e y t n c P.Y.'.V.7.c -.*.*.r : ,.m.'.",
"s k v.n.m.8.c D G b * * , 0.I.a.t.p 0 u u V M M 6 % 7.m.j.z.C.| >.>.' - & > i.2Xi.A p 0 N B G F d > 9.0.b.v.{ X.-.-.*.*.= , v.N.",
"i a b N g [ } 0.i.m t q w j y.i.D w 8 u ..4X2X6.<.( ` VXVXDXJXDXGXGXGX_ _ - 7 4.r.M h w c e.].].b.< - 9 w w ' :.3X2X2Xn q - V H ",
"c n %.e  .[ F.b.u.M V w w V i.a.K. .w h G 5XeX$XJXVXDXDXKXFXFXKXKXFXDXDXVX_ O.[ H M a > <.w..X:X_.g., 8 q ' o.o.3X2Xr.m - w G -.",
"m.y.G :.7X9XQ.S.c d v } S.T.qXqX/.G.) : 6 4XJXJXPXPXPXHXHXFXSXSXSXFXFXFXFXFXKXGXO.{ s % <.m.fXfX<X).q.Z 4X8X8X8X-.2Xt.0.) n.R.6X",
"h.b.H...9X/.G.c x D U.!.V.'.qX[.}.A.1.< g.JXJXKXPXPXHXFXFXBXBXBXBXSXSXSXFXFXFXDXGXO.1.<.2._.fX1X1X).m.y.L.7X^.F.Z n 0.P.A.A.Y.6X",
"f.c.X.X.J.q.> : j K.eX.X_.s.s.s.{.A.7.f.JXKXKXHXSXBXNXMXxXzX~ Q ~ zX! xXMXBXSXSXSXVX` C.).fXjXhX`.k.w.t.q.u.0.< : d U. X&X).V.7.",
"; , f j d s s s S G./.}.(.2.2.w.N.b.v.z.KXKXHXAXCXcXkXU U lXlXlXlXE U lXlXbXNXAXSXSXBX` $X*XsX*XB.5.s s s a s a , } Q. X).(.h.,.",
"9 3 @ @ p M p.L.v.} l < b.B. XR.y.u O.` VXSXCXmXmXmXvXnXnXnXmXmXmXmXmXCXZXmXnXbXNXNXAXVXJXoXOXL.G 4 5 1 1 5 C ....F.v.< < g.c.Z.",
"b r 9 = B 3X5XT.B.c.# 3 X./.pXrXH.u _ BXBXBXcXkXmXZXZXZXCXCXCXCXCXCXZXZXZXCXvXlXlXxXZXAXVX( { n %.@.e 0 t N =.;.5XG.l : @ [ E.$X",
"G ..E.E.^.4Xu.L.Q.G.C C ;.eXjX1X X| _ MXNXNXmXCXmXmXCXnXxX! zXzXzXxXbXnXbXbXbXzXzXzXbXNXMX_ - 6 *.=.X.D.Q.F.4X4XU.P.N.c 5 G 9XsX",
"7X X*XpX9XI.u.9.n.C.C %.=.9X,X,X#Xz.VXMXvXbXnXnXxX! lX! T Y Y Y T W W ! zXzX! ! E ! ! lXxX~ / $ M 5X$X+X+XoXS.u.N.M.V.y.e =./.%X",
"pXaX1X-X{.u.c 8.g.{ u @.%.A `.,X#XJXVXlXlXxXxX! Y K K K K Y K K Y Y Y T ! ! T Y W ! T P E ~ / ( V.%X1X>X#Xj.8.5.2.2.w.D e r y.V.",
"fX1X-X*Xn.k s , [ [ w O X 7 3.`.@X=XMXkXlXxX! W Y K J K T W W T W W W E xXzXW W xXxXR Y U ~ ( c.[.*XLXLX+Xf.> s > 7.9.d e 3 7 <.",
"fX<X!., 9 @ - - ] ' q w x r.6.a.tX>.^ kXcXNXNXnXvXxXxXzXbXbXnXbXnXnXnXnXCXCXnXnXCXCXNXvXkXMX` (.:X:XaXOXo.q o e u B w i - < 1.7.",
":X_.v * = * * q q o.o.E./.6Xa.2X;.:.^ P lXNXnXnXmXbXbXbXnXnXnXnXnXmXCXmXCXmXCXZXCXCXNXvXkXMX` ).;X:X$X..y O o e e 0 V X.Q.Q.P.e.",
"[.w.> : l l = @ w E.dXsXpXwXi.m *. .^ Y E zXzXxXxXxXzXzXxXbXbXbXbXnXnXnXxXbXnXnXbXxXxXlXkX_ o.!.[.[.q.z g V  .w 2 i F.%XsXpX/.9.",
"7.5.< 1.!.Q.l ; ) ~.sXhXpX^.A i n o._ R E T Y T ! ! W W ! ! ! ! zXzXxXzXT T ! zXQ R R E I ^ ' S.].'.4.<.b.~.E.C.: < }.sXhXdXU.d ",
"i.t.9.M.&X&X+XM.h.).@X@Xj., = j H.E.O._ E U T R W W T Y Y Y Q ! ! W Y K K J K Y R Q xXlXI J O t r.a.4.d.d.`.=X+Xf.k.@X<X$XA.< @ ",
"p.i.V._.*XsXpX&X_.`.`.).1.: 8 d I. XC.O._ I W Q Q ! Q W T R Q ! ! Q Y K K K K Y T ! ! ~ ' L   2 n r.6.d.[.*X=X=X`.`.`..X}.v.p + ",
"p.U.}.*XpXdXsXhX.X`.).V.u.n 5 M (.@Xl.z._ I E ! ~ ~ zXxX~ zXzX! ! ! Q T R R ~ Q E E R _ o.h i # $ s '.rXrXdXdXIX-X@X`.|.0X-.b 1 ",
"U.|.}.*X9XiXdXsX.X_.V.T.4X3Xm i.(.`.k.k.( J Q ! ! ! zX~ xXzX~ Q ! ~ ~ ! ! Q ! ! E ~ / ( } Z A z f 0.qXrXrXiXyXyX-X&X'.6X0X0X3Xm ",
"9X|.'.(.c.n.^./.V.8.0.b.5X6X3X6X|.).k.1., / L Y K K P Y T Y K K K Q ~ zX! P P P ^ / | g.k x D D J.I.rX|./.G.| C./.!.q.A ;.4X4X6X",
"qX|.(.(.,.7.0.D F n f v U.6XqXqX|.Y.b.< i 9 / O L L L K K K J J J K W ! T R ^ / ( | g.1.d j B H J.].qX].V.1.< { F.S.d i V H.R.qX",
"R.].'.(.M.w.t.F &.%.# ; b.Y.}.].U.} j 0 8 8 o q q / / / L L J J J J K Y L / [ C.c.c.1., 9   0 a r.a.].].{.V.g.< S C r 3 - g.V.[.",
"q.u.Y.Y.2.7.9.G &.y 8 = < q.].R.p.N u 0 9 h B j w , / / / / & / ' / q / & ( { D.0.0.x 9 q 0 h d 5.5.u.P.P.N.1.0.F b b 9 = ; 2.h.",
"s d S S < 1.< }  .u t 9 i Z p.3X-.b r n S D.T.0.> : w w q w V X. .S s : 7 i x H.p.F b p a S L.N.1.<.j B C Z c t.p.3Xm a 9 i s 8.",
"> p t u f l { { } V N p b m -.-.-.b b m y.R. X}.b., p r C G -.3Xi.r.5.7 7 a G ;.-.G n 7 Z J.eX}.M.1.r e %.=.H u.i.p.t.n p p n c ",
"1.c b C E.E.W.E.S h p B S 4X5X9X0Xp.a 7 5.R.aXaX{.c.C C :.8X8X7Xu.5.s s f D 4X0X8X4XD 7 $ 9..X*X&XA.x u =.;.9X7X4Xi.M d B H 5X6X",
"M.0.H 3XW.^.E.X.B G ..G.U.P.R.qX|.Y.8.1.w.}.hXgX$Xc.} H W.7XW.K.A A p.F.| | E.9XwX6XV.1.7.'.aXgX#X+X0.-.4X8X8XW.D c y.J.F.G.R.R.",
"h.e.a.i.T.S.v j =.-.9XiX!.h.3.(.k.l.f.k.}.<XhXgX+Xm.8.0.n.C.{ , b G 8XOXO.z.E.J.'.(.k.k.[.<XhX1X+Xf.g.b.J.L.| [ : x J.eX{.Z.M.N.",
"1.w.6.i.t.c f a -.4X9X%X(.f.,.k.k.k.k.k.<XhXgX%XZ.g.1.1.,.) ; , 7 -.yXXXz.` g.a.(.(.h.(..X<XjX-XoXf.g.9.0.1.( & : c 6X X+Xj.h.1.",
"# $ 7 7 n V G H D y.v.v.b.m.(.N.y.v } }.1X,X.XG.f = # # & : z q.6.a.D.{ ( | 4X4X3Xp.a G.*X,X<X}.{ = 9 # = & ( [ 0.a.a.q.g.{ c.G.",
"3 3 # # b -...K.n.c., j X.^.wXwX..t h A.<X,XU.f 8 * @ & = h y.I.d.s.q., , K.tXtX6X-.e ..&X,X).N.b 4 3 @ * & w { V.d.6.5., [ 7XuX",
"C j z > V -.4XG.Z.m.f t ..9XjXdX7Xt V N.`.`.7.9 0 t , ] g S u.a.d.d.s.p q 8XdXjXtX4Xe g Z.+Xh.5.7 r j g z g  .H.'.d.a.5.2 C uXdX",
"7X~.Z.Z.U.J.D.B.Z.C.h y ;.9XhXjXpXC.C.g.h.2.> 7 H E.C.oXW.L.4X2X[.s.e.n %.4XfXjXaXiXC.) j.h.; i m 3X'.[.{.L...3XI.(.'.i.5 =.uXdX",
"%X-X>X-X_.e.7.1.g.| u %.&.K.aX1X>X>X+Xj.g.<.> M 5XiX-X-X%X6X3Xr.h.w.D &.+.=.`.,X,X>Xx.z.C.) ; , p.|.<X,X<XrX3Xp.q.M.P.3X%.=.6X|.",
"aXgX1X#XA.1.<.< < [ &.e 4 d (.,X1X1Xx.j.g.< 7.a.rXaXhX1X$XJ.2Xm 8.c.V u +.r 2.x.1X>X-XoXC.v , v.'.*XjXjXfX].3X*.c 1.v.3X#.#.M 2.",
"jXhX*XC., # , V  .g 9 1 1 % ,._.pXdXQ.c.| c.m.}.aXhXsXiXv 7 3 b v z i 2 2 3 ; 3..XpXiX....{ c.(.[.fXhXsX~.p 5 r g l [ f X 2 > <.",
"jXpXW.w @ @ 8 t N S S y.9.7.<.a.9X8X .w [ C.{.&XfXaXiXK.9 X X 0 i g < v } v.<.1.5X8X;.:. .{ B..X:XfXpXuX .X X o 0 f , { { { 8.5.",
"|.Y.g q V w 8 @ t ..eXdXrX].6.5.D V 8 * f n. X.X.X].0.j h u u 0 = g Q.iXpX%XN.5.p.-.b e w l Q..X:X[.n.[ w y &.u 8 = { E.dXiX{.e.",
"w.s : w 4XK.f # a T.fXjXfX.Xq.s f V = * 0  .U./.{.7.> i ......w # <  XsXhXpXB.f B C b 9 * g D.R.].'.> - g ......9 : C.$XIXhX|.8.",
"y.S g X.wX XV.<.2._.,X,X.Xw.a h X.W.F.V e 4 B H.L.0.> > ~.OXC.) ; g.@X-X@XZ.g 0  .4XW.F.p 8 9 G 6X4X7 > g.+XoXC.; < {.1X1X@Xm.$ ",
"X.X.F.!.%XaX.X'.l.`.@X`.h.< 3 B L.$X$XW.b 1 r B D p.9.N.$X=X=X+Xj.).+X@X).c.9 8 X.9X%X/.X.5 2 r =.4Xt.e.).+X@X+XZ.A.$X@X`.(.<.6 ",
"y.G.~.%XaXfXgXsX}.).$XA.0.i 4 n ]..X*X}.y.5 # $ a u.].}.$X@X-X-X*X.X}.{.U.c 3 3 u.|.rX.XT.n 7 2 p Z I.{.`.@X1X-XsX$X).!.{.P.n 6 ",
"0.B.}.-XaXgXjXhX*X$XQ.X.V t 5 M ].rX:XrXP.s # + $ u.rXaX&X#XLXhXgXpX|.P.J.m 5 7 a.[.<X<X].p.s + + > }.rX.X&X1XIXhXsX$XC.E.;.b 5 "
};
