/* XPM */
static char *floor1727179828[] = {
/* columns rows colors chars-per-pixel */
"64 64 256 2 ",
"   c #392715",
".  c #1E0022",
"X  c #3A1926",
"o  c #371633",
"O  c #342D2E",
"+  c #3A2829",
"@  c #520A0F",
"#  c #471919",
"$  c #581B19",
"%  c #671A18",
"&  c #741811",
"*  c #582B0B",
"=  c #4A251B",
"-  c #562819",
";  c #59331A",
":  c #712E08",
">  c #672918",
",  c #75281A",
"<  c #7B2B1C",
"1  c #6B351A",
"2  c #7A341C",
"3  c #76381B",
"4  c #55092B",
"5  c #471927",
"6  c #571A28",
"7  c #481634",
"8  c #541836",
"9  c #6B1C28",
"0  c #661331",
"q  c #4A2728",
"w  c #592426",
"e  c #542C24",
"r  c #53232B",
"t  c #532B2B",
"y  c #5B2B2B",
"u  c #493529",
"i  c #593629",
"p  c #492737",
"a  c #572736",
"s  c #5C2C33",
"d  c #4A3638",
"f  c #5C3432",
"g  c #563638",
"h  c #682427",
"j  c #642B24",
"k  c #6D2C24",
"l  c #642C2B",
"z  c #6C2C2C",
"x  c #732B25",
"c  c #782826",
"v  c #742D2B",
"b  c #6C3424",
"n  c #643827",
"m  c #6B3B24",
"M  c #65332D",
"N  c #6B332C",
"B  c #6A3B2B",
"V  c #723325",
"C  c #7C3323",
"Z  c #743C24",
"A  c #773C27",
"S  c #73332C",
"D  c #7B342C",
"F  c #7B3B2B",
"G  c #652936",
"H  c #6B2B32",
"J  c #732D33",
"K  c #7C2D34",
"L  c #772A39",
"P  c #643334",
"I  c #6C3433",
"U  c #6C3B34",
"Y  c #6B333B",
"T  c #663939",
"R  c #743433",
"E  c #7B3334",
"W  c #743B33",
"Q  c #7C3B34",
"!  c #78353C",
"~  c #733B3C",
"^  c #7B3B3B",
"/  c #6B4814",
"(  c #7B451D",
")  c #6B5319",
"_  c #5B422B",
"`  c #544332",
"'  c #6B4528",
"]  c #774526",
"[  c #7C432B",
"{  c #7C4A2B",
"}  c #7C532A",
"|  c #694336",
" . c #774735",
".. c #7C4434",
"X. c #7D4A33",
"o. c #74423A",
"O. c #7C433B",
"+. c #705335",
"@. c #2C2546",
"#. c #4D1744",
"$. c #4B2C47",
"%. c #57274C",
"&. c #5A3346",
"*. c #632846",
"=. c #732E4A",
"-. c #693945",
";. c #783844",
":. c #7B4646",
">. c #724A46",
",. c #8D330C",
"<. c #872A18",
"1. c #88381A",
"2. c #973B1B",
"3. c #8E2021",
"4. c #862B27",
"5. c #972B2E",
"6. c #8C3524",
"7. c #843C24",
"8. c #8B3C23",
"9. c #843328",
"0. c #8A342C",
"q. c #843C2C",
"w. c #8C3C2C",
"e. c #963A26",
"r. c #933D2B",
"t. c #852C35",
"y. c #843533",
"u. c #8B3533",
"i. c #843C33",
"p. c #8B3C34",
"a. c #87343A",
"s. c #843C3B",
"d. c #8C3C3A",
"f. c #963A36",
"g. c #A43C28",
"h. c #A53D36",
"j. c #944E0D",
"k. c #87451A",
"l. c #98471B",
"z. c #98541B",
"x. c #AF4F10",
"c. c #A44A1B",
"v. c #A4591B",
"b. c #9A621A",
"n. c #B3691D",
"m. c #864524",
"M. c #8C4B24",
"N. c #83432C",
"B. c #8B432B",
"V. c #844B2B",
"C. c #8C4B2C",
"Z. c #944324",
"A. c #9A4726",
"S. c #93442C",
"D. c #924B2C",
"F. c #9B4B2C",
"G. c #8B542B",
"H. c #995727",
"J. c #95542C",
"K. c #9B542B",
"L. c #844332",
"P. c #8C4434",
"I. c #844B33",
"U. c #8C4C34",
"Y. c #82443B",
"T. c #8C433B",
"R. c #824B3B",
"E. c #8B4B3A",
"W. c #934434",
"Q. c #9B4433",
"!. c #934B34",
"~. c #9C4B33",
"^. c #96453A",
"/. c #924B3C",
"(. c #9C4C3B",
"). c #885437",
"_. c #8C533C",
"`. c #945432",
"'. c #9B5433",
"]. c #975A37",
"[. c #93533B",
"{. c #9B533B",
"}. c #A64B28",
"|. c #B04A2E",
" X c #A45424",
".X c #A75827",
"XX c #AB532D",
"oX c #A55C2C",
"OX c #B55928",
"+X c #A64A35",
"@X c #A34C3B",
"#X c #B44D35",
"$X c #A35333",
"%X c #A45B34",
"&X c #AB5A34",
"*X c #A4533A",
"=X c #AB5539",
"-X c #A35B3B",
";X c #B85937",
":X c #B35C3B",
">X c #9C632A",
",X c #896B30",
"<X c #9D6437",
"1X c #AA6628",
"2X c #B7662A",
"3X c #B97328",
"4X c #AA6433",
"5X c #A86738",
"6X c #AC633C",
"7X c #B36433",
"8X c #BA6837",
"9X c #B4633B",
"0X c #B46C3C",
"qX c #AB7137",
"wX c #BB7434",
"eX c #B8743A",
"rX c #C45B27",
"tX c #C35C37",
"yX c #C46927",
"uX c #C7762B",
"iX c #C66838",
"pX c #D16F33",
"aX c #C87738",
"sX c #D27837",
"dX c #873A44",
"fX c #8C3549",
"gX c #844443",
"hX c #894946",
"jX c #974746",
"kX c #944C43",
"lX c #9C4D43",
"zX c #8D5343",
"xX c #8A5448",
"cX c #995646",
"vX c #8C4C54",
"bX c #A54B43",
"nX c #A35443",
"mX c #AA5745",
"MX c #A45C43",
"NX c #B55846",
"BX c #AF5856",
"VX c #996444",
"CX c #9A7241",
"ZX c #A86543",
"AX c #B86646",
"SX c #B46B45",
"DX c #BB6D42",
"FX c #BB7447",
"GX c #B2704C",
"HX c #C55E4D",
"JX c #C56A45",
"KX c #C47443",
"LX c #C77748",
"PX c #D0724B",
"IX c #CB8039",
"UX c #CA8143",
/* pixels */
": - H Y D 4.< C W R._.].`.Z.1.1.r.Q.S.&XwXaX2X.Xj.: $ j S C c < b { _.cX].D.1.,.2.S.r.$X8XaXaX7Xz.: : , x S R z h V U.cX5X].k.<.",
"- 6 6 a k C A [ X.X.X.V.C.M.}.A.w.y.q.K.8X3X4XF.C h 5 5 l v y.q.[ [ I.R.I.G.z.H.S.N.v C.4XeXeX%XN.h 9 $ 6 l ! ! a.p.P.U.V.G.M.l.",
"g p o o w W L.).). .; ; ] `.0X6XL.9 h M.2X2XA.J *.a + X a H s.W.!.V.3 ; i { 4X4XJ.F 5 B >X1X>X{ Y 8 a 5 X 6 ;.fXlXbXu.V - / J.6X",
"-.T M N R ^ R.[._.{ = X T ].aXeX'.k V Z.v. XC 0 *.T T | W ^ T.T.'.G.1   X +.0XaX4XC.e / z.b.k.j a %.U B B T :.vXbXbXr.c . M ].DX",
"E.].>XqX{.jXdXQ.D.).>.&.>.cXKXsX3Xv.v.z.}.e.4.K K !.oX1X:X{.T.s.C.).o.>.$.>.SXaXuXn.v.z.H.F.1., z L.H.2X6XZXhX:.d.Q.^.hX%.>.BXAX",
"6X0X3X3X=XjXu.u.D.R.&.%.&.hX8XuXuX3Xn.v.g.5.4.0.^.:XwXuX7X/.i.E V.I.o.&.$.-.-XiXuXuXn.x.}.w.C C m.K.yXuXeX6XR.! y.W.T.;.%.-.kX$X",
"LXKXwX3X!.t.t.9.m.F s o 7 H e.OXaXaX1XK.r.u.6.r.:XKXsXwX.X9.k N [ X.U r o 4 C  XyXsX3X1X!.u.9.w.}.8XaXaX8XK.W y A i.i.J #.8 v 6.",
"LXFXqXb.b 6 0 V ] m y r 8 c <.XX0X0XJ.V.Y.T.W.#XJXJXeXqX( > w l W B f t a 9 & e.6X0X4XJ.R.;.gX~.;XyXLXeXH.m e r I Q z l r 6 < <.",
"SX5X} _ q 5 q t i ' +.+._.^.0.d.jXzXS i | xX-X;XiX9X,X) u r 6 s P T U X.).!.r.f.jXzX .i g >.vXNXtXrX6X).| O O p l H N A } V.M.l.",
"'.G./ = f s r 6 i +.].ZXZXcXp.! ;.-.8 + ` +.{.:X;X$X' + f l l y 6 U _.VXZX6X^.a.;.;.g + d -.zXNXtXOXD.B u d g g r y [ _.5X4XH.e.",
"S.q., < S.r.3.@ x '.FXFXZX].W P ! ! l q   ; } {.*XQ., , B.B.2 & @ F ZXLXFXZXU.l ! E E 9 5 e o./.bX+X4.< A [ X.B @ > `.SXLXaXH.2 ",
"0.4.5.g.;X;Xc.3.e.#XLXFX<X{ i f ^ kXhX^ u   _ ] T.u.4.2.XX:X$XZ.<.S.SXLXDX].m e R d.jXjXb = - S d.^.4.<.A.%X-X`.V A 4XeXaXwXk.* ",
"9.u.h.#XiXpXtXrX#X#X7X4X} ;   i T.mXBXcXW     - N i.f.|.9XiXDX9XXXXX;X7XK.1.= = W lXHXHXW.j # $ k y.6.e.XX9XFXGX].'.4X7X2Xc.3 # ",
"y.f.bXNXJXaXPXJXtX#X Xl.3 = + B (.;XPXAXP.$ # # l i.+XmXNXJXLXPXiXOXXXF.m.b # - i.mXPXJXnXF $ @ 9 S B.oX&XSXLXJXDX6X4X Xl.1.> # ",
"R.cXBXNX-X0XFXJX;X;X'._.I.~ a S c.rXrXrX+XL z M M R.lXmXMXZXAXDXiXtXXX!.xX:.P h e.|.rXyX|.r.9.c h A G.<X<X6XBXAXDXAX.XA.+XW.v l ",
"zXcXmXmXJ.`.6X9X=XA.C.)._.zX^ p.|.rXx.c.5.t.! ~ O.[.cX5X{.{.nX:X;X#XZ.L.xXxXY.p.F.}.x.x.2.9.t.E i.X.<X>X>X].lXmXZX-XD.k.S.W.d.^ ",
"cXnX&X X1.8.!.!.i.A A ] U.{.lX@X=XXXA.1.c H ;.;.hXcX-XoXZ.Z.B.W.^.q.V V R.E.kXlX@X=XA.Z.C G ! ;.gXkX].%XK.Z.w.P.kXY.E , 7.S.!.^.",
"cX{. Xj.,.,.c J y r - > B.~.bXbXlXW.D h w y T dXjXlX+XA.l.,.1.v Y a r * ( !.@XbXnX(.L.N p p a -.gXjX*X+XA.e.1.D ! -.8 6 , k.~.$X",
"i.B.H. Xl.6.9.! T g $ * 1.W.+X@Xp.D l y t t s H K w.F. XA.l.1.S -.&.a - : 1.@X@X^.i.V y t p d s I D W.Q.+XS.1.Q ;.=.&.G > ,.Z.K.",
"x A C.C.Z.7.F W ! P = - 1 q.Q.W.y.l t g g U E y.c c q.N.m.m.F Q =.-.a - > 3 ^.^.p.E y t P Y ^ R x , 9.q.B.N.[ ~ ;.=.=.G ; 1 7.W.",
"k H G P n ' ] q.s.E s u i N u.u.Q f u i | hXcX~.1.& l f n '  .Y.fXfXL a t l E a.s.R y ; C u.*X+XB.3 1 e i _ ` +.fXfX=.L e u N s.",
"D G a p | ] V.P.y.t.P i f U d.d.Y.| ; i o.cXAX:X}.1.y p g | X.E.fXfXL H f U s.d.dXT.A > <.g.;XAXXXM.; q u ` +.+.jXfXt.J ; _ U dX",
"B.L.~ >.zXcX[.N.D v F [ L.!.bXbX{.U.1 1 9.*XJXsX2Xl.Q ~ xXzX_.E.Q K y...[ T.kXbXnX(.w.<.& A.JXiXiXoXm.R O.zXxXzXdXK t.q.( V./.jX",
"l.B...:.cX{.W.F S Q U.'.F.+XbX#X*XJ.k.k.F.7XPXpXn.l.i.dXzX[.E.N.b W R./.~.~.^.{.*X+Xl.2.l.XXJXPXiX.Xr.p.kXzX_.U.S v q.S.H.$X(.lX",
"j.m.....P.0.< > I I.MX:XXXg.g.g.}..Xz..X8XPXsXyXx.j.9.i.P.w.2 : - ' ].ZX-X$X1.Z.F.XX}.|.7XDXLXKXOXc.e.0.w.p.7.3 > V !.-X7XXXA.6.",
": 1 b N v c c x W U.-X$X}.2.2.e.B.C.C.%XKXsXwX.Xk.3 x h x c , 2 1 ' ).].'.A.k.k.M.!.0.+X0XKXKX0XF.C c h c v v x b F `.].&X Xl.,.",
"s 6 # # h ! Y.E.N.N.C C B.~.=X{.Q s T ).0XwX].W a p X 5 $ k 9.N.V.{ ( 3 ] V.H.>X).U 8  .qXwX5X_.Y #.8 4 4 a T -.R.I.N.3 3 k.M.J.",
"a a e - R s.hXkX!.] - $ W {.DX9XR.p f ).>X1X[ a 7 p u e y R s./.J.M.1 = p +.<XqX_.+.o | oX1XH.P $.@.a a y s >.:._.U.C > # m ).5X",
"^ ..).`.kXgXT.W.`.U.T T :.MXPXKX4X{ ] M.z.z.V w T ~ m.C.!.^.d.W.'.C...-.&.vXGXLXSX].[ N.H.H.1.l %.-...B.`.I.gXgX^.~.B.F 8 o.cXDX",
"zX-X0XeX{.^.y.w.G.V.Y &.-.cXaXpX3Xn.b.z.l.1., V R.].2X2X&X^.d.s.D.W.:.-.%.:.ZXFXaXwX.Xz.A.l.2 h E [.4X7X1XH.U.u.S.A.F.i.p -.cX9X",
"SXDXaXeX*Xp.9.7.k.' g @.p E OXyXuXuXn.z.Z.4.< 7.-XiXsXpXOXQ.y.K w.L.;.*.#.*.E.7XaXuX3XOXA.8.<.9.!.4XaXuX3Xv.8.4.1.e.Z.F 7 a i.S.",
"JXaXFX4XC.V x 1 ( ' g O 7 9 2.rXaXaX1XH.B.u.8.}.9XPXsXuX.X6.v H Q E L 8 #.0 c  XiXsX3X.XA.6.6.S.XXwXIXaX1Xj.V % 4.1.9.S p 6 c <.",
"PXiXK.Z - = = _ _ ` u y S u.5.+XcXBXgXo.:.jX@X;XtXLX5X).n 4 6 G I I M l V 9.4.S.-X-X).{ m.S.+X#XrXiX0X<X+.+ + p P T M e > 3 7.6.",
"tXXX7.= - = = = ` +.+.].{.^.t.fXvXfX*.s | hXmX;XHX:X).| y 6 6 6 s U { ).'.K.e.0.T.R.' i b q.+X;XtXtX5X+.i O O p p t U X.`.`.S.r.",
"|.e., - A Z - = ; } CXFXSXMXs.L =.=.8 4 t o.lXmX=X+XF 1 [ Q z w $ Z ].FXFX6X!.S R R z $ # 1 L.=X;X#Xw.V B U | g 5 j U.ZXFXSX{.0.",
"t.4.2 1.'.`.3 : Z <XFXLXSX{.S z K dXD z # t O.E./.0.& <.~.'.V.3 * m.ZXLXaX6XN.i I y.a.=.t + n R.@Xf.3.<.B.J._.} > 2 %XDXLXSX[.x ",
"a.y.6.A.7X7X4XA.A. X2X2XH.1 - l E.nXMXkXN 5 e P ^ u.<.g.XX2X1X>Xk.z.1X7X1Xk.;   o.jXBXBX>.O O e t.f.5.5.h.OX3X1Xj.c.OX8X4XJ.3 $ ",
"^ p.~.XX0XDX0X9X.XOX2X.X1.> # n !.:XAXMXP.4 # = M L.r.|.7XwXwXwX1X.X1X1XM.3   O ^ nXHXBXxXd O X 9 t.5.h.#XtXwXqX2XOX2X;X%XI.w @ ",
"L.W.&X9XSXGXFXLXtXXXXXF.p.J 8 v }.OXiXtX+X9 % = ; [ =X:X9X0XeXFX3X2X.XJ._.o.d e i.+XHXJXcXo.y $ $ D bXNXNXGXGXCXwX2XOX*XvXvXG 4 ",
"/.'.:X9XVXZXGXDX;XXXF./.kXdXL a.}.OXOXOXe.t.v N ' I.-X:X<X<XqX0X8X.XD.I.xXhX-.! B.|.rXOX~.^ E k c q.bXNXNXZXCXCX0X8X+Xf.vXvX;.L ",
"nX-XXX}.B.C.{.{.D.B.w.L./.jXfXlX$XoXc.l.6.K E :.xX[.*X$XZ.m.J.`.$XD.9.[ xXhXhXhXlX=X Xc.8.S R Q T.(.mXbX~.U.} G.].$Xq.E gXvXhXdX",
"nX@X}.A.1.1.q.y.R I b F E.bXlXbX*XF.7.2 k H ~ :.hXlX*X X2.1.9.E ^ ! z b U./.kXlX*X+Xl.,.1 y I s.T.@XbX+XF.1.3 ] I.L.z h U Y.lX#X",
"^.@X+X}.e.e.y.! *.$.= > m.+X=X=X!...N i = q t Y ^ jX+X#X|.g.u.a.-.%.8 > ,.Z.*X=X~.S.7.> = + r z y.f.+X*X$XF.k.2 R G s w ; ( A.XX",
"0.P.Q.+X2.1.y.~ &.g 5 * 2 B.(.^.s.I t t t i M H J y.Q.~.F.f.u.;.=.*.8 % & 1.!.~.P.q.k y t t M x 4.4.u.^.!.W.k.C ! Y G w - : 2.}.",
", v W W 2 2 3 [ T T t w h R Y.dX;.G a l R T.P.B.< > S R R R E dXfX;.J % % c Q O.^ ~ h G H Q U.W.<.< z I Y R D y.s.dXL l w j x 9.",
", l s g m ] { V.[ P P l l R ! dX;.=.G J d.(.-X$Xk.1 t p g P ;.d.d.dX4.c k l I :.;.~ H z R P.MX&X X1.s p $.-.^ d.d.d.E v l l R D ",
"6.D Y T R._.).).W n l I ^ gXjXvXhXdXz 9 4.~.AXDX%X[ T g >.xXxXkXf.t.c x z o.hXvXxXhX^ 9 % 6.mX8X7XH.R s >.:.xXcXgXs.K v I ^ kXjX",
"Z.w.^ dX_.`.I.X.U ~ ..E.!.W.(.@X-X!.9.1.S.=XKXLX4XD.q.W zXzXzXR.K K L.I.} } _.zXnXlXS.1.6.+XDXKX3X1Xi.;.gXxXzXE.Q D s.P.I.U.(.(.",
"l.r.f.d.W.L.[ I -.gXcXZXK.g.c.}.OXx.j.c.&XiXKXDX4XM.8.w.U.G.] / h ~ xXCX,X,XG.W.$X|.c.c.#X;XPXaX1Xb.k.q.T.E.X.) 1 H kXcXoXH.F.Z.",
"1.r.5.u.i.D k l -.hXcXZX Xj.x.,.j.x.x.c.iXLXLXqXH.1.1.1.1.3 : 1 0 o.xX,X) ) k.Q.}.c.c.}.8XPXLXeX>Xj.1.6.9.] / * - K ^.MXoXz.l.1.",
"$ % 9 0 z Y ~ ..i.i.N.L.m.S.A.r.i.F N.$XpXsX:XU.b - $ * * 1 C w.f.f.L.} ) b.vXfXdXy.z C.8XpXiX&XN.e - $ * * ; ' w.f.f.8.( M.V.U.",
"6 $ $ $ G ~ :.E.B.m.1 b L.{.mXnXO.t U K.iXiXF.N q   # $ - n Q f.h.g.8.1 / } BXBXvX;.p [ 7XiX XS.z 7 5 # = ; / { ~.h.5.4.1 ' _.cX",
"~ I b V R ;.gXE.J.M.j y :.ZXGXGXzXf B D.OXOX7.6 s f ; / B ~ d.^.h.h.g.x ` xXGXPXBXhXp ' H.1Xl.c G a M b m B  .X.+Xh.f.4.5 | VXGX",
"_.[.H.H.!.T.p.U.H.G.M g -.MXPXPX6XJ.V.M.l.2., 9 ^ R.J.,X).gXfXf.#Xg.w.H $.>.AXPXJXMXM.( z.M.: , L s.+X|.$X/.:.s.Q.+X+Xu.8 -.cXGX",
"5X0XuXwXoXr.6.1.k.] &.$.&.T.AXsXuXuX1Xz.k.<., t.lXZXwXwX0XlXdXt.e.Z.i.&.@.g XXpXsXuXn.b.z.( 1 k u.=XiXpXiXmXhX! p.Z.W.dX%.*.jX-X",
"FXKXaX3X X1.<.2 ( ' g $.7 v  XyXsXaX1Xz.k.3 6.Q.mXJXLXaX6XT.;.K 1.7.U g @.s 2.n.uXIX3X>XV.Z 3 7.$XNXPXPXiXbXdX=.D 1.B.^ #.%.E 2.",
"PXKXqXG.1 $ > W ] P t 4 4 & ,.|.SXSX`.V.} m.A.=XAXLXFXZX[ 6 8 H [ A > 5 5 6 & c.9XDXZXX.+.[ M.}.;XJXLXDX`.b 8 7 b ] m b X 4 k <.",
"PXSX_.i = # r i T U W i.6.0.<.f.cXzX| i ] G.$X&XJXSXZXR.w X 5 t N b Z F I.q.<.1.kXxX:.>.| [ D.;XtXJXSXVX| X o p t b 1 ' ' { 9.6.",
"=XF.B t f i q X s O.MXAXNX=X5.4.^ | e = n V.$X:X#X*Xq.I P f g t = Z `.ZXSX5XZ.C s.~ s a e ' '.&X;X#X`.' i d &.g q - ] <XGXSX'.Z.",
"6.4.> f R.R.b $ k /.DXPXJX:X0.v N M e = u  .[.{.+Xr.< j O.X.| ' $ 3 %XFXLXSXU.k Y Y G r e j L.*X#X+X< - m +. . .e > V.5XLXFX-X8.",
"s.W m [ MXnXS.<.2.XXiXpXOXZ.h P X.).I.B p 7 W Y.U.i., , ].<XG.( : k.1XaXwXH.m t | R._.X.f 5 t ~ vXjXh , k.oX>XG.1 2 oXwXaXOXe., ",
"O...U.].AXAX:XXX X.XyXOXA.2 5 I [.-X-X).G 4 r H ..i.0.S.4X4X1X>XH. X2X2X Xk.e q O.cX:X{...8 5 a -.;.y.r.v.2X3X1XH.K.&X8X2X X<.4 ",
"i.L.'.6X8XJXJXKX7XoXoXK.] h 8 J (.:XAX=Xs.8 $ $ z i.@X:X4X3XwXaX0X&X&X'.D.W 6 8 d.=XiXNX^.I 9 6 w E ^.=X1X2XaXeXeX6X4XK.'.U.v 4 ",
"q.D.6XeXAXKXPXLX0X<XJ.X.W a 8 K @X;XtX;X^.v % @ % p.mXAX6X3XaXLXKXAX*XW.s.L 0 9 d.#XtXtX@XQ c @ @ < *X;X;X8XaXLXLXDX%XG.).O.=.0 "
};
