/* XPM */
static char *collectible11727179827[] = {
/* columns rows colors chars-per-pixel */
"64 64 256 2 ",
"   c #392714",
".  c #2E0D21",
"X  c #38152D",
"o  c #3A272B",
"O  c #342C30",
"+  c #520C0D",
"@  c #461918",
"#  c #581B18",
"$  c #661A18",
"%  c #741614",
"&  c #552A0B",
"*  c #49261B",
"=  c #56281A",
"-  c #593319",
";  c #672706",
":  c #752D08",
">  c #763708",
",  c #672918",
"<  c #782A1B",
"1  c #6B351A",
"2  c #7A341C",
"3  c #76381A",
"4  c #54092B",
"5  c #471927",
"6  c #581B27",
"7  c #481734",
"8  c #541735",
"9  c #6A1C28",
"0  c #661230",
"q  c #492627",
"w  c #562627",
"e  c #542C2B",
"r  c #5C2B2B",
"t  c #493529",
"y  c #593629",
"u  c #4A2836",
"i  c #572837",
"p  c #5C2C33",
"a  c #4A3638",
"s  c #583536",
"d  c #662627",
"f  c #6D2C24",
"g  c #642B2B",
"h  c #6C2C2B",
"j  c #772926",
"k  c #742D2C",
"l  c #6B3B24",
"z  c #683728",
"x  c #6C332C",
"c  c #773926",
"v  c #74332C",
"b  c #7B342C",
"n  c #7B3B2B",
"m  c #662937",
"M  c #6B2B32",
"N  c #772C34",
"B  c #6C3433",
"V  c #6C3B34",
"C  c #663738",
"Z  c #743333",
"A  c #7B3333",
"S  c #743B33",
"D  c #7C3B34",
"F  c #76353B",
"G  c #733B3C",
"H  c #7B3B3A",
"J  c #3C640C",
"K  c #564813",
"L  c #704E15",
"P  c #7C451C",
"I  c #5A7513",
"U  c #726B16",
"Y  c #55442E",
"T  c #6B4528",
"R  c #7C432B",
"E  c #794728",
"W  c #7B522B",
"Q  c #694335",
"!  c #794637",
"~  c #7C4434",
"^  c #725432",
"/  c #6A6C2B",
"(  c #35084C",
")  c #2D1E4B",
"_  c #4F1549",
"`  c #48045A",
"'  c #57175B",
"]  c #67134D",
"[  c #4F2A48",
"{  c #5A3446",
"}  c #682A46",
"|  c #762946",
" . c #683A45",
".. c #783846",
"X. c #6E2C58",
"o. c #4D0263",
"O. c #550669",
"+. c #55026C",
"@. c #55106C",
"#. c #5C0174",
"$. c #590379",
"%. c #6D166F",
"&. c #64057B",
"*. c #692B72",
"=. c #7B4546",
"-. c #72504B",
";. c #5C614C",
":. c #6D5273",
">. c #6E6A66",
",. c #8D330C",
"<. c #872A18",
"1. c #88381A",
"2. c #973A1B",
"3. c #8D1B25",
"4. c #852B27",
"5. c #982D2F",
"6. c #8C3523",
"7. c #843C24",
"8. c #8A3C23",
"9. c #86342A",
"0. c #843B2C",
"q. c #8C3C2C",
"w. c #963926",
"e. c #933C2B",
"r. c #852D35",
"t. c #843533",
"y. c #833C33",
"u. c #8B3C34",
"i. c #893738",
"p. c #843C3B",
"a. c #953A36",
"s. c #A43C29",
"d. c #A63D37",
"f. c #924F0E",
"g. c #87451B",
"h. c #98471B",
"j. c #AE500F",
"k. c #A44B1B",
"l. c #A45B1A",
"z. c #9A621A",
"x. c #B36A1A",
"c. c #894724",
"v. c #83432C",
"b. c #8C432B",
"n. c #844B2B",
"m. c #8C4B2C",
"M. c #944324",
"N. c #9A4726",
"B. c #93442C",
"V. c #924B2D",
"C. c #9B4A2C",
"Z. c #8A542B",
"A. c #985629",
"S. c #9B542A",
"D. c #844432",
"F. c #8B4434",
"G. c #844C33",
"H. c #8C4C34",
"J. c #83453B",
"K. c #8B433B",
"L. c #824B3B",
"P. c #8B4C3A",
"I. c #934434",
"U. c #984537",
"Y. c #934A34",
"T. c #9C4C33",
"R. c #934A3B",
"E. c #9C4C3B",
"W. c #8C533B",
"Q. c #885438",
"!. c #945433",
"~. c #9B5533",
"^. c #975A37",
"/. c #93533B",
"(. c #9B533B",
"). c #A64B28",
"_. c #A65728",
"`. c #AB532D",
"'. c #B65928",
"]. c #A64A35",
"[. c #A34C3B",
"{. c #B44D36",
"}. c #A35333",
"|. c #A95837",
" X c #A4533B",
".X c #A45B3C",
"XX c #B85936",
"oX c #B35C3B",
"OX c #896C2F",
"+X c #9B6329",
"@X c #9D6436",
"#X c #AA6728",
"$X c #B7672A",
"%X c #B97229",
"&X c #AA6433",
"*X c #A86638",
"=X c #AC633C",
"-X c #B36434",
";X c #B76839",
":X c #AB7130",
">X c #BA7438",
",X c #C35B28",
"<X c #C45C38",
"1X c #CC6F2F",
"2X c #C7762B",
"3X c #C66838",
"4X c #C87738",
"5X c #883B44",
"6X c #8A344D",
"7X c #894746",
"8X c #974A44",
"9X c #8C5346",
"0X c #995646",
"qX c #8C4C54",
"wX c #A44B44",
"eX c #A65844",
"rX c #B55847",
"tX c #AE5855",
"yX c #996444",
"uX c #9A7241",
"iX c #A86643",
"pX c #B46B45",
"aX c #B86845",
"sX c #BB7447",
"dX c #B2704C",
"fX c #904C63",
"gX c #C45C53",
"hX c #C56A46",
"jX c #C47443",
"kX c #C87748",
"lX c #D0724B",
"zX c #748F0A",
"xX c #74931A",
"cX c #7B8D4C",
"vX c #849617",
"bX c #838330",
"nX c #CB8039",
"mX c #CA8143",
"MX c #640183",
"NX c #690385",
"BX c #6E018C",
"VX c #70028C",
"CX c #71118C",
"ZX c #750194",
"AX c #790597",
"SX c #7C009B",
"DX c #742E8B",
"FX c #7E00A3",
"GX c #7F548B",
"HX c #861789",
"JX c #842C95",
"KX c #8502A6",
"LX c #8A0AAE",
"PX c #9129A8",
"IX c #8D49A4",
"UX c #9D1EC0",
/* pixels */
"; , g Z 9.j 2 c S L./.^.!.M.1.<.e.C.C.`.>X4X2X_.,.; , d k b j 2 l ~ W.0X^.V.1.,.8.N.e.}.;X4X4X:Xh.: : % k b v h 9 v F.0X@X^.M.: ",
"w w 8 i f b 7.n ~ ! W n.c.A.A.C.q.t.t.S.%X%X&XV.c d 5 q g k 9.0.v.R W n.L.m.A.k.B.v.j m.&X>X;X#Xv.h d # w g G F t.u.F.G.Z.Z.V.M.",
"a u X X w v D.W.Q.! - - E !.;X&XD.0 d V.$X$XM.A } u o X r M y.R.m.n.3 - y n.&X:XA.R 5 l +X%XA.E M _ i 5 @ 7 ..7X8Xd.u.2 & T S.&X",
" .C C z S H L.!.!.E q X Q ^.jX>XS.f c c._._.j 0 } C C T S H 5XK.~.m.1 o o ^ *X4X&Xn.w 1 Z.z.g.g [ { V l z G ..qXtX[.a.j . y .XaX",
"P.~.+X#X^.8X5Xa.V.L.-.{ -.0X3X4Xx.x.z.h.).w.4.N N I._.&X=X(.K.y.Z.G.! { [ -.iX4X2Xx.l.k.k.N.1.f k v.S.'.*XeX7X..a.U.K.5X[ =.0XaX",
"=X;XnX%XeX8Xi.q.V.J. .[ { 7X;X1X2X%Xx._.w.5.3.q.U.oX>X2X&XE.y.A m.Q.!  .[  .}.3X2X2Xx.x.S.q.4.2 g.S.2X2X4X=X7XB n F.K.7X[ X.U.|.",
"kXjXnX#XB.r.4.0.c.n i X 7 M w.,X4X4X#XS.I.i.4.s.rXjX4X4X_.7.h x R ~ V u X 4 j _.3X2X%X#XY.p.t.8.).-X4X4X;XA.l g b y.A N _ 8 N 6.",
"kXsX:Xz.z 4 0 Z c l e w 8 j <._.;XpXA.n.D.K.U.`.3XjX>X:XP , 6 g S V g e p d % w.=X;X#X!.! 5X7XE.XX1X4XsXA.T e e Z H k r q d < <.",
";X*XW K q 7 7 e y T ^ ! W.R.q.i.8X9Xx y Q -.}.XX<X-XOX^ y q 6 p g C Q ! Q.H.e.a.8X9XQ Y { =.9XrX<X<X&XQ.Q O O u s h x T W n.M.h.",
".Xm.T * r p w @ y ^ ^.iXiX0Xu.F ....8 o Y ^ .XoXXX_.T o s g g d w V W.yXiX=XU.i.....s q a Q 9XrX<X'.V.V t a a s u d R !.*X*X_.M.",
"B.0.< < B.B.% % c E.sXsXdX^.V B G F g q   K G.(. XC.< , b.b.2 $ + v.iXkXjXiXG.h F F N d 5 q G R. X].4.< c D.~ l + , !.pXmX>XS.2 ",
"9.4.5.s.XXXXs.2.w.|.jXsX@XE y s H 8X7XS t   y ~ F.i.4.2.`.oX}.M.<.B.aXkXsX~.l q S a.wX5Xv * = v K.a.<.1.N.}..X/.c 2 .X>X4X;Xg.& ",
"9.i.d.{.3X1X<X,X{.{.-X&XE -   y P.eXtXeXc     = v t.a.].XX3XaX;X`.`.XX-XS.3 & q D 8XgXrXU.f @ # h t.9.N.`.;XaXdX^.~.&X$X$Xh.3 @ ",
"y.a.wXrXhX4XlXlX<X{._.h.3 * o V [.<XlXaXH.6 @ @ g y.[.{.rXhXkXlX<X'.`.C.b.3 @ w u.eXhXlXwXb # + $ v B.}.|.;XkXkXaX=X&X_.k.1., @ ",
"L.8XrXrX.X=XsXhXXX'.~.W.L.! e k s.,X,X,Xd.N M g z J.0XiX.XiXdXhX3X,X`./.9X=.V d 8.k.,X1X`.e.4.j d n Z.+X@XiXaXtXsX;X_.N.].I.b M ",
"9X0XeXeXA.~..XaX}.C.m.G.W.9XH u.).,Xj.k.5.r.F H ! 9XeX.X/.E.eXoXXX{.B.H 9X7XJ.t.].).j.j.k.4.t.N y.! +X@X+X^.wXeXiXeXV.g.B.Y.i.A ",
"0XeX|.).g.8.I.Y.0.c l E H.(.8X X|.).k.6.j M ....7X0XeX_.M.M.b.F.Y.y.j 9 H K.8XE.wX}.).g.v M F ..7X8X^.~.V.M.b.u.8XL.b < 7.b.Y.R.",
"0X0X_.f.,.,.j k p w = , b.T.wXwX[.U.A g w r G ..8X8X}.N.h.1.1.k m p w K U Z./.wXeXE.D.x e u i  .7X8X[.}.C.2.1.b F  .i w < 1.T.}.",
"0.V.S.l.h.6.t.Z C s @ ; 1.B. X].a.Z h r e e r M j u.C._.h.h.8.b ] { / zXvXvXOXY.a.u.v r u u u s M b a.T.].B.1.b ..X.} p , ,.M.C.",
"f b b.m.c.7.n H F C q & f 0.U.I.D g e e s V A t.4.j 0.v.c.c.b A m -.xXvXzXzXOXu.i.N g e p V H D k < 7.0.F.v.E ~ ..| | m = 1 c.I.",
"d h m s l T E 0.t.N r t y x i.i.S C t e Q 7X0XU.1.< r p T l A H Q.bXvXzXzX/ ^ y.i.Z r w c q.[.].b.3 - w y Y Y -.6X6X6XM t - V p.",
"9.M [ u V E n.v.i.A V s y V i.a.J.Q - y ! 0XaX;X).<.r o s V F W.bXvXvXzX/ Q A 5X5XK.c , <.s.XXrX|.g.1 q t Y ^ ^ 5X6Xr.N - y G ..",
"M.y.G =.9X/./.D.A b n R D.R.wXwX(.G.3 1 7.}.hXhX$X).H C ^ =.R.OXvXzXzXL E p.8X8XwX[.M.: <.2.aX3X3X_.v.Z J.9XQ.9Xp.r.r.0.P n.R.0X",
"h.m.! L.0X0XI.n v S Y.T.C.].[.{. XS.g.g.C.;XlX1X$Xh.R B S L.OX/ vXzXI f n b.E. X X}.N.2.M.`.hXlX1X`.M.y.8X9XW.L.v k 0.Y.S.C.T.wX",
"f.g.R J.K.q.< , B J..X;X].s.s.s.).S.h._.3XlX1X2Xj.f.: ; 4 Y U zXzXzXU L L f.g.f.k._.).).oX3XkXjX'.j.w.t.u.u.0.2 , c Y..X-X_.N.6.",
", 1 z x j j j j n L. X}.).k.2.w.B.m.c.&XkX4X%X_.L...} m X J I zXzXI I / W R v < b.b.6.].>XkXjX;XV.j j j j j f h f c !..X_.).h.,.",
"p 6 @ @ d F J.P.n.v.c c b.V.|.(.! m V ^.:X:XW X.DXDX%.X.O I xXcXzXzXI ;.{ *.X.} X.} i G.*X>X:XW. ._ 8 4 4 i m Q L.n.R 3 2 P Z.A.",
"i p = = B p.7X8XY.v.# # D (.aX=X! u s W +X+X{ $.ZXAXDX:.;.;.>.>.cXxXI { DXNX&.@.@.( ( Q +X#XA.C [ ) u i r g -.=.9XH.n , @ z !.*X",
"G J.Q.^.9XK.K.I.!.n.C s =.iXlXjX&XE n.g.f.^ *.BXLXPXIX>.>.:.PXIXGX;.;.>.IXDXKXMX$.@.' =.A.j.1.h i  .! F.H.W.=.K.Y.T.b.n i G (.sX",
"/..X*X;XeXR.y.0.A.G.C [  .0X1X1X2X#Xz.f.> m @.BXPXJX:.:.IXPXUXPXDX:.;.:.:.DXCXMX$.@.X.=.S.f.: d A (.&X#X#XA.F.u.e.N.C.y.u  .(.iX",
"pXpX4X>X(.u.9.1.P T s [ [ b '.1X2X2Xx.f.2 0 #.MXCXDX*.DXJXPXLXFXCXDX*.:.*.DXCXMX$.' ..R.N.h.<.b Y.&X4X2X%Xl.v.4.1.w.e.0.u i t.C.",
"hX4XsX-Xm.j , c P T a o 7 9 2.'.4X4Xx.f.5X%.&.+.` ) o.MXKXAXKXMXMXMXMX@.@.@.@.$.O.' ..v.M.2.6.N.{.;XnXnX#Xf.2 % 4.1.9.k u 6 9 <.",
"hX3XS.l = # = Y Y Y t y v t.5.wXtX0Xg.H *.HXCXBXO.o.&.&.&.&.NX&.$.$.O.O.$.&.#.O.o.' p l n.B.].{.,X3X>X@X^ t o u p C g g - 3 8.6.",
"<X`.7.* = * * * Y Q ^ Q.(.T.r.6XqXqX& 8 *.DXFXBXo.` O.#.O.` +.+.@.@.o.` #.#.O.o.o.' 7 & 1 v.].XX<XXX.X^ t O O u u e V ! A.!.B.e.",
"{.w.< , c l = @ - ^ dXsXaX.Xy.N | | & 4 %.%.AXBXo.X ` o.` ` ` ( ( ` ` ` o.` ` ` ` ` 7 + & z D. X{.{.q.v z Q Q s 5 d G.*XsXpX(.9.",
"r.4.< g.S.!.E ; 3 @XsXkXpX(.v M F i.c x ] @.BXVX#.+.+.+.#.O.` ` o.o.$.#.` ` ` o.' X.| N q q z J.[.d.3.<.b.!.!.W , 2 |.sXsXdXY.k ",
"t.t.6.N.-X-X_.V.S._.$X$Xh.1 = z K.eXeX9Xy ` NXSXKXKXSXZXSXZXVXBXVXZXZXZX$.+.+.+.] 6XtXtX;.O O e t.a.5.5.d.{.:Xz.f.k.'.;X-XA.3 # ",
"p.u.T.`.;XsXsX;X'.'.'._.g., @ g T.=XhX.X1.8 %.ZXKXLXKXKXKXFXZXVXZXZXZXBX&.O.o.@.| 8XgXtX9Xa O @ 9 r.5.d.{.<XnX:X$X'.,XXX.Xn.w + ",
"y.R.|.;XpXdXsXkXXX'._.C.y.N 8 k ).'.3XXXN.j ] %.KXKXKXZXKXSXVX&.BXNX&.$.$.o.` ` N ).<XhX0XG r # # j [.rXrXpXuXsX>X$X'. X0X6X} 4 ",
"R.~.oX-XyXiXdXaXXX`.C.R.8X6XN i.).'.'.'.s.r.N *.AXFXZXZXSXSXVX&.&.#.+.+.+.o.( [ a.).,X'.T.y.A f c 0.wXrXrXiXuXuX>X;XC.K.fXqX..N ",
"0X X].).m.b.(.(.B.b.b.D.R.8X5X8X[.`.k.h.q.j n X.CXKXBXMXFXFXSXVX&.&.BXVXMX+._ G E.|.'.k.8.k Z D i.R.rX XE.m.W n.^.}.0.A 7XqX7Xa.",
"eX X).k.,.7.0.y.Z C f n R.0XwXwX X~.1.2 h k V ..6XCXCXMXAXSXZXVX&.NXZXZX&.%. .H. X Xh.,.1 w B p.K.wX[.[.C.g.3 E J.D.k d V J.E.wX",
"U.].].].s.w.t.F { i = , 8.T. X XY.n x e q q y m | X.X.X.CXBXBXNXMXMXNXMXO...Y.}.~.B.c , q q q h t.a.[.[.].C.g.1.S C p 6 - P C.`.",
"q.u.U.T.2.1.t.G { [ 5 & 2 b.[.E.p.C p t e y g B N r.N m ' #.BXZXZXVXMXO._ v B.~.I.y.f w t e x j j 5.u.I.R.B.g.9.Z m m w = > 2.).",
"j v Z S 2 3 2 R G s p w d A p.p.G } i m D F.F.b.2 : , w q %.HXLXLXHX%.0 # f D J.H B d m M D H.I.1.< k M C Z b y.i...N M w d j 7.",
"< g e s l E E E T V x r g M ..5X..m m j u.E.eX}.g.1 y e & X.JXPXPXHX] ; ; h S ..=...M h Z F..X|.k.1.p u u  .H p.K.i.t.M r g N b ",
"1.b G C Q.Q.Q.Q.S z g x H 7X8XqX8X5XM 9 4.E.aXpX.Xc.V C ^ -.fXfX6X6X9 : l ! 7XqX9X7XF 9 % 9.oXaX-XS.Z s  .qX9X9XK.i.A k B H 7X8X",
"M.q.p.../.W.H.~ V G J.P.H.I.E.eX XY.7.1.M.|.jXjX#Xm.H ~ 9X9XZ.P < 2 7.Z.W W Q.9X0X[.B.1.9.T.aX4X%X#X0...=.9X0XW.D A y.F.G.H.E.[.",
"N.N.a.a.K.G.n B C 7X0XiX~.k.s.k.).l.f.k.|.3XkX4X*XM.8.q.H.c.L > , ~ Q.yXOXZ.n.I.].`.k.k.{.;XkX4X#Xz.g.0.K.P.W L g k 8X0XS.S.N.e.",
"1.6.5.r.y.b f h  .7X0X=XS.f.,.j.j.j.j.j.3XlXjX*XZ.g.1.1.1.3 > 1 9 =.9XOXU U c.a.).k.k.).<XhXlX>X+Xf.1.6.0.2 L & , b R.eX#Xz.h.1.",
"# $ 0 9 M B H ~ H y.D.G.c.B.s.B.y.n v.}.4X1XoXH.z = # # & 1 c u.5.a.v.W L W qX8X5Xi.h H.;X1X3X}.E w = # & - K T 0.5.a.q.g.g.n.F.",
"w 6 # # m G =.L.b.c.1 f ~ E.eXeX! w V S.3X3XC.x q   @ & = z y.U.d.].6.1 L n.tXtXqX..u R -X1X'.B.M 7 6 @ * & T R U.d.w.4.1 T 9XyX",
"B B c f S ! 7XH.A.g.f p ! yXlXdXW.s V V.'.'.9.w p s - T T S i.a.d.d.w.< y 9XdXlXtX7Xu l A.#Xh.4.m 8 h x l l Q J.].d.a.4.5 C yXdX",
"W./.~.A.R.p.u.H.A.n.C a ..0XlXlXpXA.c.c.h.2.< 9 H P.Z.+XW.L.5Xa.{.s.q.m a -.tXlXhX.XZ.P z.h.: d M K.].{.}.R.! 7XU.].].t.7  .tXdX",
"=X;X2X%X`.e.6.1.g.W s [ [ K.pX4X1X2X#Xf.g.,.< N E.iX>X>X=X8X5X5Xw.8.t.{ ) Y {.1XnX2Xx.z.c.P , f u. X3X1X3XeX8X..q.M.B.5X'  .9X}.",
"sXjX4X%X_.1.<.2 P T s [ u b k.3X4X4X#XA.g.2 6.a.rXaXkX4X=XK.r.N 1.c.S a ) p 2.x.2XnX%X+XW P 3 7.[.;XlXlX3XwX6Xm b 1.b.D [ _ A 2.",
"lXjX>XZ.1 # d v S z w 4 4 % ,.{.aXpX!.n.W c.M.|.aXlXsXiXR d 6 M R c , 5 X # : 2.;XpXiX! W E c._.XXhXjXaX~.l 8 8 x P n z X 4 < <.",
"lXaXQ.y * @ q y C V S t.9.6.<.e.0X9XQ y T Z._.oXaXpXiXL.r . 7 e g c c c G.v.<.6.8X9X=.-.V E !.{.<X3XdXyXQ X X u e z 1 T T W 7.7.",
" XU.l t z s q 5 p ! eXaXaX].5.4.D Q q * l n.^.oXXX[.D.x g s a i = l !.iXpX=XN.4.H ..m u e l !.XX<X{.Y.T t a s s q = T ^.uXpX~.e.",
"q.<.d y L.L.z # x Y.sXlXhXoXi.j x V = * y V /. X}.e.< d ! ! ! z # 3 =XsXkXpXH.f Z C m w = z D.(.[.].1 , z W -.Q w , m.:XkXsX.X6.",
"y.S x R eXeXB.<.2.`.3X1XXXM.d B ! Q.G.Q u 7 S L.H.u.% 2 A.*XZ.L : f.&X2X;XA.l e Q L.W.D.s 5 e G qX8Xd < g.A.+XA.> 3 `.>X1X'.N.% ",
"! ~ H.^.;XaXoX)._.l.3X'.h.< 5 B H.=X*XH.m 4 w x D y.y.B.&X:X:X+XA.S.$X$X_.g.w q J.0XeX.Xy.6 5 i ....t.e._.$X%X#XA.S.&X-X$X`.<.0 ",
"y.G.~.=XaXhXhXhX-X_.#X!.0.d 8 Z E.oX;X|.p.6 4 # f y.[.oX&X;X>X>X;X|.|.}.Y.v 6 w i. X;XrXR.B 0 6 r A U.].'.$X4X>XpX*X&X_.~.Y.Z 4 ",
"0.V.=X>XaXkXkXkX:X*X!.R V i 8 N ].rX<XrXa.N $ + $ y.rXaX&X%X4XkXjXaX XI.p.F 0 9 a.{.3X<X[.H j + + < |.oXoX-X4XkXkXsX.XZ.Q.! } 0 "
};
