/* XPM */
static char *left1727179828[] = {
/* columns rows colors chars-per-pixel */
"64 64 256 2 ",
"   c #0A0803",
".  c #32140C",
"X  c #0F2A15",
"o  c #342D17",
"O  c #38251A",
"+  c #1E0022",
"@  c #38162C",
"#  c #0D2A24",
"$  c #292825",
"%  c #392827",
"&  c #393927",
"*  c #31322D",
"=  c #510D0B",
"-  c #4B0818",
";  c #471818",
":  c #581B19",
">  c #661A18",
",  c #711713",
"<  c #48261A",
"1  c #522D11",
"2  c #572718",
"3  c #59341A",
"4  c #712A08",
"5  c #672819",
"6  c #782A1B",
"7  c #69361A",
"8  c #77361B",
"9  c #50052E",
"0  c #550A29",
"q  c #471927",
"w  c #571B27",
"e  c #481634",
"r  c #551835",
"t  c #6B1C28",
"y  c #651230",
"u  c #482826",
"i  c #562527",
"p  c #542C2C",
"a  c #5C2B2C",
"s  c #493729",
"d  c #583629",
"f  c #4A2836",
"g  c #572836",
"h  c #5B2C33",
"j  c #493836",
"k  c #583635",
"l  c #682726",
"z  c #642B2C",
"x  c #6D2C2C",
"c  c #772926",
"v  c #732D2B",
"b  c #6C3423",
"n  c #673926",
"m  c #64332C",
"M  c #6B332C",
"N  c #6B3B2B",
"B  c #7C3323",
"V  c #753A26",
"C  c #73332C",
"Z  c #7B342C",
"A  c #7B3C2B",
"S  c #662936",
"D  c #6B2B32",
"F  c #772C35",
"G  c #6C3433",
"H  c #6C3B33",
"J  c #663738",
"K  c #743333",
"L  c #7B3333",
"P  c #753B33",
"I  c #7C3B35",
"U  c #76353B",
"Y  c #733B3C",
"T  c #7B3B3A",
"R  c #2D4121",
"E  c #384529",
"W  c #58431A",
"Q  c #694818",
"!  c #7C451D",
"~  c #47452C",
"^  c #59422A",
"/  c #49562B",
"(  c #494531",
")  c #4B4D32",
"_  c #584936",
"`  c #4C5235",
"'  c #56583A",
"]  c #6A4627",
"[  c #7C432B",
"{  c #794728",
"}  c #684436",
"|  c #7C4434",
" . c #794738",
".. c #6E5533",
"X. c #765337",
"o. c #2B2446",
"O. c #4E1842",
"+. c #4F2A48",
"@. c #593446",
"#. c #6D2A45",
"$. c #693A45",
"%. c #783944",
"&. c #5B5441",
"*. c #6A4648",
"=. c #7A4546",
"-. c #6A5745",
";. c #765944",
":. c #5B6243",
">. c #666847",
",. c #736C4F",
"<. c #796654",
"1. c #797754",
"2. c #7A7163",
"3. c #8D340A",
"4. c #872919",
"5. c #90211C",
"6. c #88381A",
"7. c #973A1B",
"8. c #852B27",
"9. c #972D2E",
"0. c #8C3523",
"q. c #843B24",
"w. c #873628",
"e. c #843B2C",
"r. c #8C3D2C",
"t. c #963926",
"y. c #933D2B",
"u. c #862C35",
"i. c #883636",
"p. c #833C33",
"a. c #8B3C34",
"s. c #843C3B",
"d. c #953A36",
"f. c #A23B27",
"g. c #A53D36",
"h. c #83431C",
"j. c #8A451A",
"k. c #99471B",
"l. c #965111",
"z. c #AC4C15",
"x. c #A4591B",
"c. c #9A621A",
"v. c #B46A1D",
"b. c #874826",
"n. c #84432D",
"m. c #8C432B",
"M. c #8C4B2C",
"N. c #984626",
"B. c #93452C",
"V. c #924B2D",
"C. c #9A4A2C",
"Z. c #8A542B",
"A. c #985528",
"S. c #9B542A",
"D. c #844432",
"F. c #8B4434",
"G. c #844C33",
"H. c #8C4C34",
"J. c #83453B",
"K. c #8C433B",
"L. c #834B3B",
"P. c #8B4C3A",
"I. c #934434",
"U. c #994437",
"Y. c #934B34",
"T. c #9C4B33",
"R. c #934B3B",
"E. c #9C4C3B",
"W. c #8A5439",
"Q. c #945433",
"!. c #9B5533",
"~. c #975A37",
"^. c #93533B",
"/. c #9B543C",
"(. c #A64A29",
"). c #A45524",
"_. c #A8572A",
"`. c #B65928",
"'. c #A64A35",
"]. c #A34C3B",
"[. c #B44D36",
"{. c #A35333",
"}. c #AC5333",
"|. c #A4533B",
" X c #A45C3C",
".X c #A95938",
"XX c #B75A38",
"oX c #9C6329",
"OX c #8D6232",
"+X c #9D6436",
"@X c #AA6728",
"#X c #B6672A",
"$X c #B97328",
"%X c #AB6433",
"&X c #A86638",
"*X c #AC633C",
"=X c #B36433",
"-X c #B76739",
";X c #AB7130",
":X c #BA7438",
">X c #C45A28",
",X c #C35C38",
"<X c #C7762B",
"1X c #C76837",
"2X c #CD7030",
"3X c #C77838",
"4X c #873B43",
"5X c #8C384B",
"6X c #884745",
"7X c #974B44",
"8X c #8C5345",
"9X c #995646",
"0X c #8C4C54",
"qX c #A54B43",
"wX c #A75644",
"eX c #A45B43",
"rX c #B55946",
"tX c #AC5755",
"yX c #996444",
"uX c #876D53",
"iX c #97765A",
"pX c #A86643",
"aX c #B76646",
"sX c #B46B45",
"dX c #BB6C43",
"fX c #B36F4E",
"gX c #BA7448",
"hX c #887868",
"jX c #967C63",
"kX c #C65C4B",
"lX c #C56A45",
"zX c #C47444",
"xX c #C87749",
"cX c #CF724D",
"vX c #7F815A",
"bX c #CB8039",
"nX c #83845F",
"mX c #888A64",
"MX c #9B856A",
"NX c #979071",
"BX c #9B9A74",
"VX c #A88D71",
"CX c #B7997C",
"ZX c #CA8143",
"AX c #949691",
"SX c #AC9A86",
"DX c #BBA58B",
"FX c #AEAFA9",
"GX c #C7A98A",
"HX c #CDAE91",
"JX c #D6B795",
"KX c #E3BF9A",
"LX c #C5B9AE",
"PX c #E5C39C",
"IX c #EACAA8",
"UX c #F5D1AA",
/* pixels */
"4 2 D G Z 8.6 B P  .~.~.Q.N.3.4.y.U.B._.:X3X$X_.3.4 2 l v Z c c b { W.9X/.Q.6.3.t.N.r.{.-X3X3X-Xk.4 4 6 v C C x t B F.^.&X~.j.4.",
"2 w r g x B A n.D.X.| b.M.Z.S.C.r.w.e.{.#X$X=XV.A l q q z v w.e.[ [ X.G.G.M.A.k.V.m.c M.%X:X;X%Xn.l l > w z G %.s.i.F.H.G.Z.Z.k.",
"k f @ @ a C | W.W.{ 3 3 { ~.-X&XF.y l N.#X#XN.F S f % % i F s.F.Q.b.Q 2 d { %X;XA.V q n oX#Xc.[ J r f q q w $.5X7Xg.a.8 1 ] A.*X",
"$.J J N G | 6X^.W.{ u @ H ~.zX:XS.b b b._.).B y #.$.J N P T 6XR.Q.M.b < $  .:X3X%XZ.i 7 Z.c.h.z O.+.H V N J =.0XtX].d.c + m ~.-X",
"P.^.;XoX9X7Xd.I.Q.P.*.@.*.9XzX3Xv.c.x.).(.t.8.F F R._.%X X/.K.p.Z.H.X.@.+.=.sX3X<Xv.z.l.).N.6.l C D.S.`.&XpX6X6Xa.U.K.6X@.%.tXaX",
"*X-X$X$X|.7Xu.i.B.L.$.+.@.6X-X2X<X$Xv.x.t.9.8.9.]..X<X:X%XT.p.K n.G. .$.+.$./.1X<X<Xv.v.S.m.8.8 b._.<X2X1X*XJ.G p.y.K.4X+.%.6X|.",
"xXzXbX@XY.8.F w.b.A h @ 9 x f.#X3X3X@XS.I.9.0.t.rXzX3X<X_.q.x C n.| H f @ r 8.x.3X3X$X@XV.i.i.r.S.#X3X3X-XS.M z Z a.L K O.r c 0.",
"xXgX;Xc.b y t K { 7 i f g c 4.(.sX-XS.G.| P.U.}.1XlXgX;X! 5 w z P } a p g t , t..X-X@XQ. .4XK.T.`.1XxX:X~.Q p p G P x l f z 6 4.",
"-X&XX.W u q e h d ] } X.^.U.r.a.7X8XG d } 8X.XXX,X=XOX..d u r a m J }  .W.H.d.d.7X8X .^ _ %.8XrX,X>X&XW._ * * f S m G N X.b.N.k.",
" XV.Q < h h i q d ..+XyXpX9Xi.U %.%.r % ( ../.XXXX_.] & d z z a w H W.+XpX&XI.i.%.%.k % f *.0XrX,X`.H.N f j k k i z { ~.;X%XA.t.",
"B.e.6 6 B.B., , c /.gXxXsX~.P J U U S q o 3 G./.|.U.6 5 m.B.B , = e.pXxXxXpXG.D U U F t q u P R.wX'.0.6 B G.| N - 5 Q.sXZX3XA.8 ",
"w.8.9.f.XXXXz.5.t.}.zXgX+X{ s h  .6X7X .u o ^ [ F.a.5.7.}..X}.N.4.Y.aXxXdX!.n u K K.qX5XC < 2 V K.d.4.4.N.{. XQ.b A _.:X3X#Xj.1 ",
"w.i.g.[.1X1X1X,X[.}.=X@XZ.3 o k K.wXfXeXV < O 2 C i.9.'.XXlXlX-X}.}.XX=X{.8 1 < I 7XkXkXd.z ; : v u.0.N.}.-XdXfX X!.%X#X=X).4 ; ",
"i.d.qXrXlX3XcX1X,X[._.k.7 1 % M E.,XkXaXF.i . ; z p.E.XXsXlXzXlX,X`._.C.m.7 ; i a..XcXlX|.A : - w Z B.{.%XaXxXlXsX*X.X).k.6.5 ; ",
"L.7XtXrX.X-XgXlXXX[.{.W. . .g c f.>X>X>X'.F z z H P.wXrX.X.XrX-X>Xz.f.B.R.=.H x y.z.>X>X}.y.8.c l V Z.oX+X&XtXaXdX-X_.A.{.I.L S ",
"8X9XrX.XQ.Q.*X-X}.C.H.P.W.8XT a.z.>Xz.(.9.u.U %. .W.9X X^.~.9XpXXX.XC.p.8X6Xs.w.C.(.v.z.7.w.u.L s.P.OXoXoX^.wXwXpX XV.6.B.I.s.i.",
"9X9X}.).j.q.Y.Y.n.V b [ P./.7X].}.}.k.7.c D %.%.6X7XW.G.X.;.1.uXiXuX,.X.X.| F.d.].}.(.j.C z U %.6X8X/.{.C.B.m.a.8XK.K 6 q.m.U.R.",
"9X/.).l.3.4.8.v h p 2 4 n.E.|.qX].I.I z w p J 6X7X6X| ] :.,.vXmXmXmXnXvXuXuX8XE.qXE.F.M p f @.$.4X7X].{.C.7.6.B U $.g w 6 6.C.{.",
"p.V.S.x.k.0.w.U J g ; 4 6.B.].].a.K x p p p S D D J _ >.,.1.vXmXBXBXBXBXNXmXhXuXP.L C z f f f h D Z B.T.'.B.6.Z %.#.#.g 5 6.N.S.",
"c V n.M.h.q.A U U J < < 7 e.U.U.i.z p p k H L v d ^ ` >.>.vXvXmXmXNXBXBXBXNXvX1.X.m i i S H T I C 6 w.e.D.n.{  .%.%.#.#.3 4 n.I.",
"l z S J n { { p.s.F a s d M a.a.I d u d *.6XR.R.../ ' ' :.>.,.1.nXnXmXmXmXmXvX1.:.( < > c d.].].m.8 3 i d ^ _  .5X5X5XD < 3 N s.",
"w.D +.f } { b.n.i.u.H d d P i.5XJ.} d n  .9XrX XX./ / ' ' ' >.>.>.1.,.1.1.1.1.1.:.~ 1 : 4.(.XXXX}.j.7 u s _ } ;.5X5Xu.F d ^ Y %.",
"m.D.Y =.8X9X^.D.Z v A [ D.I.qXqX/.H.7 7 e.|.-X-XX.R & ~ ' ' ' ' :.>.>.>.>.>.>.:.` ) s 2 4.7.lX1X-X_.r.K  .8X8XW.s.F u.A ! n.R.7X",
"k.m. . .9X/.F.Z C P Y.!.T.'.'.[.|.S.h.j.(.-XzXfXjX1.>.' ' ' ' ' ' ' :.' :.' ' ' ' ` s 7 6.}.lXxX2X_.m.r.7X8XW.P.C c a.V.S.S.E.qX",
"j.j.[ L.K.r.6 5 K P.eXXX(.k.f.f.(.S.A.).,X2XgXCXHXDXSX<.^ E / ' / / ' ' ' ' ' ` ` ` & ] +XdXxXzX`.k.t.w.a.a.q.8 5 b Y. X=X_.N.0.",
"4 7 b M c c c c P G./.{.(.f.f.t.m.M.Z._.<X3XfXCXPXIXGXjX/ X ~ :.' ' ) ) ~ ) ) ) ` E # ] &XzXzX-XC.8.c x c v c v b A Q.!.{.).k.3.",
"g i ; ; z F J.P.m.A V 8 m.Y..XT.T k } Q.v.#XfXCXUXUXJXNX_   ~ ' ../ ) E s E & E & & # ^ +X;X%X^.J O.r 9 0 g J =.P.n.[ V 8 { M.A.",
"g h i 2 K s.6X7XQ.b.2 w I /.dXpXJ.f } { l.oXiXDXUXUXKXVX}   o ^ / ^ ~ s & % & o o $ # ] oX@XZ.H +.o.g p a h $.=.8XH.A 4 - n Q.&X",
"Y D.W.~.6XK.K.F.Q.M.H @.6XeXcX3X&X[ { h.l.V.iXGXUXUXPXCX-.. . ;   . o % s s < o $ O < { A.).6.z #.$.I n.Z.P.=.J.R.T.m.A g  .9XgX",
"8X X;XsXeXR.p.e.Z.G.$.@.$.9X2X2X<X@XoXl.3.m.VXGXPXIXJXCX-..   @ ( % O . < < s u O O 3 b.k.N.8 c K 7X%X;X@XA.F.a.B.N.C.p.f J ^.aX",
"-XdX3X:X/.a.w.6.h.{ k o.f L `.2X<X<Xv.l.5.r.jXCXDXDXCXBX,.u % &.2.<._ . . < 3 u % < 7 b.N.N.4.B U.*X3X<X$Xx.r.8.6.7.t.e.e f i.B.",
"lXzX:X-XM.c l 8 Q n k % e t 7.`.3X3X;Xl., e.iXVXAXSXDXSXuX-._ ,.NXNXuX^ < O < u o < 7 6.B.N.0.N.}.#XbXbX@Xl.8 > 8.0.w.C f w c 4.",
"lX1XS.] 2 ; 3 d ^ ^ s d C i.9.].tXtX6X . .8X;.2.AXFXLXLXCXiX<.2.SXDXCXiXk     . O < < 3 [ C.(.[.>X1X-X+X..u % f J J z l 3 8 q.t.",
",X}.q.< i < < < ( _ X.W./.U.u.5X5X%.#.S Y =.*.2.AXFXLXLXDXVXMXMXDXHXJXGXMX<.k . O O . 1 b n.'.XX,X,X+XX.j % * f f p H X.Q.Q.B.r.",
"[.t.6 5 V V 2 < d Z.sXgXsX Xi.F #.%.r 0 i k -.hXAXFXFXDXCXVXVXCXHXKXPXPXJXCX<.s O . - : < n F.|.rX[.r.V N } } _ q l G.&XgXsX!.w.",
"8.8.6 h.S.Q.8 4 ! ~.gXxXsX/.C z U 4XL t = < -.hXAXAXSXNXjXiXMXCXJXIXUXUXIXJXVX_ % - F #.i u n J.].d.5.5.m.Q.Z.{ 5 6 .XdXxXsXR.v ",
"i.u.w.N.=X;X_.S.N.A.#X#Xl.7 2 m K.wXeXR.z O k -.2.uX<.;.} ] <.VXKXUXUXPXKXHXVX;.p v tXtX*.* $ p u.d.9.9.g.[.;Xv.l.z.`.1X%XA.8 ; ",
"s.a.'._.-XdXdX*X`.`.#X).6.5 q M Y.*XdXwXa.w u 1 d 7 7 2 . O -.MXJXKXJXGXGXCXiX;.G d.kXtX0X&.$ ; t u.9.g.[.1X:X;X`.`.#XXX Xn.l - ",
"D.U..X-XsXfXgXxX1X`._.C.a.G r v N.`.1XXX'.t : 1 < 3 3 d . O _ uXCXCXVXMXjX<.*.k w.T.kXlXwXY z ; : B qXrXrXsXfX:X:X#X}.|.0X=.S 0 ",
"P.|..X=XyXpXfXaXXX(.T.I.7X5XF i.(.`.>X`.d.u.v d ~ k ^ d u s _ -.uXiX1.-.k w 9 D y.[.>X`.T.T L b c e.qXrXrXyXOXiX:X=X(.7X0X0X5XF ",
"9X|.}.(.B.H.^./.V.r.e.M.R.7X5X7X}._.x.7.w.u.U  .Y J d % $ $ & ) ' :.:.' ( h Y 6XqX.X`.k.r.C K I F.R.qXwXE.M.{ Z.~.!.e.L 6X6X6X5X",
"wX|.'.k.3.6.w.p.K D b A I.7XqXqX|.S.h.8 c z Y =.=.Y d O $ $ & E E ~ ` ` E H K.qX|.{.k.3.5 i G p.7XqX[.].C.6.! { F.D.v l J J.7X[.",
"U.].'.(.f.t.i.Y @.+.u 4 n.T.|.].Y.A M p < u p J T T a u * * E E & E ` ) s ] U.|.{.B.q.5 u u i D u.d.].].'.C.j.8 P J g i 3 ! (.}.",
"a.r.U.T.t.6.Z U $.f u : 8 B.].E.s.J h p p a G D L C p o o ,.hXMX<.-.) & & d G.Y.F.e.M i s p m c 8.8.a.I.Y.V.h.B U S S i 2 4 k.k.",
"c v P P 8 8 8 [ H k h i l L 4X4XY #.g S P J.Y.F.8 5 O & & hXGXJXVX<.~ o o ~ P I T U D z D I P.B.4.6 C G Y P Z i.s.4XF z i l B q.",
"5 l h h N ! { [  .H m z S G %.%.%.S S v i.]..X{.6.1 o X o MXHXJXBX<.E X o ~ k Y %.Y D l K F. X.XN.6.a f f @.T s.a.s.L F S z v v ",
"6.Z J $.X.W.~.G.] M z x P 6X7X9X6X4XD t 8.T.sXdX X{ o X X -.hXiX<._ * X X s  .0X8X6Xp.t , w.*X-X=XA.K k $.0X8X9X6Xi.F v G T 6X7X",
"N.y.s.s.8XQ.W. .G Y L.P.H.I.E.qX|.T.w.6.y..XxXzX%Xb.n $ $ & j j * * * * & ^ X.9XwX7XB.0.0.U.lXzX$X@Xa.%.6X8X8XP.I L p.F.H.H./.qX",
"N.N.d.d.F.P.V G J 4X9XpXS.7.f.z.z.`.l.z._.zXxXzX%Xj.8 2 < .       # * ( / Q n.C.'.(.z.z.[.XXxXzX@Xl.j.n.K.W.X.! 7 v R.9X_.A.C.B.",
"6.0.9.u.i.Z b D $.6X9X X_.l.3.z.l.z.z.z.1XxXzX&XA.j.6 5 2 ; . . 0 w p d Q ! b.U.(.(.k.(.1XcXxX:XoXl.6.w.w.8 Q 1 2 Z 7X|.%Xl.k.6.",
": > t y D G  .T s.e.n.G.b.B.(.B.e.A [ {.1X2XXXH.b 2 : = : 7 C w.u.8.B Q Q { 0X5X4Xs.D M.=X2X1X_.[ i 2 : : 1 W ] w.d.d.r.! b.b.H.",
"i w : : S J =.P.M.n.b b | 7XpXqX .h H S.1X2XC.M u u < 1 3 N D.U.g.g.0.7 Q Z.tXtX0X%.f [ #X1X`.m.z e q < 1 3 Q [ U.g.9.0.7 ] 8XyX",
"Y M b b I T 6XH.A.b.b a | 9XcXfX^.h N B.`.`.8.i g d 3 Q N  .K.U.[.g.t.B d 8XfXcXtX6Xf n A.v.k.8.t g x N b n } J.].g.g.8.q J yXfX",
"^.^.A.A.R.K.a.Y.A.M.m j =.9XcXxX*XQ.Z.b.k.7.6 t T P.OXA.^.K.d.5X[.f.r.J f ;.fXcXlX*XZ.! A.l.4 l F 4X'.[.{.^. .s.'.(.U.i.r $.yXfX",
"&X-X:X<X_.t.0.6.j.{ @.+.@.J.sX3XbX<X@Xl.j.4.6 u.7XpX:X:X*X7X5Xu.7.m.p.@.o.@.`.2XbX<Xv.c.Z.! 7 5 a..X1X2X1XrX6X%.i.N.I.4X+.#.6X}.",
"gXzX3X$XS.6.4.8 ! ] k +.e C z.1X2X3X@Xc.! 8 w.I.rXdXxX3X&X6Xu.F q.q.G k o.g 7.v.<XbX$XoXb.V 8 n.{.rXcXcX1XqX4X#.B 6.e.4X+.O.L 7.",
"cXzX-XZ.7 > x N ] H w 9 0 , 3.[.sXsXQ.Z.{ b.N.}.aXcXgXpX[ w w z A V 5 q q w 4 7.-XaXyXW.X.[ b.(.XXlXxXgXQ.M r e M V V n @ q 6 4.",
"cX-XW.d < ; u h J H P p.w.0.5.y.9X8X} d ] Z.{.XXlXaXpXL.i @ e g b V V V D.n.4.4.7X8X=.*.] [ C.XX,X1XsX9X} @ @ f p 7 7 ] ] [ q.0.",
".XU.N s d k u ; h  .wXaXrXwXt.8.T H u < n G.!..XXX].D.M m k j k w 7 W.pXsXpXN.w.T Y S f i 7 Q..X,X[.Z.] d j @.k u 3 ] ~.fXpX{.y.",
"0.B l d L.P.z : x Y.gXcXlX[.r.D K N 2 < s [ ^.|.S.y., l G. . .d : ! %XgXxXsXM.x U J S i i n G.|.].'.6 3 n  .X. .i 5 Z.*XZXgX.Xw.",
"p.P b | eXwXB.4.7._.1X2X`.t.l M  .W.G.} u e H J.P.a., 8 ~.+XZ.! 4 j.@X3X#XS.N p } 6XW. .m q p Y 0X7Xt 6 j.S.oXZ.7 8 _.:X3X`.k., ",
" .J.H.!.aXaXXX_.).@X>X`.S.6 q G P.&X&XH.S 9 g D I p.a.B.%X;X@X@XA.).`.#X_.j.i u T /.*X|.I g q g %.%.i.y.).#X$X@XA.A.=X-X#X(.0.0 ",
"A H.~.=X-XdXlXxX=X_.@XQ.e.l r v E.XX-X.Xs.y : > x p.E.XX%X#X:X:X:X%X.X{.Y.K w i a.wX-XrXR.D t 0 a L I.{.`.#X3X:X-X&X%X_.S.F.v y ",
"e.Y.&X-XaXxXcXxX-XoXQ.| H g r U '.rX,XrXU.D : = > a.rXaX=X$XbXxXzXaX|.I.s.K y t d.[.1X,X|.I c = = c |.XX=X-X3XxXZXdX~.Z.W.=.#.y "
};
