/* XPM */
static char *_7ec1e78d96f4873edeca6d176dfdaf3ljA8b85PzsWpznGa[] = {
/* columns rows colors chars-per-pixel */
"64 64 8 1 ",
"  c None",
". c #403330",
"X c #635350",
"o c #665653",
"O c #917D72",
"+ c #C1AB93",
"@ c #E2D5B9",
"# c #F6EBC9",
/* pixels */
"                                                                ",
"                                                                ",
"                              .....                             ",
"                            ..@##++...                          ",
"                          ..@@###@@+++..                        ",
"                         .@@##@@##@@@@++...                     ",
"                       ..+@@@@@@@@@@@@@++++..                   ",
"                     ..++#@@@@@@@@@@@@@++++++.                  ",
"                    .@@+++#@@@@@@@@@@@@+O@@##+.                 ",
"                   .+@@@O+#@@@@@@@@@@@#+@@@@##+.                ",
"                  .+@@@@@++#@@@@@@@@@@++@@@@@@#+....            ",
"                 .+@@@@@@O+#@@@@@@@@@@+O@@@@@@#+.++O.           ",
"                .++@@@@@@@O+#@@@@@@@@#+O@@@@@@@#++++O.          ",
"                .+@@@@@@@@@@+@@@@@@@@#+@@@@@@@@#+++++O.         ",
"               .++@@@@@@@@@@@@@@@@@@#+O@@@@@@@@@+++++O.         ",
"              ..++#@@@@@@@@@@@@@@@@@#+O@@@@@@@@++++++@O.        ",
"             .++O+##@@@@@@@@@@@@@@@#+O@@@@@@@@+@#++++@O.        ",
"            .O+oOO+###@@@@@@@@@@@@@#+O@@@@@#++@@##+++@O.        ",
"           .O++o++++++@@#####@@@@@##+O@@@@#++@@@@#+++@O.        ",
"          .O+++O@@@@@@++++++++@####+OO@@@#++@@@@@#++@@O.        ",
"          .O++oO#@@@@@@@@+OOOO+++++OOO+##++@@@@@@#++@OO.        ",
"          .O@+oO#@@@@@@@@@@@@OOOOOOOoOO++O@@@@@@@#o@oOO.        ",
"          .O@+oO#@@@@@@@@@@@@@@@#OOoooOOO@@@@@@@@#oooOO.        ",
"          .oO+oO#@@@@@@@@@@@@@@@@##OOooO@@@@@@@@@#oooOO.        ",
"          .oOOoO#@@@@@@@@@@@@@@@@@@#+OO@@@@@@@@@##oooOO.        ",
"          .ooOoO#@@@@@@@@@@@@@@@@@#+O@@@@@@@@@@@##oooO+.        ",
"          .ooOoO##@@@@@@@@@@@@@@@#++@@@@@@@@@@@@#OoooOO.        ",
"          .oooooO##@@@@@@@@@@@@#++O@@@@@@@@@+@@#oooooOO.        ",
"          .oooooOO##@#@@@@@@@@@++O@@@@@@@@@@@++OOooooOO.        ",
"          .ooooooOO####@@@@@@#++O@@@@@@@@@@@@@O++OoooOO.        ",
"          .ooooOooOO#####@##+++O@@@@@@@@@@@@##O+++OooOO.        ",
"          .ooooOO+OOO#####+++OOO@@@@@@@@@@@##OO++@OooOO.        ",
"          .ooooO+++OOOOOOO++OoO@@@@@@@@@@###OO+++@OooOo.        ",
"          .oooo+++++OOOOOOOooO+@@@@@@@@@@##OO+++@OOooOo.        ",
"          .oooXO@++++OOOOOoooO+@@@@@@@@###OO+++@@OOooOo.        ",
"           .ooXoO@+++++OOOOOooO+@#######OoOO++@@OOOoooo.        ",
"            ..oooO@++++++++++OOOOOOOOOOOOooO+@@OOOOoooo.        ",
"             .ooooOO++++++++++OOOOOOOOOOooooOOOOOOOoooo.        ",
"             .oooooOO@+++++++++OOOOOOOOooOooooOOOO+ooo.         ",
"             .ooooooOO@@+++++@@ooooOOOOOOOooooOOO++ooo.         ",
"             .oooooooooO@@@@@@oooOOOOOOOOOooooOO+OOoo.          ",
"             .oooooooOOOOOOOoooOOOOOOO+++++oooOOOOOo.           ",
"             .oooooooOOOOOOOoooOOOO++++++++OooOOOOO.            ",
"             .oooooooOOOO++OoooOO++++++++@OOooOOOOo.            ",
"             .ooooooooO+++OOoooO+++++@@@@OOoooOOOOo.            ",
"             .ooooooooOOOOOOoooo@@+@@@OOOOOooooOOoo.            ",
"             .oooooooooOOOOoooooO@@@OOOOOOoooooOooo.            ",
"              .ooooooOOOOooooooooOOOOOOOOooOooooooo.            ",
"              .ooooooOOOOOoooooooOOOOOOOOOOOoooooo.             ",
"               .oooooOOOOOOOoXooooOOOOOOOOOOooooo.              ",
"                .oooooOOOOOOoXoooooOOOOOOOOOXooo.               ",
"                 .ooooOOOOOooXooooooooOOOOOo....                ",
"                  .ooooOOOoooXooooooOOOOOOOo.                   ",
"                   .ooooooooo.ooooOOOOOOOOoo.                   ",
"                    ..oooooo..ooooOOO+++OOOo.                   ",
"                      ...... .ooooOOOO+OOOo.                    ",
"                              .ooooOOOOOOoo.                    ",
"                              .ooooooOOOoo.                     ",
"                               .ooooooooo.                      ",
"                                .........                       ",
"                                                                ",
"                                                                ",
"                                                                ",
"                                                                "
};
