/* XPM */
static char *wall1727179829[] = {
/* columns rows colors chars-per-pixel */
"64 64 256 2 ",
"   c #392714",
".  c #1E0022",
"X  c #38152D",
"o  c #0C3631",
"O  c #3A272B",
"+  c #34302E",
"@  c #520A0F",
"#  c #461918",
"$  c #581B19",
"%  c #6D1816",
"&  c #582A0C",
"*  c #49261B",
"=  c #56281A",
"-  c #593319",
";  c #702D07",
":  c #672818",
">  c #77291B",
",  c #6A361B",
"<  c #77371B",
"1  c #54082B",
"2  c #461926",
"3  c #581B27",
"4  c #481634",
"5  c #541835",
"6  c #66102E",
"7  c #6A1C29",
"8  c #4A2728",
"9  c #572829",
"0  c #493628",
"q  c #593729",
"w  c #4A2836",
"e  c #572736",
"r  c #5B2C33",
"t  c #483538",
"y  c #583636",
"u  c #682825",
"i  c #642B2B",
"p  c #6C2C2C",
"a  c #772A26",
"s  c #742D2B",
"d  c #683727",
"f  c #6B332C",
"g  c #773925",
"h  c #74332C",
"j  c #7B342C",
"k  c #7B3C2B",
"l  c #662A37",
"z  c #6A2C32",
"x  c #782C35",
"c  c #663737",
"v  c #6C3433",
"b  c #6C3B33",
"n  c #743333",
"m  c #7B3333",
"M  c #743B33",
"N  c #7C3C34",
"B  c #76353B",
"V  c #733A3C",
"C  c #7C3B3A",
"Z  c #034637",
"A  c #19483A",
"S  c #04593E",
"D  c #1B553D",
"F  c #384A2C",
"G  c #254836",
"H  c #364A35",
"J  c #25563B",
"K  c #385838",
"L  c #0B663B",
"P  c #28683D",
"I  c #3B683B",
"U  c #337B3B",
"Y  c #654D17",
"T  c #704E16",
"R  c #7B461D",
"E  c #5A452A",
"W  c #4B4C32",
"Q  c #5B4935",
"!  c #45563A",
"~  c #6A4628",
"^  c #784728",
"/  c #7C442B",
"(  c #7A542A",
")  c #684535",
"_  c #784737",
"`  c #7C4434",
"'  c #665635",
"]  c #785737",
"[  c #4B693E",
"{  c #70693C",
"}  c #2A2546",
"|  c #4E1842",
" . c #4F2A48",
".. c #593446",
"X. c #6C2945",
"o. c #683A45",
"O. c #773745",
"+. c #005A44",
"@. c #1C5641",
"#. c #224F41",
"$. c #225B41",
"%. c #096B43",
"&. c #196643",
"*. c #1A7A43",
"=. c #246442",
"-. c #256B44",
";. c #296B43",
":. c #267545",
">. c #2B7444",
",. c #2D7B45",
"<. c #317944",
"1. c #545641",
"2. c #7B4546",
"3. c #704B44",
"4. c #4A6A41",
"5. c #586A41",
"6. c #5A7744",
"7. c #666D45",
"8. c #746A45",
"9. c #667A46",
"0. c #757947",
"q. c #90340E",
"w. c #862918",
"e. c #88381B",
"r. c #983C1B",
"t. c #911929",
"y. c #852B26",
"u. c #982D2F",
"i. c #8C3423",
"p. c #833C24",
"a. c #873628",
"s. c #843B2C",
"d. c #8C3C2C",
"f. c #963926",
"g. c #933D2B",
"h. c #872C35",
"j. c #833533",
"k. c #833B33",
"l. c #8B3C34",
"z. c #8A3738",
"x. c #843C3B",
"c. c #963A36",
"v. c #A43C28",
"b. c #A63D37",
"n. c #88451B",
"m. c #98471B",
"M. c #955112",
"N. c #AC4D15",
"B. c #A45A1B",
"V. c #9A621A",
"C. c #B56B1D",
"Z. c #8A4626",
"A. c #84432D",
"S. c #844B2C",
"D. c #8C4B2C",
"F. c #984626",
"G. c #93452C",
"H. c #924B2D",
"J. c #9B4A2C",
"K. c #8A542A",
"L. c #985528",
"P. c #9B542B",
"I. c #844432",
"U. c #8B4433",
"Y. c #844C33",
"T. c #8C4C34",
"R. c #82453B",
"E. c #8C433B",
"W. c #834B3B",
"Q. c #8B4C3A",
"!. c #934434",
"~. c #984537",
"^. c #934B34",
"/. c #9B4B33",
"(. c #924B3B",
"). c #9C4C3B",
"_. c #885437",
"`. c #8C543B",
"'. c #945433",
"]. c #9B5434",
"[. c #9B533B",
"{. c #965838",
"}. c #A64B29",
"|. c #A65728",
" X c #AB532C",
".X c #B55929",
"XX c #A64A35",
"oX c #A34C3B",
"OX c #B44C34",
"+X c #A35433",
"@X c #AA5837",
"#X c #A4533B",
"$X c #A35C3B",
"%X c #B65937",
"&X c #9B6328",
"*X c #886833",
"=X c #9B6537",
"-X c #AA6628",
";X c #B6672A",
":X c #AD722D",
">X c #BA7229",
",X c #A76637",
"<X c #AB6433",
"1X c #AC633C",
"2X c #B36434",
"3X c #B86638",
"4X c #B46B3C",
"5X c #BA7438",
"6X c #C45A29",
"7X c #C35C38",
"8X c #CD6E2F",
"9X c #C7762B",
"0X c #C66838",
"qX c #C77838",
"wX c #873B44",
"eX c #8E3648",
"rX c #884746",
"tX c #974A44",
"yX c #8D5343",
"uX c #8A5746",
"iX c #995746",
"pX c #8E4F54",
"aX c #A54C43",
"sX c #A65844",
"dX c #B55847",
"fX c #B05953",
"gX c #896E46",
"hX c #996544",
"jX c #A96643",
"kX c #B36B45",
"lX c #B86845",
"zX c #BB7447",
"xX c #B2704C",
"cX c #C56B46",
"vX c #C77647",
"bX c #CF724D",
"nX c #348D3C",
"mX c #3A9A3E",
"MX c #3FA33E",
"NX c #409D3F",
"BX c #41A53D",
"VX c #44AB3A",
"CX c #49B336",
"ZX c #1B8C46",
"AX c #2B8346",
"SX c #2D8244",
"DX c #318345",
"FX c #358C43",
"GX c #398F43",
"HX c #3A9442",
"JX c #3A9841",
"KX c #5F8048",
"LX c #68864A",
"PX c #788E4E",
"IX c #A68646",
"UX c #CA8143",
/* pixels */
"; = z n j e.> h M W.{.{.'.Z.q.e.g./.G. X5XqX;X.Xn.; $ u s s a < g / yXiX{.H.e.q.f.F.d.+X3XqXqX3Xm.; ; > a h h p u a T.[.=X].n.w.",
"= 3 5 e a j k k ` _ ( S.D.H.J.J.d.j.j.P.;X9X-XJ.< u 3 2 i s j.s.k / ( Y.Y.D.L.L.H.s.a D.<X5X:X,XA.u 7 3 9 i B B j.l.E.T._.K.Z.m.",
"y w X X 9 h I.Q._.^ - - ^ '.3X<XU.7 u Z.-X;XF.n X.e O O 9 n k.E.'.S., - - ^ -X2XP./ 2 d &X:XV.A.l | 9 2 # 4 O.eXtXeXg.< & ^ P.1X",
"o.c c d b C Q.`.'.^ 8 X ) {.vX5XP.u h n.|.|.j 6 | o.y d M x.wX(.'.D., * O ] 4XqX-XS.9 , K.V.n.u  ...M d b c 2.pXfXaXc.> . q [.5X",
"W.{.-X,XiXtXc.E.'.Q.3...3.iXcXqXC.B.B.B.}.f.y.a j.(.|.<X,XtXE.k.D.Y.) 3. .2.xXqX9XC.N.M.m.L.e.a a A.P..X<XsXrX2.!.~.(.rX..O.fXkX",
"1X4X>X>XsX~.z.d.G.W... ...rX3X8X9X>XC.|.v.u.y.d.~.2X9X5X2X].k.n S.W._ o.} O.[.0X9X9XC.C.}.G.a < Z.P.9X9X5X1XW.M j c.E.O. .o.tXoX",
"vXvXqX:XH.a h.j.Z.k r X 4 z m.6XqXqX-XL.c.z.i.c.dXcXqXqX|.k a f A.` b w X 5 y.B.5XqX>X-X^.k.j.d.}.;XqXUX5XL.g i j I.m x | 5 x i.",
"vXzX:XV.d 6 6 h ^ , 9 e 5 a w.}.4X4XL.S.R.E.G.OX0XvX5X:XR : 3 i M b i 9 5 u % f.%X4X-X'._ wXE.XX.X0XvX5XP.d 8 e n m s i 8 9 > w.",
"kX,X( E 8 2 2 r q ~ ) ] Q.(.d.c.tXyXv q ) 2.#X%X7X3X*X' q 2 3 e c c ) ^ _.T.c.z.tXyX_ q ..2.yXsX0X6X<X_.y + + t r v f g ( K.Z.m.",
"+XH.Y * r r e $ q ' hXjXjX[.k.B O.o.5 8 W ] $X%X7X}.T + q i i i 3 b `.hXjXjX!.z.wXo.y 8 t ) pXdX7XOXH.b 0 t y y 5 i ` '.,X,XP.f.",
"G.s.> > G.g.w.@ a ].zXzXkX{.M c B B l 8   - ( {.#X!.> > U.G.< % @ s.jXvXvXjXY.f B C n 7 2 8 M (.#XXXy.> k I.` d @ : '.4XUXqXP.< ",
"a.y.u.v.%X.Xv.r.f.OXvXzX=X( 0 r _ tXE.V 0   q ` U.l.w.f. X@X+XF.w.G.kXvX5X].d 9 n x.aXwXh * = h E.c.y.q.F.+X$X'., ^ $X5XqX>Xn.& ",
"j.z.b.OX0X8X7X7XOXOX2X<XS.-   y Q.sXfXsXM     = n j.g.XX%X0XlX3X X X%X2XP.e.* * N tXdXdXoXu # $ p m i.F. X4XlXxX$X].<X2X2Xm.< # ",
"k.c.aXdXcXqXbX0X7XOX Xn., & O b ).%XbXlXE.= # # i k.~.dXlXcXbXvX0X.X XJ.p.d # $ s.dXbXcX#Xj.$ @ 7 a H.+X@X3XbXvXkX1X|.|.m.e.: # ",
"W.tXdXdX1X1XzXcX%X.X+X'.] V 9 s v.6X6X6Xb.x z i b Y.sXsXsXjXlXcX0X7X X^.yXrXc u i.N.6X6X}.g.y.a u g K.&X=X,XfXxXlX4X|.L./.!.j l ",
"yXiXdXsXH.].$XlX@XJ.T._.Q.yXC l.N.6XN.N.u.h.B B _ yXsX$X].[.$X@X%XOXg.I.yXuXR.k.J. XC.N.v.a.j.x N I.=X=X=X{.aXaXjX1XH.e.J.~.l.j.",
"iXiX@X}.e.n.U.^.k.k g ^ T.[.tXoXOX Xm.e.y.z B O.pXiX[.J.p.p.^ / s.g d , _ `.(.tXoX@X}.Z.j i V O.rXtX{.].J.F.d.U.(.W.j > p.Z.^.(.",
"iX[.B.M.q.q.y.z r 8 & : A.).oXsXoXE.N u 3 r c 2.tXtX^.n.< , 0 W W W F 0 ~ S.(.aXaX).A.f 8 w ..o.rXtXoX+XJ.i.e.j O.X.e 3 > e.J.oX",
"k.D.P.|.m.i.j.n c y $ & e.G.oXoXc.j z 9 9 r n x h.j ~ ~ E W I nXnXU P D F E W.!.~.z.h q w w w r p j.!.XX}.J.p.m O.o.X.e : e.F.J.",
"a g Z.D.Z.p.k M V l * & , s.~.c.N i 9 t y b N m % q ! P I U nXnXMXnXU *.L I ~ N k.m i 9 l v C M a > g s.U.A.^ M O.O.X.X.= , p./.",
"u z l c d < ^ I.z.x r 0 q f z.z.M y 0 q ) 3.T.I.d W J *.AXHXBXVXMXMXHXFXZX-.H q b c 9 - a d.oXoXZ.< - 9 q q Q _ eXeXeXz - 0 f x.",
"j l e w ) ^ S.I.z.m f y y M z.z.R._ q d ) rXW._ W P *.ZXJXBXCXCXCXCXVXJXHX:.&.J W y q : w.}.%X7X XZ., 8 0 Q ' ] wXeXh.x - E b wX",
"G.k.V 3.uX{.`.U.j j k / A.^.aXaX[.T.< < p.` c ! I nXFXHXJXMXCXCXCXCXCXMXHXAX>.*.J H q : w.f.7XqX0X|.Z.h _ uXuXuXO.x h.s.R D.(.tX",
"F.Z.` 2.iX[.!.j h M T././.XXOXaX#XP.n.n.n./ W D *.AXAXHXJXVXCXCXCXCXCXVXJXFXFXAX%.J 0 : f.@XcXvX0X|.G.k.rXtX{.Y.m s s.^.L.J.oXtX",
"M.n./ ` E.d.> : f W.sX2X Xv.v.v.}.|.P.L.L._.[ -.*.AXDXFXNXVXVXCXCXVXVXMXMXJXJXFX*.P W ^ @X0XvXcX.XN.e.j.l.U.p.< : g T.$X2X XF.i.",
"; , d f a a a a M T.[.@X}.r.r.f.D.D.Z.S._.{ [ I ,.SXDXFXJXBXVXBXVXVXBXJXBXBXNXHX,.;.G ' ,XzXvX4XJ.y.a a a s a u d k '.{. X}.m.q.",
"r 3 # # z x E.Q.A./ g < Z./.@X[.` c 9 y W 1.P ,.AXGXGXGXJXJXJXmXVXVXVXMXKXBXmXHX<.&.+.) *X:X,X`.o.| 5 1 1 3 c 2.` Y./ e.< n.K.L.",
"e r = 9 v x.rX(.H.Z.$ 3 M [.lXkXW.w 8 o Z S *.AXGXGXGXGXHXFXFXHXMXVXMXMXMXHXnXFX>.=.+.! ( K.Z.b | } e e r y o.2.`.^.g : # d _.,X",
"B R._.'.Q.rXE.U.'.K.y y 2.sXbXqX<X^ q 0 + K U nXJXJXGXDXDX,.AXFXmXmXmXGXnXFXAX:.DXAX%.[ ' ^ < s X.o.` I.K.T.rXrX(.J.U.k e V iXzX",
"{.$X4XkX#X(.z.A.D.Y.3. .o.iX8X8X>X&XY W G K U nXGXFXDX,.,.SXFXFXGXGXDXDXAXZX>.<.DXDXZX;.E > ; a C `.,X-X-XP.U.k.g.J.F.k.w o.tX2X",
"jX4XqX5X[.d.y.p.n.^ y  .| m .X8X9X:X( F Z P U ,.,.>.>.,.,.FXGXHXDX>.,.,.,.,.>.,.<.,.ZXI E , > y./.<XqX9X>XV.Z.y.e.r.g.k 4 e k.G.",
"cXvXqX1XH.h u < T d t O 4 u r..X8X4X' H S L P ;.-.-.:.>.DXGXnXGX:.-.>.,.,.>.>.>.;.;.*.;.W f e.v. X5XUXqX-XM.a % y.i.p.h w 3 a w.",
"cX3XL.^ = # = E E W 0 q n j.u.b.fXpX3.H S %.&.-.>.,.<.SXSXFXFXDX-.-.,.DX>.>.>.:.;.=.&.&.K ' G.}.6X0X5X=X( O O w r b d 9 , < p.f.",
"7XOXp.* = * * * 0 ) ] _.[.).j.eXeXpXl + D D D J >.<.,.,.,.DXDX,.-.-.>.<.>.>.-.-.=.=.&.+.J Q ^.OX7X7X$X] t O + w w e b _ K.'.G.f.",
"OXf.> = k g = # - _.xXzXkXsXj.x X.eX7 8 + G A P >.>.;.;.>.,.DX,.-.=.-.>.;.-.=.-.;.=.D Z o 0 I.+XOXOXg.h f ) ) q 2 u Y.,XzXjX).j.",
"y.y.> n.P.'.g ; < =XzXvXkX{.h p B wXk 9   o A D ;.;.=.=.;.,.,.,.=.&.-.-.=.=.$.=.-.=.J + +   c Y.oXb.t.w.Z.'.'.( : < @XzXvXkX'.a ",
"z.j.d.F.2X2X|.L.F.|.>X;XL., = f E.iXsXW.t o Z A P ;.$.$.=.>.<.,.$.@.-.-.=.$.#.@.@.;.1.1.W t + r j.c.t.u.b..X:X-Xm.N..X0X4XP.< $ ",
"x.z.J. X4XzXkX3X.X|..X|.n.: # p ^.%XlXiX' Z D D D =.@.@.$.=.>.;.#.#.=.-.-.#.#.#.+.#.K 1.o.y O # 7 h.u.b.OX0X5X5X-X.X;X%X].Y.9 @ ",
"x.^.@X3XkXxXzXvX7X.X|.J.U.z 5 x }..X0X4X8.[ I K J @.A @.D J -.@.A #.$.-.;.$.A o Z A H Q _ V i = $ a oXdXdXkXxXIX5X;X.XoXpXwXX.1 ",
"(.[.%X2XhXjXxXlX%X XJ.(.rXwXx z.}..X.X-XgX9.5.K J Z A o D $.D A A o @.=.=.$.J o A H ! ' _ k.j p g s.aXdXfXjXgX=X4X2X}.rXpXpXO.x ",
"iX#XXX}.Z.D.(.[.J.d.s.U.(.tXeXtX+X|.N.F.*X0.6.4.G o o G G @.D A o o @.@.S G H K [ [ 6.{ _ h k k.E.(.aXsX#XD.( K.$X+Xd.m 2.pXrXc.",
"aX#X}.}.q.p.s.k.n z d k ^.tXaXaX#XJ.w.^ { 0.LX6.K G H H J D D J H K @.@.o A K [ LXLX9.{ E u v C (.aXOXoXJ.e.< ^ Y.I.s u b R.).aX",
").oXXX}.v.f.j.B .. .2 ; d.XX#X#X^.k i Q { LXKXKX6.6.[ [ D A J [ 6.[ I D o D 4.LXPXPX{ ' 0 2 8 u h.c.oXoXXXJ.n.< M c e 3 - n.}. X",
"d.d././.r.e.j.V ..y 2 & < Z.+X~.x.c r Q ' 8.0.9.LXLXLX4.G J [ LXPXLX6.[ K K 6.PXPXPX] d 9 9 f s y.y.l.!.^.H.e.k n l l 9 = ; e.}.",
"a a n M < < < / c ..q 9 u m R.wXO.r e v _ `.uXgXPXPXKX[ -.1.9.PXPXPXLX8.{ 5.9.LXLX{ b 7 z M Q.G.e.> s v c n j j.x.wXx l 9 : a p.",
"> i r y d ^ S./ ^ b f r z z B wXO.O.l 7 h.c.jX=X*XLX{ [ 3.7.PXPXPXPXPX8.8.7.8.0.8._ 7 6 s Q.$X@XF.e.r w w c C E.x.z.m s i l z m ",
"p.j c c W.{._.Y.M f i v B rXtXpXrXwXl 7 y./.xXxX=X] ) 3.8.pXgXgXgX] _ ^ ( ] uXpXiXuXN 7 % a.sXlX2XL.n r o.pXiXyX(.z.m s v C Q.tX",
"F.d.C wX`.`.K._ b V ` T.T.^.).aX#X/.e.e.F.@XvXzX,XD.N R.uXgX`.W._ V ` ( ( ( rXyXtXaXG.e.i.XXcXqX>X-XA.O.2.pXuXW.N m k.E.Y.T.).aX",
"m.F.c.eX!.I./ f o.rXiXsX].m.m.}.N.N.M.N.@XvXvXzX<Xm.p.d.D.S.R , 6 B uX*X{ V.S.E.XX}.m.N.OX7XbXqX:XM.n.k.E.W.( T : z tX[.+XP.G.g.",
"e.i.u.h.j.j p i X.rXjX$X}.M.q.N.M.N.N.N.0XvXqX1XL.e.e.w.e.< ; : 6 x.uX*XV.T Z.c.}.}.m.}.%XcXvX5XV.M.e.a.a.^ Y & : j.(.sX-XV.m.e.",
"$ $ % 7 l V V _ ` k I.A.Z.G.}.f.s.k / @X8X8X%XT.d = $ & & , g d.u.u.D.( Y ( rXeXeXz.p D.0XqX0X$X^ 8 = $ & & - T s.c.g.d.n.^ S.T.",
"3 $ $ 3 i V 2.Q.D.Z., f N [.jXaX_ r b P.0X8X^.f 8 O # & = d N c.b.b.i., Y ( fXfXtXO.w / 2X8X.XG.p 4 3 * * - ~ / ~.b.u.y., ^ `.iX",
"V b d g n _ R.^.P.n.d r _ fXxXxXyXr b H..X Xa.9 r q ~ , ~ b l.~.OXv.f.a y rXxXbXfXrXw ~ L.-Xm.a 7 e p d d d ) R.XXb.c.y.2 ) hXxX",
"Q.{.P.L.(.x.x.^.L.S.f t 2.iXbXbX4XP.S.n.m.r.> 7 C W.K.&X_.rXwXeXb.OXd.i t 2.cXbXzXsXS.R L.M.; > x wXXXOX+X'.2.` ~.XXXXl.4 o.fXxX",
"jX4X>X9X XG.i.e.n.( c  ...E.4XqXqX9X-XM.n.w.a y.~.jX5X5X1XtXeXz.f.Z.k...} 1.%X8X9X9XC.V.n.R : , x.sX0X8X0XdXwXwXd.f.!.wX .o.rX+X",
"cXvXqX>X}.e.w.< R ~ t  .4 z N.8X8XqX-XV.n.< e.c.dXlXvXqX,XE.h.x e.e.b ..} r r.C.9XqX>X&XS.^ < A.+X%XbXbXcXoXwXX.j n.k.wX| | j r.",
"bXvX4XL., $ : M M d 9 1 1 % q.OXlXxX'.S.( Z.G.@XlXbXzXjXk 7 9 i / g - 2 2 3 ; r.3XxXjX_.] ^ Z.}.%XcXbXlX{.d 5 5 f < R i X 3 > w.",
"bXjX_.q * # 8 q c c M k.a.i.w.g.tXuX~ q ^ K.+X2XlXlXjXW.9 X X r d d g g I.s.w.i.tXyX2.o.b / H.%X7X0XxXhXc X X w 9 d , ~ ~ ^ k i.",
"OX/.d 0 c q 8 2 r ` sXlXdXsXu.y.C ) * * q S.+X%X%XXXU.f i y y e $ d '.1XkX1XF.y.C B r e 9 d P.%X7XOXD.~ 0 y y y 8 - ~ '.xXjX].f.",
"i.j u q W.R.d $ f ^.zXbXcXOXd.s h d 9 * q b `.#X+Xd.% u ` ] ) d $ R $XvXvXkXD.p n c l 9 * d Y.[.oXXX> - d ] 3._ 9 : K.1XUXvX$Xa.",
"x.M d A.sX@XG.w.r.|.0X8X%XF.u v _ _.Y.) w 4 V R.(.s.% < ].=XK.R ; M.;XqX;XL.~ 9 ) W.`.R.i 2 9 B rXrX7 > n.-X&XK., < ,X0XqX.Xm.% ",
"` ` D.{.1XlX%X+X|..X6X2Xm.> 3 z Q.$X,XQ.l 1 9 z M l.j.J.<X:X:X&XL.}.<X;X|.Z.9 8 _ tXsX$X` e 2 e O.2.h.G.|.-X;X-XL.P.|.;X;X}.w.6 ",
"N T.].4XlXcXcXzX2X|.|.P.k u 4 v ).%XlX@Xz.3 $ $ p l.oX@X2X:X5X5X2X<X X+X^.m 3 3 l.sX0XdX(.z 3 3 i m ~.@X.X;XqX5X5X1X<XP.].!.z 6 ",
"p.H.1X4XlXvXbXvX4X&X'.Y.b r 5 x oX%X0XdXc.x % @ $ l.sXcX2X5XqXUXcXlX#XE.R.x 3 7 c.OX7X0XoXC a @ @ a #X%X%X2XqXUXvXzX,XD._._ X.5 "
};
