/* XPM */
static char *flag21727180130[] = {
/* columns rows colors chars-per-pixel */
"64 64 256 2 ",
"   c #290707",
".  c #3B0702",
"X  c #36130F",
"o  c #2F1E17",
"O  c #480B04",
"+  c #530C06",
"@  c #491709",
"#  c #571809",
"$  c #4C1B13",
"%  c #491717",
"&  c #541D12",
"*  c #5B1C13",
"=  c #521B1B",
"-  c #581717",
";  c #4E0C15",
":  c #641808",
">  c #661B16",
",  c #711C0E",
"<  c #58260B",
"1  c #4A2519",
"2  c #5C2314",
"3  c #53241C",
"4  c #5B2B1C",
"5  c #592517",
"6  c #523115",
"7  c #68260C",
"8  c #77290B",
"9  c #632315",
"0  c #6B231C",
"q  c #6B2B1C",
"w  c #672817",
"e  c #732C1B",
"r  c #772917",
"t  c #6C331D",
"y  c #673619",
"u  c #75331D",
"i  c #7C331B",
"p  c #773818",
"a  c #76380D",
"s  c #481B22",
"d  c #581B24",
"f  c #691B28",
"g  c #4B2525",
"h  c #5C2324",
"j  c #5C2B23",
"k  c #5D2B2A",
"l  c #552627",
"z  c #5A3429",
"x  c #5C3534",
"c  c #532E33",
"v  c #632523",
"b  c #642B24",
"n  c #6B2B23",
"m  c #6B2C2B",
"M  c #672729",
"N  c #732C23",
"B  c #722C2B",
"V  c #772A24",
"C  c #6C3324",
"Z  c #6C342C",
"A  c #6C3A2B",
"S  c #663628",
"D  c #733423",
"F  c #7C3425",
"G  c #7B3C24",
"H  c #73352C",
"J  c #7C342B",
"K  c #743B2C",
"L  c #7B3B2C",
"P  c #743B24",
"I  c #672C34",
"U  c #752D33",
"Y  c #6C3B34",
"T  c #633C3B",
"R  c #693636",
"E  c #733333",
"W  c #7B3333",
"Q  c #743B33",
"!  c #7B3C34",
"~  c #743B3B",
"^  c #7B3D3B",
"/  c #79353C",
"(  c #57450D",
")  c #724619",
"_  c #564B30",
"`  c #7B432C",
"'  c #784526",
"]  c #6B4437",
"[  c #7C4334",
"{  c #784638",
"}  c #6F5231",
"|  c #7A6733",
" . c #763742",
".. c #6B3941",
"X. c #784846",
"o. c #7B5447",
"O. c #724F4E",
"+. c #786B4F",
"@. c #594E46",
"#. c #832A1A",
"$. c #833314",
"%. c #83341D",
"&. c #89391C",
"*. c #92391B",
"=. c #88300B",
"-. c #872D25",
";. c #843523",
":. c #833C24",
">. c #8B3C23",
",. c #843C2C",
"<. c #8B3C2B",
"1. c #87342A",
"2. c #943B27",
"3. c #833C33",
"4. c #873A37",
"5. c #973C37",
"6. c #882E33",
"7. c #851F1A",
"8. c #89451C",
"9. c #96461B",
"0. c #8F4F18",
"q. c #A84C1C",
"w. c #AD561E",
"e. c #8B4324",
"r. c #84432B",
"t. c #8C432B",
"y. c #864928",
"u. c #934424",
"i. c #93442B",
"p. c #944C2B",
"a. c #9B4928",
"s. c #875329",
"d. c #9B532B",
"f. c #99562A",
"g. c #844332",
"h. c #8C4434",
"j. c #854C34",
"k. c #8C4C33",
"l. c #8B443B",
"z. c #8B4B3C",
"x. c #84473B",
"c. c #924434",
"v. c #944B34",
"b. c #93443B",
"n. c #934C3B",
"m. c #9C4B3D",
"M. c #9B4A35",
"N. c #8A5439",
"B. c #945535",
"V. c #9C5333",
"C. c #93533C",
"Z. c #9B543B",
"A. c #995B39",
"S. c #A44C28",
"D. c #A3532B",
"F. c #A85728",
"G. c #B3592A",
"H. c #A44B36",
"J. c #A35434",
"K. c #A3543C",
"L. c #A35B3B",
"P. c #AB5C3B",
"I. c #A95936",
"U. c #B65B38",
"Y. c #9A6438",
"T. c #976B30",
"R. c #B5672B",
"E. c #AA6538",
"W. c #B7673A",
"Q. c #BB753C",
"!. c #AC6C30",
"~. c #97601D",
"^. c #C4673B",
"/. c #C7783B",
"(. c #CA622D",
"). c #C15922",
"_. c #843A45",
"`. c #893D4A",
"'. c #8B4C43",
"]. c #874846",
"[. c #944C43",
"{. c #9A4C43",
"}. c #954846",
"|. c #8A5546",
" X c #945242",
".X c #9C5243",
"XX c #9C5B43",
"oX c #9D5B4B",
"OX c #965849",
"+X c #8B5956",
"@X c #925053",
"#X c #A35444",
"$X c #A35B45",
"%X c #A85847",
"&X c #B65B47",
"*X c #AB524B",
"=X c #886748",
"-X c #9B6248",
";X c #886958",
":X c #977756",
">X c #92704F",
",X c #A96647",
"<X c #B46444",
"1X c #B46B43",
"2X c #B86949",
"3X c #BA7548",
"4X c #A76654",
"5X c #B96A53",
"6X c #BD7453",
"7X c #B87555",
"8X c #AD7750",
"9X c #956A67",
"0X c #90746A",
"qX c #AE7769",
"wX c #C46A48",
"eX c #C77748",
"rX c #C87958",
"tX c #D47B56",
"yX c #CB7053",
"uX c #CA7C63",
"iX c #7F805E",
"pX c #AE872F",
"aX c #CB8A3C",
"sX c #D0A43B",
"dX c #B48C52",
"fX c #AF8E6F",
"gX c #B4A56F",
"hX c #9C9567",
"jX c #C98349",
"kX c #D5854B",
"lX c #CA8557",
"zX c #D58556",
"xX c #CF9753",
"cX c #D38863",
"vX c #C98565",
"bX c #CFB56E",
"nX c #D1AD4B",
"mX c #E7CD66",
"MX c #997F80",
"NX c #988E87",
"BX c #B49992",
"VX c #B0A899",
"CX c #B1ABA4",
"ZX c #CDB495",
"AX c #C7B9B8",
"SX c #CEB9AF",
"DX c #C4938E",
"FX c #EFDA85",
"GX c #CFC6BA",
"HX c #F4E6AE",
"JX c #CEBDC2",
"KX c #D7D0CD",
"LX c #E4D4D0",
"PX c #F2EAD4",
"IX c #E9E7E7",
"UX c #F7F1F0",
/* pixels */
"p < Z  .6.e > 7 A |.4X8X$Xu.$.8.p.Z.a.I.R./.Q.<Xp.i n Z F , 0 0 7 ' -X4X4XA.&.$.u.J.M.p.E.eXeX3Xf.8.e N ! B 0 * + n g.7XuX,Xa 7 ",
"@ @ k E W J ,.L ` ` ' p r.i.u.u.e.;.#.H./.eXP.>.w # $ h B ,.4.,.y.' ' P ' y.9.u.e.>.i :.E.lXQ.0.a 9 * > M R ~ 4.4.6.1.,.L p e.a.",
"% c g s h ^ z.C.j.' @ . 2 N.1XP.<.* + <.eXW.1.* = d s % h ^ '.z.N.r.4 O @ t E.!.V.t O < Y.3Xf.7 - k k % O d `.@X*X#X3.O   < V.3X",
"X.~ g O 4 E ! C.Y.} 4 $ j -XlXeXc.# + >.U.a., f  .X.A & - Z ! [ Z.XX` $ 1 ' 3XzX1Xa O < f.E.p q I  .{ 4 O =  ._.}.*X{.N & 5 A.3X",
"k.B.B.C.OX}.4.4.B.|.X.c Y oXlXkXR.9.$.F.U.*.r 6.<.t.V.E.A.z.4.~ j.|.|.R c X.3XzX/.w.8.0.I.D.r u J ;.f.E.B..X@XR J m.*X]. ...{.yX",
"p.1XxXlX5X{.5.1.r.z.~ x R 3.I./.aX/.!.!.a.-.-.2.i.J.Q.zXrX.X4.{ L x.X...x R B.W.aX/.R.R.D.>.i ;.e.u.R.jXcX7X|. .J 3.}._.....'.%X",
"1XlXjX1X,.r 1.3.r.[ k s d > $.G.eXkX!.9.2.-.;.>.P.yXkXeXJ.i m Q [ { T l s d 9 9.W.kX/.d.e.<.;.&.a.W./.kX6Xj.b R W ! ! m ; d 0 #.",
"6XlXT.) # + d J [ A = % d > r u.2X1X8.p k.C.2.a.2XtXeXf.7 + * M Q { b @ % 9 , %.L.eXA.p g.[.c.u.G.eXjX!.y.@ @ l Y ^ Q h O - , #.",
",XE.y.< @ s h h Y ] z y x.z.<.1.[.oXw j o.|.J.U.U.1XB.) @ 3 d h k { A q G v.<.-.h.oX{ d Y +XOX#XU.wXE.s.5 1 g g k R ` y y y.p.*.",
"Y.&.y t Z Z M - 5 { Y.,X7XoX! n _.X.3 @ z { -X<XP.p.) < y { ! = @ H N.oX7X2Xm.V J ].I % % Y |.4X&XI.r.y 4 R ] S h b D s.Y.8XJ.&.",
"m.i , 2.K.i., + 7 Z.7XvXrXA.Z b / E h @ X 6 } -X#Xc.r q y.A.:.: + ,.,XvXvX5Xg.n n ! B - ; = Y [.*XH.F 7 p XXN.q + < r.3XxXjXp.u ",
"b.2.#.*.&XU.=.=.&.P.rXeXY.t 3 x { '.l.Q 6 @ 4 { [.c.1.#.H.E.S.8 8 u.5XrX3Xy.4 h Q l.}.5.n & * n 5.m.<.r >.L.,X&.7 8 V.lXzXG.p # ",
"1.<.2.*.^.tX).q.S.F.E.f.p @ $ ] }.4X5XoXS $ @ 6 { l.-.-.H.wX2XG.q.a.I.P.u.7 O 4 x..XyXyX5.- & * V 1.1.$.&.L.eX<XV.M.P.R.q.=.7 < ",
"0 b.*X&XwXtXtXyXU.S.d.p.p @ $ A M.&XuX5XL < _ z @ K *X&X2XyXtXtX^.U.S.V.t.w @ 5 3.M.wXtXK.N 9 + + V p.J.E.1XrXvX6XE.P.F.9.&.7 # ",
"n .XyX&X<X<XwXtXwXS.d.E. XP 5 V *.q.(.G.1.z.=X} :X:X:X7X2X<X2XwXtXU.a.J.,Xx.b q &.S.).(.S.;.V 0 # q A.3X1X1X<X5X6X<Xd.a.I..XH 5 ",
"z.$X*XH.>.e.V.5XU.#.>.-X-Xx.J h.S.q.).S.#.z.=XZXPXHX:X|.v.>.e.L.2XS.$.v.-XOX! 1.i.F.w.q.*.-.l.4.4.r.B.A.s.e.e.c.<X<Xe.&.m.Z.3.Q ",
"-XA.d.2.=.8 %.m.,.: 7 r.C.k.h.Z.K.I.a.;.q < hXFXHXPXZX' y.r p r.k.D # P k.N.h.b.%XP.D.r.N Z ~ ].'.OXJ.M.&.i i F c.'.0 7 F i.t.h.",
"B.A.I.I.u.$.F 3.H & @ y r.n..X#XK.h.3.n $ z :X| FXHXZX) Y.p.>.L { h $ & p k.b.#X*Xm.3.H k s l R [ C.#X%XK.M.e.G ! ~ d ; 7 <.Z.M.",
"e c.$XP.V.i.J ! ~ j 3 < G #X%X*X3.V m v X z ;X] hXZX0X+X4XA.t.! E ..l & q k.%X4Xb.J Z S s s k k n V c.K.L.L.k.g.E  ...f # k.%XJ.",
": 6.z.:.r.p K !  .R 4 5 w ,.m.5.J M M k k ] +Xo.X }   +.6 w '.].O.O.R $ 2 t l.'.3.n b k c I  .W N 0 V ,.,.P P Q  .`. .I & C t.<.",
"> v M 5 < y C L ~ E k 3 3 * e 6.3.Z = Y o.|.9XS g   NXCXVXVX@.o X ; O...c z Q M h k l h 3.}.#X*Xt.e 9 j 3 1 6 R _._./ M & < & M ",
"3.m h l S ` N.r.3.^ Z S Z Q 4.5.x.] S 4 P |.4Xb O.  KXUXIXIXKXGXLXJXMXs c X.o.+X|.o.Z v r 2.I.wXP.%.2 4 z ] o.o.`._.6.W P S Q ].",
"v.L Z ~ |.4XoXr.D J J G g..X*X*XC.j.' < 7 n.qXR O.o AXIXKXIXKXGXGXKXCXBX0X9X9X+X4XOX[ P : $.U.yX^.S.u A z.OX-XoX`.U J 1.' y..X$X",
"Z.' { +XoX$X Xq > L t.c.i.i.H.&XL.B.' a e.2XqXY @.  GXIXIXGXo o _ ( +.NXNXDXBXDXqXOXg.y.8 S.eXeX/.U.t.3. X X X'.M : F t.8.9.v.m.",
"p.>.[ '.! 0 > : 0  X7X5XU.2.*.2.D.F.f.f.W.cXvXw X.  JXIXGX_ iXbXmXFXpX( | } CXPXfXN.z.XXI.eXzXeXG.S.<.J 3.,.r w : q B.5X1XE.*.$.",
"u w b Q n 0 V 0 H [.%X%XJ.*.#.*.a.p.e.E.eXlXqX4 +X  KXUXNXiXhXbXmXmXnXdXdX+._ GXDX{ x. X1XzXeXE.e.u 0 f B B e q e ,.Z.<XP.I.u.8 ",
"O & 5 3 E [.{.z.,.u # : e c.K.#Xx.b 2 N.3X!.OXz +XX CXUXVXiX| hXmXmXsXpXpXT.| fXBXB x A E.dXV.` k s d d d M X.x.x.g.p 7 < r v.V.",
"v Z & . v 4.l..XA.` < O n XXyX,X! @ . r.3Xf.` I MXs KXUXVX+.iXbXmXnXpXsXT.} =X0XNXX.x 3 T.Q.e.b ..c I h % k ~ ~ C.C.G # # 2 Z.5X",
"[ z.' y ,.,.J h.A.|.Y j ~ 4XzXeXB.7 < y.E.e.K R 9Xs JXIXLXVX+.hXbXnXpXxXgX| +.BXBX[ C u E.T.r 0 I ~ x.r.D K [ H v.Z.k.L b b oXrX",
"g.XX7X7X4X[.4.;.s.N.X.x R  XeXkX3X!.~.f.d.p ' S 9X. JXIXLXIXCXiX( bXaXT.| ( ZXPXfXN.Y.V.D.p.8 r 6.h.A.!.W.,XOXg.>.v.n.z.R b C.6X",
"V.1XzXzX%X,.,.,.p ' x c l N S.(.jXaXR.w.*.i [ ] MXX KXIXIXIXIXiXgXbXdX( +.ZXPXZXfXA.3XE.9.$.r %.t.I.Q.aXeXI.<.<.%.2.c.Q g s D M.",
"wXrX3XD.r # q L ` ' g s s * =.S././.~.9.e.g.|.A qXl JXIXKXIXIXc 6 | hX0XO.GXLX9X>XT.3X0.u.u.2.>.D.3XjXjXE.a # 0 F :.3.n % % : #.",
"/.eXp.7 # & @ z ] _ 6 $ n J -.2.4X4XH J |.OX+X] 0Xx NXCXCXKXKXKXPXVX1 @.@.AXZXX.+X|.=X7 y.Z.J.S.G.wXlX-Xy $ X 1 l ] A w 4 t i #.",
"^.S.i 2 5 z 4 1 z ] ' { OX#X6.6.@X].f d ~ OX9XT qXx _ g g +.hXVXCXVXAXAXAXVXo.T o.o.{ @ w k.K.&XU.U.C.P 3 z x c c x b L j.A.H.i.",
"H.#.w e ` [ y @ < s.8X7XuXoXJ B _.U d ; l ~ +XX.0XX.X.S @.9X{     o.;X;X;X+.O.] k { / ; O 4 j.%X&XH.%.9 q { o.j * > D ,X7X6X#X1.",
"5.-.e :.Y.B.a # a A.rXlX3Xj.q n 6.6.U - ; l O.] 0XY g.e z.oXj.< ( =X:XhX:X;X{ k R { 6.f $ 1 j [ *XH.2.r e.A.A.a # 8 I.rXcX6X3.# ",
"5.4.$.&.E.1Xp.$.8.F.Q.W.u.9 2 H '.#X%Xl.M % x T 0X{ :.#.a.1XE.8.) 0.E.7XY.' @ g ] @X*X@XX.o s l 4.5.6.7.*.U.!.f.=.9.^.wXP.B.q O ",
"6.4.a.S.W.jXeX!.q.S.G.a.a + @ E c.<XrX2XJ - z x 9XA M.*.F.1XeXQ.F.w.f.f.e.< X 6 { .XyXuX+Xc s % > 6.5.5.S.U./.eXR.G.R.G.&.p 9 $ ",
";.K.2XW.1X3XlXlXW.D.a.D.<.0 - B u.G.eXU.2.n R T ;XQ 5X2X3X3XeXeXeXG.f.f.N.S 1 j L M.wXeXN.A v - + 0 *X5X&XyX7XdX3X!.a.J.#Xl.M ; ",
"1.K.<XP.E.Y.A.rX2Xa.a.,X$X4.V -.u.S.U.G.2.6.X...9XY 4X2XE.F.A.Q.jXF.8.A.4X|.Z Z <.u.G.I.i.L 3.B n -.*X&X&X*XB.Y.3X<X>.n.5X@XW U ",
"b.Z.M.u.u.&.:..Xm.r u Z.$X}.4.m.I.G.S.&.-.3.+XT 9XX. Xu.p $.i p.A.e.r r.$XoX_.4.#XI.F.S.F H g.'.l.{.#XH.&.p p ) ,X,XF e [.].}.`.",
"%X%XS.&.&.i F l.W # # 1.b.4.m.#X&Xp.t.D q b O...9XT $Xi.e.8.i L x.q + 0 4.b.l.{.%X%Xa.%.C b H ! }.*X*XH.u.8.) P g.! > # n 3.{.m.",
"c.$X&XJ.a.i.4. .R l & 9 ,.{.%X%Xz.3.A j % 1 T T 9XI 4X%XK.H.<.3. .I - > r M.$X%XZ.5.1.B = X 5 v -.5.#X*X%XI.p.p H Z M - # :.I.K.",
": t.#Xm.M.c.3.E ..x l 5 F {.*X{.H M I l = 1 X.x +.j |.m.m.c.5.4. . .M > , c..X.X<.e 0 b 1 g M e 8 , 6.{.m.c.k.L Q ~ U d 9 :.i.a.",
": J 4.B e p u P Y R l 3 d m ! ! / I h I X.].;Xg O.g @.] b m B /  ._.U > > > H ! 3./ f > Q X.z.k.%., n E I M v L ! 4.E M 9 - 0 e ",
"e v M d * y ' ' { Y S j v v B W X.E M m @X|.] 6 6 6 _ z z M  ._._._.J n 0 0 b E  .4.B n J k.#X<XJ.r v h l M B ! '._. .U M 5 0 J ",
">.0 M  .[ N.-X` Y ^ E K 4.].{.[.}.3.J 0 J u hXgXvXfX:X] ].|.@X@X6.6.W F L [ z.|.|.].3.N 9 &.P.rXW.e.n M  .X.@XoX}.4.4.J A [ }.%X",
"J.i W @XOX-X-X` w E K G x.n.%X%X$Xh.&.7 r.j.:X>XbXZXhX} >XOX-X[.V V J D ' s.|.-XoX{.c.r , =.<XeX3Xf.,.~ +X+X-XOXJ > J ,.G k..X#X",
"d.u.5.`.5.l.g.b = ].XXZ.d.9.*.w.F.~.9.a.-Xy <   s.hX( 6 =Xs.' t & S N.Y.T.) ' k.K.I.S.9.9.G.eX/.!.~.y.h.[.z.' ' < * l.$Xf.f.e.2.",
"e.1.6.6.0 0 w * E @XqX5XL.9.=.=.F.q.S.1X-Xs.dXgXbXbXgXT.} ) 7 < 9 { 4X8XpX~.) %.c.H.D.D.U.tXzXQ.~.0.%.J J t < < 9 D %X&X,XF.8.$.",
"+ * V M Z Q Q K F 3.r.` t.t.a.a.h.,.p -XN.dXdXbXFXmXFXdX< ' G 1.-.1.g.g.' ' <.4.b.l.H y.^.zX^.S.p w * * 4 y ) ' ,.2.5.2.r.r.g.g.",
"O - # - Z ].'. Xk.u + O 9 [.2X%Xg.* . N.Y.Y.) dXbXbXbXpX< ` l.}.5.5., O O K *X5X}.B O 7 E.eXa.i 0 - = & @ 6 ' k.m.5.#.: + y N.4X",
"{ K 9 # 9 Q ! C.A.k.q & E 4X7X5Xr.# . k.2Xd.7 p p ) ) < < P W 5.&X*X-., h '.7XuXoXC . < E.R.$.r B m L C < 4 A H H.*X5., @ 4 A.uX",
" XZ.V.d.n.g.G y.f.Z.{ I { 4XuXuX,Xy.p p.P.*.7 B K j.N.s.N.z.4.4.H.H.{.U x O.5XcXrXA.p ' E.d.8 w J 4.n.M.k.N.x.! 6.#X#Xl.m Z XXvX",
"V.1XeXeX<Xp.;.i e.{ X.c I g.W.tXkXQ.E.f.9.i r F c.L.3XeX6X#X@X5.;.2.x.T c ] H./.kXaX!.~.B.' t u <.H.W.eXrX4X[.'.1.e.[.]. .I 3.,X",
"U.eXkX^.u.r i :.' ' x s % 7 *.(.eXjX!.0.8.i %.<.P.yXrXlX%XJ U W >.:.A l s 1 8 q./.jXQ.Y.y.) p i M.&XyXtXyXc.B E F G g.U d d > %.",
"eXcX3X' < @ 5 { { A = - - , 7.9.3X8Xj.' s.y.i.I.2XtXvX$XD ; ; b L ` 9 @ 1 & 8 =.I.rXXX' ` j.e.a.G.yXcX7Xg.* % % b L j.2 . $ , -.",
"yX2Xr.$ % 3 3 b ] S M H 1.-.#.%.$X Xy 4 { C.L.I.&X5X4XK @ % 3 j A P t t C ' $.r c.4X{ j A j.J.I.U.2X7XC.5 @ d l j S ' y w K <.<.",
"I.$.# < S Y b % 9 ! n.&XwX#X2.r ,.K & @ t C.,XK.I.M.u w b S ] S * C k.-X,X,Xc.i H { M % 3 [ XX&XH.U.r.< 4 j x T k 3 p s.,X7X.Xr ",
"c.r < ] |.'.w + 9 C.rXzXuX&XV V K P 6 @ < Z n.#XK.<.w w ` |.{ 9 + p E.rXcX7X<.N D Q R $ @ 4 L Z.*XH.G 2 t N.|.] & 2 y.,XcXcXK., ",
" XL t j.,XZ.r , =.U./.eXU.*.> B z.k.` t d ; M @X#Xc.V r B.8Xy.< 7 9.W.eXeXd.q v ! '.z.J l ; % ~ @X}.4.r &.W.!.a @ a E.eXjXW.<., ",
"l.3.' y.W.wXW.S.9.G.G.F.&.+ + Z C.,X4XC.M ; ; f ].,.r %.E.1X!.f.0.D.R.G.9.8 O = { #X5X4XQ = % d  .}.-., 9.W.Q.F.0.p.I.W.S.=.: > ",
"n h.A.L.W.tXtXeXW.f.f.p.D + ; B c.&XyX%XE I d + # 1.c.J.E.Q.jXjXQ.I.I.a.>.7 O d 4.#XwXyXz.Z M ; + n 5.H.F.W./.lX3XW.f.E.H.V - f ",
"> {.rX3XW.U.wXeXQ.Y.B.XX|.I d 4.H.I.&XH.3.~ U - + t.rXwXF.R.Q.eXrXU.d.J.$Xl.d M 5.5.U.U.n.W 6.f + > <XrXU.G.W./.lXQ.p.p.,X{._.f "
};
