/* XPM */
static char *flag11727180130[] = {
/* columns rows colors chars-per-pixel */
"64 64 256 2 ",
"   c #390702",
".  c #360E09",
"X  c #2E1114",
"o  c #490B04",
"O  c #540C06",
"+  c #491608",
"@  c #541B0C",
"#  c #581608",
"$  c #470D14",
"%  c #4C1513",
"&  c #4C1B14",
"*  c #481919",
"=  c #541C13",
"-  c #5B1C14",
";  c #531C1B",
":  c #5B1D1B",
">  c #571514",
",  c #560F19",
"<  c #651708",
"1  c #651B16",
"2  c #721B0E",
"3  c #49240C",
"4  c #58230A",
"5  c #4C2315",
"6  c #5C2313",
"7  c #53241C",
"8  c #5C231C",
"9  c #5B2B1C",
"0  c #582815",
"q  c #573117",
"w  c #67250B",
"e  c #77270C",
"r  c #622313",
"t  c #6B2414",
"y  c #64251B",
"u  c #6B241C",
"i  c #642C1C",
"p  c #6B2B1C",
"a  c #682C14",
"s  c #722A14",
"d  c #722B1B",
"f  c #782817",
"g  c #6C331D",
"h  c #683318",
"j  c #75331C",
"k  c #7C321B",
"l  c #773718",
"z  c #73360B",
"x  c #4B1C22",
"c  c #571924",
"v  c #4A1A32",
"b  c #641B28",
"n  c #6E1B35",
"m  c #4C2326",
"M  c #5C2424",
"N  c #5C2B24",
"B  c #5B2A2B",
"V  c #572627",
"C  c #5A342A",
"Z  c #5C3436",
"A  c #542B35",
"S  c #632523",
"D  c #642C24",
"F  c #6B2C24",
"G  c #632B2A",
"H  c #6B2C2C",
"J  c #692528",
"K  c #732D25",
"L  c #732C2B",
"P  c #782A26",
"I  c #6C3324",
"U  c #63332C",
"Y  c #6D342C",
"T  c #683927",
"R  c #743324",
"E  c #7C3424",
"W  c #743B24",
"Q  c #7C3C24",
"!  c #73342C",
"~  c #7C342C",
"^  c #743A2C",
"/  c #7C3B2C",
"(  c #672C36",
")  c #752E34",
"_  c #693836",
"`  c #743433",
"'  c #7B3432",
"]  c #743B33",
"[  c #7C3C33",
"{  c #743B3B",
"}  c #7B3C3B",
"|  c #77353A",
" . c #72441C",
".. c #7B432C",
"X. c #774528",
"o. c #6A4338",
"O. c #744234",
"+. c #7C4334",
"@. c #7C423B",
"#. c #794A38",
"$. c #7B5737",
"%. c #734A28",
"&. c #693842",
"*. c #773842",
"=. c #5E2341",
"-. c #6B4646",
";. c #784946",
":. c #7A5349",
">. c #7A5257",
",. c #87340B",
"<. c #842C18",
"1. c #843315",
"2. c #82341D",
"3. c #833B1C",
"4. c #893819",
"5. c #93391B",
"6. c #892E0C",
"7. c #862D25",
"8. c #843423",
"9. c #833C24",
"0. c #8B3D23",
"q. c #83352B",
"w. c #833C2C",
"e. c #8B3C2B",
"r. c #8B3426",
"t. c #943B26",
"y. c #833C33",
"u. c #8B3B32",
"i. c #8A3C3B",
"p. c #843736",
"a. c #973B37",
"s. c #882D33",
"d. c #932E1B",
"f. c #89461B",
"g. c #97451B",
"h. c #985018",
"j. c #AB4E1E",
"k. c #8B4324",
"l. c #84432C",
"z. c #8B432B",
"x. c #8B4B2C",
"c. c #854926",
"v. c #934424",
"b. c #93442C",
"n. c #944B2C",
"m. c #9B4B2D",
"M. c #994827",
"N. c #86532C",
"B. c #9C532C",
"V. c #975629",
"C. c #844332",
"Z. c #8C4334",
"A. c #844B33",
"S. c #8C4A33",
"D. c #8B443B",
"F. c #854B3B",
"G. c #8B4B3B",
"H. c #84433B",
"J. c #934433",
"K. c #944B34",
"L. c #94443B",
"P. c #934C3B",
"I. c #9C4C3C",
"U. c #9C4935",
"Y. c #895339",
"T. c #955433",
"R. c #9C5333",
"E. c #94533D",
"W. c #9C533C",
"Q. c #9D5B3D",
"!. c #975B38",
"~. c #A24D26",
"^. c #A54B29",
"/. c #A75628",
"(. c #B55929",
"). c #A54B37",
"_. c #A45434",
"`. c #A45C34",
"'. c #AB5C34",
"]. c #A3543D",
"[. c #A55B3C",
"{. c #AB5C3B",
"}. c #AB5439",
"|. c #B65B37",
" X c #976734",
".X c #A9642B",
"XX c #B4642D",
"oX c #AA6539",
"OX c #B3633D",
"+X c #B9643C",
"@X c #B86937",
"#X c #BB753C",
"$X c #AE7134",
"%X c #97601F",
"&X c #C4693B",
"*X c #C77638",
"=X c #C7632F",
"-X c #C25A3F",
";X c #843A46",
":X c #803B50",
">X c #8C4B43",
",X c #874846",
"<X c #954D44",
"1X c #9B4C42",
"2X c #954746",
"3X c #885548",
"4X c #935244",
"5X c #9C5344",
"6X c #9D5C43",
"7X c #98584A",
"8X c #925253",
"9X c #A54C43",
"0X c #A35444",
"qX c #AB5543",
"wX c #A35B44",
"eX c #AB5B44",
"rX c #A3544B",
"tX c #A35A4B",
"yX c #AA5A49",
"uX c #B55944",
"iX c #AE5955",
"pX c #9A6349",
"aX c #966757",
"sX c #957150",
"dX c #AA6647",
"fX c #B36A43",
"gX c #BB6C45",
"hX c #B66649",
"jX c #B97548",
"kX c #A76556",
"lX c #B76A53",
"zX c #B97656",
"xX c #A7764F",
"cX c #B87461",
"vX c #9C7462",
"bX c #C56B49",
"nX c #C77847",
"mX c #D37A4A",
"MX c #C36A58",
"NX c #C87956",
"BX c #D47C57",
"VX c #CE7765",
"CX c #D08239",
"ZX c #B08655",
"AX c #AB9060",
"SX c #C98449",
"DX c #D4844A",
"FX c #CA8457",
"GX c #D58557",
"HX c #CB8563",
"JX c #D58963",
"KX c #CCAB76",
"LX c #E08E66",
"PX c #EDDAA7",
"IX c #F0D59C",
"UX c #D8AF81",
/* pixels */
"l 6 Y } s.d 1 w ^ 3XkXxXwXv.1.5.n._.U._.@X#X#X@Xv.l D ` ! u 2 a q X.aXkXdX_.5.,.f.R.W.K.'.nXSXjXB.k.s d / ! y : > 2 l.lXHXdXs w ",
"3 + M ( ` q.w./ X.X.X.l l.n.v.v.0.E P ).nXCX'.5.s @ & V ! p.' w.X...X.X./ x.g.g.c.f.j 9.OXFX#Xc.s a r 6 S H } p.i.p.8.w./ Q f.B.",
"5 A m x M @.>XY.Y.W +   6 T.OXoXe.1 O e.bX+Xr.1 : V x $ c i.>XP.T.l.0   .  .`.OX!.j o < `.jXV.w , V N & o V :X8XiXrXq.O   3 R.jX",
";._ 7 $ M ` / E.!.$.q & N pXFXNXb.< O 9.fXv.1 b | ;._ 5 = ! p.C._.6X..5 5 #.jXFX@Xl o 4 V.oXl s H { +.9 o : *.;X2XrX2XK & 0 T.nX",
"S.T. XT.7X2Xp.u.!.4XO.Z _ pXNXDX.Xh.f.`.}.d.f u.p.Z.R.`.Q.P.C./ S.T.:._ Z ,XlXGX*X.Xf.h.'.m.k R E w.T.oXW.7X3X| ' 1XrX,X&.*.tXNX",
"n.fXFXFXlX2Xa.u.l.F.*.Z _ H.'.*XCX*XXX.Xm.7.7.t.b._.#XGXNXW.y.[ W N.;._ Z _ K.OX*X*XXXXX_.0.k 2.k.v.XXnXJXzX,X] ~ y.2X;X&.=.L.uX",
"fXFXSXxXe.u q.q...+.A x c 1 1.(.nXCX.Xf.0.e.r.r.}.NXDXSXB.l K ] ..+._ V x x a v.*XDX*XV.c.9.q.8.M.@X*XDXjXS.D _ ' ..[ J x , u 7.",
"zXFX$Xz # # 1 ` #.^ 7 $ c u e v.jXjXf.l A.E.e.^.-XJXjXV.a o : H O.O.U % & 8 1 2._.nX Xl +.<XL.b.'.nXDX$Xl.@ $ N Y +.} : . ; 2 <.",
"oXdXc.4 + x V N U o.T g F.D.u.q.<X8XD 9 ;.pXqX}.uXgX!. .+ ; S c G { O.9 ^ G.u.8.z.7X#.0 _ 4X7XqX|.bXoXN.q 5 m m B _ ^ i h N.n.4.",
"Q.f.h g Y H G > 0 $.Y.xXzX6X~ K i.,X; % C #.wXhX+Xk.W 4 T O.| c = Y 3X6XlXlXI.P ~ F.U $ = _ 4XdXuX}.c.a 9 _ o.Z V i I N. XjX'.4.",
"W.k 2 t.].b.2 O t W.zXHXFX!.Y G ` ` M + X q #.6X].k.s t N.Q.e.< O / dXHXHXlXu.F K p.) > $ & Y P.qX).2.t W 4X3Xp O w k.NXJXSXn.s ",
"L.e.<.5.uX|.6.6.1.{.NXnXQ.g 7 C @.>XG.R 5 3 q +.E.J.2.1.R.OXR.e e M.hXNXjXn.y y ' i.1Xi.H & 0 Y a.9X0.s Q dXoX3.w e B.FXSX.Xl 4 ",
"r.a.r.5.-XmX=X^.^./.XXV.l + & _ >XkXzX7XT = + 8 p.q.r.1.m.gXgX'.~.~.'.oXv.w + 8 H.rXMXMX2X8 @ - L u.r.1.3.'.jXfXR.m.'.@Xj.,.w 4 ",
"u L.uXuXbXBXmXbX|.^.B.x.l 3 & ^ a.|.BXlXw.y = % 8 p.9XuXuXNXGXJXFX|.^._.k.a + 8 w.I.bXmX0Xd 8 O > u n._.'.jXBXVXbXoXoX/.g.4.a @ ",
"F 5XMXMXhXOXbXBXbX^.B.dXE.I 0 R 5.(.=X|.r.' G : = H.lXlXlXjXZXAXzXdXn.wX6X#.i a 3.g.(.=X^.7.P 1 # p !.jXfXfXhXlXzXhXB.M._.].! : ",
"G.7XqX^.k.k.U.lX|.1.9.dXpXH.~ Z.j.j.(.5.7.i.,X} +.Y.0X5Xx.pXY.$.xXsXW D.kX7X/ / m.~.(.j.5.8.Z.Z.y.l.R.!.n.f.0.J.lXdX0.3.R.W.C.' ",
"6X6Xm.v.1.6.E P.l.r w l.E.G.Z.0X}.`.M.r.L ) :X,X>X7X_.n.9.X.AXPXPXAXq I Y.G.C.L._.{.R.0.! H | ;.>X7XQ.m.4.1.k E P.<Xu r 1.z.e.K.",
"T.W.{._.v.1.8.' ! > + a l.K.1XyXW.J.q.J c V ( } >X5X[.R.+.%.KXPXPXAX3X  l x.1XtXyXI.u.! B x V _ #.P.0XqXR.U.z./ } ` c * t k.W.U.",
"P I.eX[._.z.~ ' | B 0 4 / 5XyX9Xw.K L S * ; G J P u.T.wXA.3XY.AXPXUX#.. g S.yXrXL.E K H x * V A H P J.].wX].K.+.` *.*.b # K.eX].",
"O q.D.l.X.Q / [ *._ N 0 a l.L.L.' S B B U _ } s.2 u w.C.I  .sXq AXAX9 8 6 j u.2Xp.K S S B _ } | K t d y.l.W W ] *.*.*.n @ I e.e.",
"1 S G 8 4 a W / } ` G 7 7 - f s.#.U V U ;.7XtX5Xk w F N 5 q 3XC X 8X*.x ; y 1 P i.p.i y p.1X0XrXz.u a N 7 5 C T ;X;Xs.J 5 @ 8 F ",
"[ F M V I ..Y.l.y.p.Y U T / i.;XF.O.D h ^ P.hXhXM.s M B U #.o.m A -.*.` ! ^ i.i.2Xu.R a f 0.{.bX{.3.6 V C o.#.:.:X;X| ) W T ] ,X",
"T./ Y { 3XkXpXl.K / ^ R S.I.9XrX4XA. .w w M.nXnXXX4.p @.3XaXY o.&._ } ~ ..P.5XtX0XL.z.z < 6.uXbX&X^.k ! F.7XpXpX;X7.~ q.X.x.4XtX",
"Q.Q @.8XpX7XE.d - ~ S.b.b.U.).uX0XR.f.z ,.@XnX*X@Xm.w.G.7X4XU -.-.Z 3Xl.z.z.K.wXyX0XM.4.6.^.nXmX*X|.z.y.4X4X4XG.F 1 E z.f.f.U.R.",
"K.Q C.>X~ u r 1 u 4XzXlX|.t.d.t._.`.V.~.@XmXDX@Xj.g.8.D.y.R ; _ Z X vXcXdXT.3.9.K.].}.^.}.nXGXnXXX~.e.q.y./ d a # u E.hXgXOX5.1.",
"l t F ! F 1 F 1 ~ E.tX{.).t.5.5.n.n.c..XmXDX@XV.,.k u H K Y ; o.Z X 3XpXQ.x.3.3.z.K.J.U.bXGXnXoXk.k u b L K d p d 9.W.oX[.`.f.k ",
"o = 8 8 ` 8X<XD.l.j # # k b.].].H.G - Y.ZX@Xc.W : & ; * 8 { V ;.-.C :.5 0 l T.!.E.^ : R OXnXQ...B v c c c H @.,XG.C.l w # s n.R.",
"9 Y =   y i.L.rXW.l.@ o F wXlXdX[ +   ..jXV.h D B V N 5 = _ 7 >.:.:.:.. 5 #.xXjXT.g   @ oX$XX.h A A ( c * B *.O.E.E.Q - @ r E.lX",
"O.>XQ h / p.E Z.6XE.] N } kXGXnXT.w 4 N.$Xk.w K ^ +...X.l +.7 3X-.>.8Xv _ ,XxXFXdXf.4 z {.`.s a ` | A.l.j W O.! P.Q.S./ I D 6XNX",
"C.6XzXZXkX<Xe.E N.Y.-._ _ 4XnXGXSX.XN.%XB.1.s j l.W.oXfXdX6XH 3X;.>.>.v &.*.dXFXFX#XV.V./.v.s s q.J.Q.$XdXdX7XH.0.n.P.F._ G 5XzX",
"W.fXGXGXyXy.y.w.l X.Z Z A F ~.=XCXCX.Xh.5.2.e 1._.+XnXmXbXU.y ,X;.>.>.v =.G / {.DXDX*XXXM.3.2.k b.'.#XCXnXoXe.e.<.t.P.' m x K U.",
"bXNXjX/.s # F / ..%.V X * 1 6.j.*X*X.Xh.z.J.t.n.OXnXDX*Xn.< % ,X;.:.*.X v , 2 t.@XnXXXh.k.k.t.r._.#XDXZXXXz # u 8.q.y.D * % < <.",
"*XbXn.w @ % @ C o.%.5 & F E 7.t.iXkX' L 4X7XI.).|.NXjXx.1 % $ :.o.>.;.. 1 7.7.7.U.jXY.w c.Q.).^.(.nXzXpXT & . 5 A o._ i 0 g 2.4.",
"&X^.l 6 8 C q 3 C o.%.#.7XrXs.s.8X,Xb : } 4XrXuXhX{.l.i 8 G 7 -.o.-.-.Y E.eXb.E e.E.W 3 9 A.].|.|.|.W.W q V C A Z C N ..Y.R.I.t.",
").<.t j l.#.h 3 3 N.xXzXNX7X~ L | ;Xc $ > ] 4XlX}.t.s a / F.D o.U 3X;.pXVXzXS.p R ..D $ + N S.tXuX).4.t p #.$.D = r E wXNXzX0Xq.",
"a.r.s 9.Q.T.a # z  XFXFXzXS.p D p.p.L 1 % 8 ^ >XrXL.f k K.dXg O.-.O.sXZXFXoXW q I y.' n * * N H.}.9Xr.f 9.6XQ.l # e _.BXHXzXe.> ",
";Xu.<.4.oXfXV.,.4./.@X@Xn.w 6 Y D.5X7XG.S * : Y D.u.<.6.~.fXX.:.:.. xXjX!.l 3 q ] <XiXiX-.m * N u.a.s.d.d.).$Xh.,.g.&XbX`.T.p o ",
"s.J.M.~.oXSXjX@X/./.(.~.e O @ ! U.uXNXlX' : % ; Y e.t.5./.jXN.pXaX  x. Xc.4 X 5 @.9XMXVX8XA * % b s.a.a.^.-XSX*X.X(.(.'.4.l y % ",
"E ].hX+XjXjXFXFXgX~.B._.l.u : K t.(.nXhXe.P = + @ ..uXgXfXzXA.aXvX. W E.>XY 5 B q.U.bXbX3X_ S + O f 9XMX-XlXZXZXjXXX~._.6XD.F , ",
"8.0XOXOXoX`.[.zXgXM.m.wXrXp.P s.v.(.(.^.r.u.! i a A.hXhXoXQ.I aX3X5 A.7XkX3X` ! u.M.(.'.Z.} } R u q.9XlXiX0XR. XjXfX0.I.kX8Xs.J ",
"P.].m.v.v.3.9.0XI.k k W.tXD.u.)._.'.~.4.E p.,X,XF.4XR.m.k l @ 3X>.#.O...7X7XH.i.W._./.M.R Y H.>X2X2X9X).4.l l  .xXeXE P >X>X2X;X",
"yXeXR.5.1.k q.D.' # # ~ Z.L.L.rXeXR.k.j F G ` ;.4XrX].M.t.9.6 3X>.5 @ t u.P.Z.1XtX{.n.3.F S Y } 2XrXqX].v.f. .l A.y.1 # p y.1X).",
"J.0X{.).m.e.p.} _ V = y w.9XrXyXP./ ^ N * * B U p.9XqX}.].6X9 ;.;.. : 1 f J.].eX].z.Q R 7 * : S P a.9XqXqX`.n.X.Y Y S > # k.qX_.",
"< u.0XI.I.J.y.` &.Z 7 6 E 1XrX1X~ G G V 7 V U D u P a.].1XG.9 ;.&.B G - t Z.0XwXu.d i D 7 ; G K e 2 s.1X1XU.z...` } | c r k K.m.",
"< P p.L d l l W ] U N 7 c H ~ [ | ( b H [ D.S.l.d p I H q 3 . 3 5 5 5 & - u K } } ! b y ` H.G.S.4.2 F ` ( S F ! ' i.) H M 1 r d ",
"d F J c - h X...O.o.U B S S L } ;X` J L Z.W.eXdXl 9 N B X o.sXZXvXvX$.C 9 y G ` @.*.L S ~ G.wXhX_.s S M B B H y.D.;X*.H S 8 F P ",
"e.p J *.+.Y.pX%.] { ` ^ @.,X<X2X>Xy.K F f U.gXlXT.l C Z :.$.sXAXKXKX$.o.W A.3X3X8X,Xs.P u <.eXzXoXl.F J { ;.8X7X2Xp.i.~ I A.<XrX",
"R.k ' 8X7XpXpX..y ` ^ / C.I.qXeX].K.w.e e ).nXNXfXx.` :.sXT q z ZX Xq $.%.N.4X7XtXI.J.<.2 5.OXnXjX.X~ } 8X8XaX7X~ u ~ / Q S.5X0X",
"B.t.a.2X;XJ.C.i : ,X7X5XR.g.g.j././.h.g.~.bXmXjXoXB.r.5X%.$.ZXKXAX X X$. XN.c.K._.|.^.g.5.|.mXnX$X%Xv.z.P.G...%.# 4 D.[.B.B.k.t.",
"k.9.s.s.f t y - Y 8XzXlX{.5.,.,.h./.j.(.bXGXnXoXV. .9.j %.sXsXIXIXKXKX$.ZXN.l k M.).^./.+XmXGX#X%Xf.k q./ g q 4 r P 0XhXoX.Xf.k ",
"# - J P Y | ] ^ ~ w.C.l.l.k.M.M.x.9.k ].mXmX'.X.a 3 6 @ D Y.!.FXLXDXdXh %. .>XD.L.Z.! w.+XDX&X_.l r 6 1 9 h  .X.0.r.a.a.c...Z.l.",
"o # > , Y ,X>X4XS.j o o y 4XhXeX+.- o J.mX(.3.i 3 5 @ & 5 T l.t.5.z < + . %.tXkX8XY + 4 OXnXg.k y ; : ; + 9 %.A.I.).<.O + i Y.kX",
"@.^ r # i ! [ E.].n.p 6 ` kXMXzXl.+ o z.bX^.s D T T %.0 5 T q.u.|.uXr.4 q ;.cXVXrXF   4 oXXX1.s K H ~ I 4 0 T W I.qXa.1 + S 6XHX",
"<X5Xn.m.G.Z.Q k.R.!.O.( { kXVXBXdXc.l R.'.4.2 L ..F.!.N.Y.>Xp.u.^.].E.Y Z :.zXVXMXQ.l f.oXB.z t ~ i.P.E.E.G.,X[ a.9XqXi.H Y 4XHX",
"m.gXnXnXfXn.8.k c.A.o.A U C.OXDXDX#X.XV.g.1.f 8.Z.dXfXnXlXtX2Xu.r.z.H._ A Z U.mXDXSX$X XV.f.s k e.).hXbXNXlX>XD.E k.1X>X*.( C.dX",
"OXnXDX#Xv.f 2.9.Q %.U v x 1 f.=XSXnX$Xh.3.k 2.t.eXlXFXNXwX~ ) p.3.X.^ V m 5 e ~.*XCX#X X%.W j 2.U.-XmXmXbXP.) ` E Q C.H c c 1 8.",
"nXJXjXX.@ + 0 +.O.T c % > < <.~.gXjXN.X.N.l.z._.lXBXFX[.K % % G +.X.r @ * & e 6._.NXpXX.X.#.k.m.|.bXGXzXA.> * x S ] +.9 o % t 7.",
"NXgXl.@ & 7 7 N O.Y F K e.r.<.<.6X4XD q #.E.wX{.uXMXdXW % , x B ^ E j p W / 2.f K.tXF.9 o.Y.W.|.-XhXzXE.0 + ; V V ^ ..h 0 / a.r.",
").2.@ 5 U o.G ; 8 / E.uXMX9X7.7.C.X.3 & T 4XdX_._.m.j S G U o.U = j z.Q.dXdXK.P R H.H % 5 #.6XeX}.^.l.q 9 C Z _ B 9 l N.dXzXW.e ",
"m.s 4 X.3X>Xu O 1 E.NXJXBX}.P K W _ 9 + 5 ! K.].].t.d S +.3X#.q o 9.oXFXJXjXC.I I | H = + 9 ^ W.qX).R a W F.3XO.5 4 c.fXJXJX].2 ",
"1X/ g Y.dXQ.e < ,.oX*XnX+X5.1 H F.F.+.D x $ J <XrXZ.P s T.fXN.# w f.@XnXnX/.i 9 ] 3XG.! M $ $ | 8X2Xp.f 4.oXoXz o z {.nXnXOXt.2 ",
"D.y.Q c.dXbX+X/.h.(.(./.1.# O H <XlXlX>XJ $ > b D.u.a 1.'.jX$X%Xh./..X(.h.w o & H.tXlXdX[ c , c } 2XP 2 g.@X#X.Xf.n.oX@X/.6.< 1 ",
"K D.Q.[.gXmXBXnXoX_.B.x.R O $ L U.uXBXqX` H : o : ~ U._.oX#XSXSXjX'._.B.0.t o : a.9XNXbXG.! J , O u J.).(.@XnXSXSXoXB.`.R.P , b ",
"< 5XzXgX(.+XbXmXjXV.T.6X4X) c } a.^.-X}.u.' L 1 o i.VXbX/.XX#XnXnX{.R._.tXi.1 J ;Xa.|.|.J.^ ' J , 1 dXBX'.(.@XnXFX#XV.n.dXrXs.n "
};
