/* XPM */
static char *back1727179827[] = {
/* columns rows colors chars-per-pixel */
"64 64 256 2 ",
"   c #0B0B0B",
".  c #260301",
"X  c #34170F",
"o  c #092811",
"O  c #332C17",
"+  c #39271A",
"@  c #0F0D21",
"#  c #391826",
"$  c #35142F",
"%  c #122C26",
"&  c #3A2A27",
"*  c #302B2C",
"=  c #383726",
"-  c #3C3424",
";  c #4D0A0D",
":  c #461A17",
">  c #571B19",
",  c #6D1816",
"<  c #542C0E",
"1  c #48261A",
"2  c #562819",
"3  c #5A3319",
"4  c #6F2B07",
"5  c #672819",
"6  c #782A1B",
"7  c #6A351A",
"8  c #77361B",
"9  c #54082A",
"0  c #481927",
"q  c #581A27",
"w  c #481634",
"e  c #551835",
"r  c #65102E",
"t  c #6B1C29",
"y  c #492826",
"u  c #582827",
"i  c #53232B",
"p  c #532C2B",
"a  c #4C3224",
"s  c #463828",
"d  c #533425",
"f  c #583729",
"g  c #5C3C2A",
"h  c #4A2837",
"j  c #572836",
"k  c #5B2C33",
"l  c #4A3538",
"z  c #573737",
"x  c #5C3332",
"c  c #662626",
"v  c #6D2C24",
"b  c #642B2C",
"n  c #6C2B2B",
"m  c #772927",
"M  c #742D2B",
"N  c #6B3B25",
"B  c #683628",
"V  c #6B332C",
"C  c #623D2C",
"Z  c #773726",
"A  c #743C24",
"S  c #74332C",
"D  c #7B342C",
"F  c #7B3C2B",
"G  c #662A36",
"H  c #6B2C32",
"J  c #772C35",
"K  c #6C3433",
"L  c #6C3B34",
"P  c #663738",
"I  c #743333",
"U  c #7B3433",
"Y  c #743B33",
"T  c #7C3B35",
"R  c #76343B",
"E  c #743B3C",
"W  c #7B3B3A",
"Q  c #2F452D",
"!  c #3B422A",
"~  c #634E1E",
"^  c #6D4B18",
"/  c #7B461D",
"(  c #43432D",
")  c #47462D",
"_  c #59422A",
"`  c #484A33",
"'  c #5A4637",
"]  c #4B5134",
"[  c #505236",
"{  c #56593B",
"}  c #6B4427",
"|  c #64422E",
" . c #794727",
".. c #7C432B",
"X. c #76532E",
"o. c #654231",
"O. c #6A4533",
"+. c #684839",
"@. c #784737",
"#. c #7C4434",
"$. c #67533C",
"%. c #2B2546",
"&. c #4E1842",
"*. c #4F2A48",
"=. c #593446",
"-. c #6D2A45",
";. c #693A45",
":. c #773844",
">. c #565841",
",. c #7A4746",
"<. c #6A5845",
"1. c #6F544F",
"2. c #775649",
"3. c #5E6242",
"4. c #676948",
"5. c #77654C",
"6. c #7A6958",
"7. c #6C7854",
"8. c #777956",
"9. c #8D330B",
"0. c #872919",
"q. c #88381B",
"w. c #973B1B",
"e. c #8D1B25",
"r. c #852C27",
"t. c #982D2F",
"y. c #8C3523",
"u. c #843C24",
"i. c #873628",
"p. c #843B2C",
"a. c #8C3C2C",
"s. c #953A28",
"d. c #862C35",
"f. c #833533",
"g. c #843C33",
"h. c #8B3C34",
"j. c #8A3738",
"k. c #843C3B",
"l. c #953936",
"z. c #A43C29",
"x. c #A53D36",
"c. c #944F0D",
"v. c #87441B",
"b. c #98471B",
"n. c #98541B",
"m. c #AB4C14",
"M. c #A6581A",
"N. c #9A621A",
"B. c #B36A1D",
"V. c #884823",
"C. c #84432C",
"Z. c #8C432B",
"A. c #844B2B",
"S. c #8C4B2C",
"D. c #944324",
"F. c #9A4727",
"G. c #94442C",
"H. c #924B2C",
"J. c #9A4A2C",
"K. c #8A542A",
"L. c #995627",
"P. c #95542C",
"I. c #9B542A",
"U. c #844433",
"Y. c #8B4434",
"T. c #844C33",
"R. c #8B4C34",
"E. c #82463B",
"W. c #8B433B",
"Q. c #824B3C",
"!. c #8B4B3A",
"~. c #944434",
"^. c #9B4434",
"/. c #934B34",
"(. c #9C4B33",
"). c #97453A",
"_. c #924B3B",
"`. c #9C4C3B",
"'. c #885437",
"]. c #8C533B",
"[. c #945433",
"{. c #9B5433",
"}. c #975A37",
"|. c #93533B",
" X c #9B533C",
".X c #A64A29",
"XX c #A65728",
"oX c #AB532C",
"OX c #B65929",
"+X c #A74A35",
"@X c #A34C3B",
"#X c #B44D36",
"$X c #A45333",
"%X c #A95737",
"&X c #A4533B",
"*X c #A35C3B",
"=X c #B85936",
"-X c #B35C3B",
";X c #9C632A",
":X c #876236",
">X c #9D6436",
",X c #AB6728",
"<X c #B6672A",
"1X c #B97328",
"2X c #AB6433",
"3X c #A86638",
"4X c #AC633C",
"5X c #B36433",
"6X c #BA6837",
"7X c #B4643A",
"8X c #B46B3C",
"9X c #AB7130",
"0X c #BA7438",
"qX c #C45B28",
"wX c #C35C38",
"eX c #C7762B",
"rX c #CD6F30",
"tX c #C66838",
"yX c #C77838",
"uX c #873B44",
"iX c #8E3648",
"pX c #894746",
"aX c #974A44",
"sX c #8A5445",
"dX c #995746",
"fX c #8B4955",
"gX c #A54B43",
"hX c #A75844",
"jX c #B55848",
"kX c #AF5856",
"lX c #986646",
"zX c #846955",
"xX c #857758",
"cX c #947051",
"vX c #A86643",
"bX c #B36C45",
"nX c #B86845",
"mX c #BB7447",
"MX c #B0714E",
"NX c #8D7B68",
"BX c #977C63",
"VX c #C85E4D",
"CX c #C56A46",
"ZX c #C37444",
"AX c #C87748",
"SX c #CF724D",
"DX c #CB8039",
"FX c #83805B",
"GX c #9C836A",
"HX c #968574",
"JX c #A58B70",
"KX c #A88C73",
"LX c #B5977A",
"PX c #CA8143",
"IX c #B99D82",
"UX c #C1A184",
/* pixels */
"4 2 H I D r.6 Z Y Q.}.}.[.D.q.0.s.(.G.%X0XeX6XM.c.4 5 c S m Z Z 7 #.].dX}.H.q.9.w.G.s.$X8XyXyX6Xb.4 4 6 m S S b c D R. X3X}.V.9.",
"2 q e j m Z F ..#.#.#.A.A.P.I.J.a.f.p.I.<X0X,XJ.D q 0 0 b J r.p.....A.T.T.S.L.L.G.V.M S.2X0X9X3XU.c t > u b R R f.h.Y.R.T.K.V.D.",
"l h $ # u S U.'.'. .3 2  .[.6X2XY.t n D.<X<XF.J G j & # i J k.Y./.V.8 3 d  .2X2XP.Y 0 N ;X,Xn. .-.e j 0 # q :.pXaXx.h.6 < 7 P.4X",
";.P P V L W !.|.[.X.y # o.}.ZX0X{.v v v.M.XXD r -.;.P | Y W W._.[.K.7 & * X.8XyX3XV.d 7 n.;Xv.B j =.L A B E :.fXkXgXh.m @ g *X8X",
"!.}.9X2XdXaXiX~.H.T.1.=.,.dXZXyXB.B.n.I..Xz.r.J J W.2X,X*X`.W.g.S.'.@.=.*.,.bXyXeXB.M.m.L.F.8 6 b U..X,X2XhXpX,.h.^._.uX-.:.kXnX",
"4X8X1X1XhXl.d.a.G.E.;.*.=.pX6XrXeX1XB.M.s.t.r.i.).7XyX1X5X_.g.I A.'.@.;.*.;. XtXeXeXB.M.J.G.r.8 V.I.eXyXyX4XpXK f.Y.W.pX*.;.aXgX",
"AXAXeX9XH.J r.p.V.F k $ w H s.qXyXyX,XI.s.l.r.^.jXCXyXyXXXu.n S C.#.L h $ e r.M.eXyX1X,X(.g.f.a..X5XyXyX6XL.K b D U.f.H &.e J q.",
"AXmX9XN.N r r I A N p i e m 0.XX8XbXL.C.#.W.^.oXtXZX0X9X/ 5 q b Y L b p i t , s.-X8X2XP.@.uXW.+X=XeXZX0XP.N d i I Y M u h c 6 0.",
"bX3XX._ y # i p g | +.Q.|._.a.l.aXsXV f +.sX$X=XwX5X:X$.d q q j b L O.@.'./.h.l.aXsXO.| P ,.sXjXwXqX3X'.o.* * l G H V Y X.K.D.b.",
"$XS.^ 1 x k i > f X.:XvXvX Xk.R :.:.e & ( +.*X-XwXoX} - f b G c i L '.lXvX3X).j.:.:.z y l ;.fXhXwXOXH.K l l z z i u ..[.3X,XL.s.",
"G.p.6 0.^.s.e.; m {.mXAXbX}.L H R E b y O 3 T. X&X^.6 4 R.Z.Z 5 ; ..vXAXAXvXR.n R R J t y y Y `.hX+Xr.6 Z C.#.N ; 5 [.bXPXyXL.8 ",
"i.r.y.z.=X=Xz.w.s.%XZXmX>XX.d x W aXpXE d O g ..Y.a.r.s.oX%XoXD.0.D.nXAXnX}.N y I pXgXj.v 1 u S W.l.0.q.F.$X*X|.Z A 3X0XyX6Xv.< ",
"f.j.x.#XtXrXwXwX#X#X5X2X .3 O g !.hXkXhX..X + u K g.l.+X=XtXtX-X.XOXOX=XI.V.< y Y gXVXjX).v : > M d.y.F.oX7XmXbX*X{.2X5X<XXX8 ; ",
"p.l.gXjXCXyXSXtXwX#XoXV.8 1 & K +XjXSXnX!.2 : : b g.@X#XjXmXAXCXwXOXoXF.V.5 : q U.&XSXCX&XD > ; q Z G.$X%XbXAXCXbX4X%XM.b.0.5 : ",
"E.aXjXjX4X4XmXCX=XOX{.[.Q.@.j m m.qXqXqXx.J K b V g.@XhX}.vXMXMXnXvX&X!.E.T t t s.oXqXrXoXs.r.m v F K.;X>X4XkXnXmX7XXXI.$X~.S b ",
"dXdXhXhXH.[.4XnXoXJ.S.T.].sXW h.z.qXm.m.l.d.J E E @.lXlXlXxXcXBXcXcXcX5.6.2.@.U ^.m.m.m.s.i.f.J U !.:X;X;X}.gXhXvX*XH.q.G.).k.W ",
"dXdX%XM.q.q././.g.Z A ..!.|.aX&X%X.Xb.y.m J J :.@.5.xXxX8.FXFXFXFXFXxX8.8.8.5.Q.`..XF.b.S G R :.pXaX X{.P.G.a.h._.!.S 6 u.Z./.`.",
"dX X.Xc.9.q.m M k i 2 4 Z.`.gXgX@X).U c u k P ,.zX5.8.8.8.8.7.7.7.7.8.8.8.8.5.zXsX_.U.n i h z :.pXaX+X$XF.w.q.D :.-.j i 6 q.H.$X",
"g.G.L.XXb.y.p.R P z : 4 8 G.@X@Xh.U K u 0 p ' 4.6.8.8.4.4.4.4.3.3.3.4.3.4.7.7.4.5.+.C k h l h k H D ~.(.+XG.u.S :.;.-.e 5 9.D.$X",
"v Z S.S.V.u.F U E G 1 2 7 a.^.^.g.b p p p ' <.4.7.7.4.3.{ { { [ [ [ [ { { { 4.4.4.{ z i b K E U v 6 i.p.Z.C...@.:.:.-.-.2 7 u.~.",
"v n G x N } ..C.k.J p s d V j.k.Y P p d z { 4.4.4.{ [ ] ] ` ) ` ` ) ` ` ] [ { { 3.{ ` f m s.@X(.G.8 3 u f _ ' X.iXiXiXH a 3 L W ",
"D H *.h L  .A.U.j.d.K f g L j.l.E.O.g d _ <.4.4.[ ( ! ( ! ( ! ! ! ) ) ! ( ) ) ] { { ] f 6 z.=XCX%Xv.7 y a ' $.@.uXiXd.J 3 _ E uX",
"D.g.:.,.sXdX|.C.D M F ..Y.~.gXgX XT.8 7 ` [ [ [ ( = = = s s s s s s - - = = = ) [ [ ! ) 7 s.CXtXtX,Xu.I @.sXsXsX:.d.d.p./ A.!.aX",
"b.S.@.@.dX X~.D S Y R.{.(.+X+X#X$XI.v.7 ) ! ( ( = - s s f f g g d d a a a s s ( ) ) Q ! N J.CXSXtXXXG.g.pXdX|.T.I M p./.I.J.`.gX",
"c.v...E.W.a.6 5 S T.hX-XoXz.z.z..XXXV./ s % Q - 1 d _ o.+.O.O.| ' | } | | | _ d s * o s X.4XAXAXOXm.s.r.h.h.p.8 5 Z |.*X5XXXF.y.",
"5 7 v B m m m M Y R. X$X.Xw.s.s.G.S.S. ._ = O - a _ o.+.O.+.O.O.O.O.+.O.+.O.o.g s O @ ) }.0XZX8XJ.m m m m M v v v A R.$X$X.Xb.9.",
"k i : : c R W.W.C.C.Z 8 a.H.%X{.W k L O. .~ a + g | o.} } | | | O.O.O.+.O.O.o._ d + @ g ;X9X3X|.;.w e w 9 e P E @.T.../ 8 / K.L.",
"j k 2 u K k.pX|.H.V.2 q @. XnX7X@.j L X.X./ a y g | | C g g | } o.O.O.O.o.o.o.C f 1 @ } ;X,XK.L *.%.j k u x ,.,.dXR.8 5 : N [.3X",
"R U.'.[._.pXW.Y.[.T.P z ,.hXSXAX3XA.V.V.K. .d a f C C C g C C C | | | | o.o.C f a a a  .L.XXq.n -.;.#.S.K.!.,.pX_.(.Z.F e E lXmX",
"dX*X8XbX&X_.h.a.K.T.<.*.;.aXrXrX1XB.N.n.v.8 a y d g _ g _ g g C g C C | | _ g f 1 a 3 V.L.b.6 v R pX2X5X,XXXY.h.G.F.J.g.j ;.aX-X",
"4X8XZX0X Xh.r.Z v. .z h h T OXrXeXeXB.n. .c 1 - d g g g g g g g g g g g g g g d y a 3 V.D.D.0.D ~.4XyXeX1Xn.V.r.0.b.s.g.$ j T F.",
"ZXZXyX2XS.Z v 8 / } l $ w t w.OXyXyX,XL.Z u 1 + 1 d 3 a d f f f f f f d d a 1 a + 1 3 8 Z.s.s.s.oX0XDXeXB.v.Z , r.y.i.D h q m 0.",
"CXtXL.} 2 : 2 _ _ _ s f I f.t.x.kXkXpXW O.z z + . .   . : < f g g g d 1 . .     + & O 2 F G..X#XwXtX8X>X} s & h P G V c 3 7 u.s.",
"wXoXu.1 u 1 1 1 ) +.X.'. X`.f.iX,.iX-.j x P ' <.<.<.' f 1 X : 1 : 1 1 1 a _ +.+.<.' + X 5 S.+X=XwXqXlXX.z * * h h j | #.[.P.G.s.",
"#Xs.6 5 F A 2 : f '.MXmXbXhXg.J -.:.r 0 q f +.zXGXJXGXzX$.s X . . . X s <.zXGXGXBX,.q ; : B T.&X#XoXa.Z V O.+._ 0 u R.3XmXbX Xi.",
"r.r.6 q.[.L.A 4 / P.mXAXbX{.I c R uXY c > i P zXKXLXLXKXFX5.<.$.' ' <.6.GXJXLXKXBXsXj.J i y C Y.@Xx.e.e.Z.[.[.X.5 8 %XmXAXMX_.m ",
"j.f.y.F.5X5XXXF.F.XX<X<XL.7 2 B W.hXhXsXV : : P zXBXLXLXUXLXLXLXBXBXLXLXLXLXGXxXsXpXkXkX<.* * p f.l.t.t.x.OX9XB.c.m.OX6X2XL.7 > ",
"uXj.(.oX8X0XmX7XXXOXOXXXq.5 : b /.-XnXhXh.q ; : B zXBXLXLXLXLXLXLXKXLXLXLXGX5.+.T gXVXkXsXl * # t d.t.x.#XwX0X9X,XOXqX=X*XA.b ; ",
"U./.%X7XbXMXAXAX=XOXoXP.g.I e M b.OXtX=Xl.J 5 : ; 1 o.<.5.GXGXGXJXGXFXxX5.' = : m +XwXCXhXE c > > D x.jXjXMXMX0X0X<XOX@XfXpXG 9 ",
"_.{.-X7XlXvXMXnX=XoXJ._.aXiXJ j..XOXqXOXz.d.D b d + o o ! 3.5.xXxXxX4.] o o o p h.#XqXOX+XW D B Z p.gXjXjXvX:XcX8X6X$X).fXfXiX-.",
"dX&X+X.XV.S. X{.G.a.Z.S.pXaXuXaX$XoXm.b.d.d.J ,.6.6.>.` ` >.4.7.5.4.3.[ ! ! 4.zXdX@Xm.m.y.I I T W._.hX#X@XS.X.K.}.$Xa.U ,.pXpXiX",
"hX@X.X.Xq.q.p.f.I H v F /.aXgXgX&X(.V.8 v c n 2.NXHX6.>.] ] { >.{ { { ] = 4.HXHXBX^.b.9.7 p K k.).gXgX@XG.v.8 / T.U.m c E E.@X@X",
").@X+X.Xz.s.f.R =.*.q 4 V.+X&X&X/...B p y : X 2.LXIXNX<.= - ( ` ` ) ) = X 6.IXIXBXC.6 5 1 & p n d.l.@X@X+XJ.v.8 Y P j u 3 v..XoX",
"i.~.^.(.w.q.f.E =.l y 2 8 a.@X`.W.G z p x u 2 ,.GXHX6.' & & - s = s s - % 1.KXIXcXF 5 c p f b M r.r.h.~.`.H.u.i.R G G i 2 4 q..X",
"v S S Y 8 8 8 ..L P p 2 c I k.uX:.G j G Y Y.U.Y.Q.$.' - - - - = = = ( s = ) <.2.,.H b c K E R.G.q.6 M K P S D p.k.uXJ G u c 8 i.",
"6 c k z N  . ...O.L K k b K W uX:.-.G M h.`.hX$X6 ; . % = s = O = = ! Q = O ; q R R H m D W.*X%XF.q.u h *.;.E k.k.j.U M b G I S ",
"y.D K ;.'.].}.T.Y B b H W pXaXfXpXpXb t r.(.nXnX$X .2 % % % * = & O % @ % p @.fXfXpXU t , i.jXnX5XL.I k ;.fXsXdX_.f.U M K W pXaX",
"D.a.W uX!.].'.@.L E E.!.R.~.`.&X@X(.y.q.D.-XZXAX5XH.Z y * * * & & & * - a _ Q.dXgX XG.q.y.^.nXyX1X,XU.:.pXsXsX!.T U k.Y.T.R.`.@X",
"b.s.l.j.~.U...K ;.uXdXvX$Xw.m..XM.m.c.m.=X8XAXZX2Xn.Z 5 d & + : 0 x +.4.X.^ A.`.$X.Xm.m.oX=XAXyX,Xc.v.U.W.!.X.^ 5 S aX X$XL.J.G.",
"q.s.t.j.g.D v b ;.pXdX*XI.c.9.m.m.m.m.M.tXAXZX3XL.v.6 6 5 2 2 5 t Y '.X.X.X.V.l..X.Xb..XtXSXSX0X;Xc.u.y.i./ ^ < 5 J _.hX,Xn.b.q.",
"5 > , r G K @.T g.T C.Z.Z.H..Xs.g.F ..%XrXrX-XR.N 2 > > < 5 Z h.t.l.Z. .^ X.pXaXiXk.H H.6XtXtX%X..u 2 > 2 < 3 } p.l.s.Z./ V.A.R.",
"q q > q G R ,.Q.S.V.N B #. XhXgX@.k V {.tXrX(.V y 1 : < 3 N g.^.x.x.q.^ ^ :XkXkXfX:.h ..5XrXXXG.b w 0 2 2 < ~ ..).x.t.r.7 } ].dX",
"L K v Z E W pXR.L.V.7 k @.hXAXMXsXk V H.XXOXi.q j f g ^ B @.W.l.#Xz.t.m p sXkXSXkXpXh } L.<Xb.m t j V B N N O.E.@Xx.l.r.0 +.dXMX",
"sX[.L.I.Y.W.Y./.L.K.b l ,.dXSXSX8X[.K.v.b.w.6 c W !.K.;X'.pXj.iXx..Xa.K *.,.MXSXCX*XK./ V.n.4 6 J uX+X#X$X/.@.pX^..X+Xj.e ;.lXMX",
"4X8XyX1XoXs.y.q.v. .=.*.=.!.bXyXeXeX,Xn.c.0.6 d.aXhX0X1X4XaXiXj.s.D.#.=.%.>.oXrXDXeXB.N.n./ 7 5 g.@XtXrXtXjXuXW h.s.~.uX*.-.aX$X",
"mXyXyX1XI.q.0.8 / } z *.w S .XqXyXyX,Xn.v.8 r.^.jXmXAXDX*X_.d.J q.u.L z * p w.qXeXDX1X;XV.} 8 C.+XnXSXSXCX@XuX-.D v.p.uX*.&.U w.",
"SXAX8XK.4 , v S O.V i 9 9 , 9.OXbXbX[. . .S.D.%XnXSXmXvX..q e H F A 5 0 0 > 4 w.4XbXvX'.X...V..X=XCXSXmX[.B e e B 8 A B # 0 m 0.",
"SXnX'.f + # y f P L Y g.i.y.e.l.dXsX| C  .K.{.=XnXnXvXQ.u # 0 p B A A F #.C.0.s.aXdX,.;.o. .H.=XwXwXbXlXo.# $ h u N 7 } }  .u.y.",
"$X^.A a C x y 0 k E.hXnXjX@Xs.r.W L y 1 g R.$X-X=X+XU.V b x z j > N R.4XbX4XD.r.W :.G h p 7 [.-XwX#XR.} f l =.z i 2  .}.MXbX{.s.",
"s.Z u f sXQ.b > B _.nXSXCX-Xi.m S L 2 1 d O.|.$X$Xa.6 c @.@.+.g > A 3XmXAXbXR.v I P G i u B T.@X@X+X6 3 } @.@.+.u 3 S.3XPXmX%Xi.",
"g.Y N U.hX&XG.0.w.XXtXtXOXD.c V #.'.'.| h w K W./.g., 8 }.>XK./ 4 v.,XyX<XL.N p +.pX'.U.b 0 p :.pXpXn 6 v.,X;XL.8 8 XX0XyX<Xb., ",
"T #.T.{.nXnX-XoXM.OXqX<X.X6 0 K R.%X3X!.G 9 i I T g.a.G.2X9X,X,XL.XX<X<XXXV.u y @.dX*X*X#.e 0 j :.,.d.s.XX,X,X,XL.P.2X<XOX.X0.r ",
"T R.}.7X6XCXCXmX2XXX2XL.p.c w I `.-X6X%Xk.r > > n h.@X-X5X<X0XyX6X2X%X$X/.D q q k.#X6XjX_.K t q c U ).$XOX<XyX0X8X4X*XXX{.~.H r ",
"p.H.2X8XnXAXAXAX8X3X[.#.L k e J @X=XCXjX).H > ; , j.hXnX5X9XDXAXZX7X&X~.k.R e t l.#XwXtX@XW m ; ; 6 &X-X=X5XyXPXAXmX3XS.'.@.-.e "
};
