/* XPM */
static char *front1727179828[] = {
/* columns rows colors chars-per-pixel */
"64 64 256 2 ",
"   c #0D090A",
".  c #2F0E0D",
"X  c #38140B",
"o  c #3A1B18",
"O  c #2C2715",
"+  c #39271A",
"@  c #0B1522",
"#  c #38162C",
"$  c #0B3124",
"%  c #2A2928",
"&  c #392927",
"*  c #393729",
"=  c #363233",
"-  c #500E07",
";  c #490515",
":  c #451A17",
">  c #561B18",
",  c #6D1816",
"<  c #562A0B",
"1  c #49261B",
"2  c #572819",
"3  c #59341A",
"4  c #6F2B07",
"5  c #672919",
"6  c #782A1B",
"7  c #6A351A",
"8  c #75371A",
"9  c #7A341C",
"0  c #54082B",
"q  c #481927",
"w  c #581A27",
"e  c #481634",
"r  c #551835",
"t  c #66132F",
"y  c #6A1C29",
"u  c #492727",
"i  c #562827",
"p  c #53232B",
"a  c #5B2B2B",
"s  c #463829",
"d  c #58362A",
"f  c #4A2837",
"g  c #562836",
"h  c #5B2C33",
"j  c #483734",
"k  c #593536",
"l  c #672726",
"z  c #642B2C",
"x  c #6C2C2B",
"c  c #772926",
"v  c #742D2B",
"b  c #683827",
"n  c #6B332D",
"m  c #773825",
"M  c #74332C",
"N  c #7B342C",
"B  c #7B3C2B",
"V  c #662A36",
"C  c #6B2C32",
"Z  c #772C35",
"A  c #6C3433",
"S  c #6C3B33",
"D  c #663738",
"F  c #743333",
"G  c #743B33",
"H  c #7C3B35",
"J  c #783438",
"K  c #743B3C",
"L  c #7B3B3A",
"P  c #3A441B",
"I  c #394824",
"U  c #6C4515",
"Y  c #7C461D",
"T  c #48492A",
"R  c #58452B",
"E  c #51512D",
"W  c #494835",
"Q  c #574635",
"!  c #4A5233",
"~  c #585838",
"^  c #6B4628",
"/  c #794727",
"(  c #7C432B",
")  c #6D5622",
"_  c #684536",
"`  c #784737",
"'  c #7C4434",
"]  c #705433",
"[  c #2B2446",
"{  c #4E1842",
"}  c #4F2A48",
"|  c #593446",
" . c #6E2A45",
".. c #693945",
"X. c #773844",
"o. c #4B5C4F",
"O. c #6D4749",
"+. c #7A4646",
"@. c #675A45",
"#. c #775946",
"$. c #5B6142",
"%. c #666848",
"&. c #77654C",
"*. c #796A54",
"=. c #6C7454",
"-. c #787A58",
";. c #5D6C68",
":. c #777467",
">. c #8D330B",
",. c #872A19",
"<. c #88381B",
"1. c #973A1C",
"2. c #8D1B25",
"3. c #852B27",
"4. c #982D2F",
"5. c #8C3523",
"6. c #843C24",
"7. c #873628",
"8. c #843B2C",
"9. c #8C3D2C",
"0. c #953926",
"q. c #933D2B",
"w. c #862C35",
"e. c #873636",
"r. c #843C33",
"t. c #8B3C34",
"y. c #833C3B",
"u. c #963936",
"i. c #A43C28",
"p. c #A63D37",
"a. c #934F0D",
"s. c #87451B",
"d. c #98461B",
"f. c #99551B",
"g. c #AB4C14",
"h. c #A6581A",
"j. c #9A621A",
"k. c #B56B1D",
"l. c #874926",
"z. c #84432C",
"x. c #8C442B",
"c. c #8C4B2C",
"v. c #944324",
"b. c #9A4727",
"n. c #94452C",
"m. c #924B2C",
"M. c #9B4B2C",
"N. c #8B542B",
"B. c #985628",
"V. c #9B542A",
"C. c #844432",
"Z. c #8B4434",
"A. c #844C33",
"S. c #8B4C34",
"D. c #83453B",
"F. c #8B433B",
"G. c #834B3C",
"H. c #8B4B3A",
"J. c #944434",
"K. c #994437",
"L. c #934B34",
"P. c #9C4C33",
"I. c #924B3B",
"U. c #9C4C3B",
"Y. c #8C533B",
"T. c #885438",
"R. c #945433",
"E. c #9B5533",
"W. c #9B543B",
"Q. c #965838",
"!. c #A64B28",
"~. c #A75629",
"^. c #B65928",
"/. c #A74A35",
"(. c #A34C3B",
"). c #B44D36",
"_. c #A45334",
"`. c #AA5737",
"'. c #A4533B",
"]. c #A35C3B",
"[. c #B85936",
"{. c #B35C3B",
"}. c #9C632A",
"|. c #896930",
" X c #9D6437",
".X c #AA6727",
"XX c #B6672A",
"oX c #B97328",
"OX c #AA6433",
"+X c #A86638",
"@X c #AC633C",
"#X c #B36433",
"$X c #B3643B",
"%X c #B86839",
"&X c #AB7130",
"*X c #BA7438",
"=X c #C35A27",
"-X c #C35C38",
";X c #C7772B",
":X c #CD6F30",
">X c #C66838",
",X c #C77838",
"<X c #873B44",
"1X c #8E3648",
"2X c #894746",
"3X c #974A44",
"4X c #8C5444",
"5X c #995646",
"6X c #8B4955",
"7X c #A54B43",
"8X c #A85744",
"9X c #A45C43",
"0X c #B55848",
"qX c #AF5856",
"wX c #976546",
"eX c #8F6E53",
"rX c #867759",
"tX c #A86744",
"yX c #B36B45",
"uX c #B86845",
"iX c #BB7447",
"pX c #B0714E",
"aX c #887563",
"sX c #927D63",
"dX c #C65D58",
"fX c #C66946",
"gX c #C47344",
"hX c #C87748",
"jX c #CF724D",
"kX c #CA8039",
"lX c #998166",
"zX c #898473",
"xX c #978674",
"cX c #A28A71",
"vX c #AC9477",
"bX c #B49A7C",
"nX c #CA8143",
"mX c #939993",
"MX c #AB9C87",
"NX c #BBA286",
"BX c #B0A899",
"VX c #97A2A0",
"CX c #ABACA4",
"ZX c #C5A888",
"AX c #CBB090",
"SX c #C6B39C",
"DX c #DAB895",
"FX c #E2BF9B",
"GX c #C5B5A0",
"HX c #E4C29D",
"JX c #EBC69F",
"KX c #ECC6A1",
"LX c #EDC8A3",
"PX c #F2CBA5",
"IX c #F5CFA8",
"UX c #F9D2AA",
/* pixels */
"4 2 C A N 9 6 m G G.Q.Q.R.v.<.,.q.M.n.`.*X,XXX~.a.4 > l v v c 6 m ` Y.5XW.m.<.>.1.n.q._.%X,X,X%Xf.4 4 6 m M v C y M H.W.+XR.l.>.",
"2 w r g c N 6.H ` ` ( l.N.c.~.M.9.w.8.V.XX;X#Xm.N l u q z v 8.8.( / ' A.A.N.b.f.m.8.v z.OX*X&X~.C.l y > w z K J e.t.Z.A.A.N.l.v.",
"k f # e i M C.T.T./ d 3 / R.#X+XZ.y l l..XXXn.F  .f # & p F y.F.m.l.^ 3 d / &X#XB.( q b }.&XB.( V r p q : r X.6X3X7Xq.6 < U B.@X",
"..D k b G L G.Q.R./ 1 # _ Q.gX*XB.l m l.~.h.3.t { ..S b G y.F.I.E.l.7 1 % ] yX,XOXN.i 8 f.j.s.b } | S G b D X.6X7X7Xu.c @ D W.%X",
"H.Q.&X&X5X3X1XJ.m.G.O.| O.5XgX:Xk.j.h.h.!.0.3.v e.L.~..X`.3XF.r.N.T.` ..} +.yX,X;Xk.h.a.f.b.<.6 v z.f.^.@X9X2X+.J.K.I.<X| ..qXyX",
"@X%XoXoX8Xu.w.9.m.G...} | 2X%X:X;XoXk.~.0.4.3.4.U.{.*X;X#XE.r.F l.A.` | } ..E.>X;X;Xk.h.!.9.N c l.V.;X,X,X@XG.G 8.t.F.<X . .2X'.",
"hXiXkX.Xm.w.3.8.x.B h # e C !.^.,X,X.XB.K.u.5.q.{.gX,X,X~.6.x x ( ' S f # w 3.~.:X,X;X.XR.e.N 9.!.XX,X,X%XB.G z M r.r.C { r Z 5.",
"hXiX&Xj.b 0 t F / 7 a f w c ,.!.%XyXB.z.' F.J.).fXgX*X&XY 5 w z G S D p p y , 0.@X+X.XR.G.X.F.E.[.>X,XiXB.b u i A H x l f l 6 ,.",
"yX+X) 3 u q e p d ^ _ ` T.L.9.u.3X4Xn d _ 4X_.[.-X$XB.~ d e w g z D _ ` T.S.u.u.3X4X` d D O.5X0X-X=X@XT.R = = f V x n G / N.l.1.",
"_.B.^ 1 k z p : d ] wXtXtXW.r.X.X.X.r & j ] ].{.[.~.^ s d z z z p S T.+X+XtXK.e.X...k f j D 6X0X-X^.L.b j j k k p a ( R.&X+X~.v.",
"n.8.6 9 n.q.,., c E.iXhXpXQ.S C J X.V u O R A.W.'.K.6 4 x.c.7.5 ; ( tXiXhXtXZ.n J J J y q u G I.8X/.5.6 N z.' b ; 5 R.yXnX*XB.9 ",
"7.3.4.i.[.[.i.,.0.`.gXiX X/ d k L I.2X' 3 O d / F.9.3.5.~.[.!.v.>.n.uXhX%X Xb u G y.7XF.v 1 3 b F.u.,.,.b._.].R.m Y ].*X,X%Xs.< ",
"7.e.p.).>X:X-X=X).).#XOXY 3 + d F.8XpX8X/ X + i M r.u./.[.>X%X$X!.^.^.[.B.Y 2 u H 3XdX0XK.7 > > x 7.7.0.~.$XiXpX+XV.OX&XXXh.8 - ",
"r.u.7X0XfX,XjXjX[.).~.v.U 2 & S (.-XdXuXH.2 : : z C.(.).{.fXhXfX-X).~.b.7.7 : 2 t.8XjXjX'.N > ; w N m._.`.uXhXfXyX@X`.~.d.<.5 : ",
"G.3XqX0X@X+XiXfX>X!.E.R.G.G p v i.=X=X=X/.Z C z n r.U.8X+XwXpXiXuX@XW.A.G.J y y 0.^.=X=X!.q.3.c l m N.}. X+XqXuXuXyX~.b.M.K.Z V ",
"4X5X8X{.m.R.@XuX_.!.c.T.Y.4XX.t.g.=Xg.!.4.Z Z K G +.wXwXeXeXrXlXeXwXeXeXeX#.X.N b.!.g.g.b.3.w.J H A. X X}.E.5X9X0X].m.<.M.J.y.L ",
"5X5X`.~.<.s.m.L.C.m m / S.W.3X(.`.!.b.<.3.C Z X.#.4X-.lX-.-.-.-.lX-.-.-.-.*.#.H.U.!.b.v.v V D X.2X3XE.E.V.v.9.t.3XG.F 6 6.x.J.I.",
"5XW.h.a.>.,.c Z h p 2 5 x.P.7X7X'.K.B l w p D #.&.&.-.-.-.=.=.=.=.-.-.-.-.-.*.&.4XI.z.n p f k X.2X3X(._.b.0.<.N J ..r w 6 s.M._.",
"r.x.B.~.d.0.7.A k k > < 9 M./.(.t.F A p q u O.%.-.-.=.=.=.%.%.%.$.$.%.%.%.=.%.=.#.] A a g j f k A N J.P./.n.6.B X. .| V 5 >.v._.",
"c m c.c.l.6.N L K V 2 2 7 8.K.K.r.z a p u R @.=.-.%.%.~ ~ E ! E T ! ! E ~ $.%.%.$.$.d p C A L F v 6 3.8.x.z.( H X.X. . .2 7 6.n.",
"l C V D b ^ / 8.r.Z a s d n e.e.G D d d Q ~ &.%.%.~ ~ ! T P P P P P P P T E ~ $.$.! j a c q.(./.x.8 3 i d d ^ _ 1X1X1XC s 3 S y.",
"N C g f S / A.z.e.w.D d k G e.u.D._ d d Q @.%.%.! T T T T E ~ ~ ~ ~ ! E T T E ~ $.~ ! d ,.i.[.uX`.s.7 u s Q ~ #.1X1Xw.Z 3 d K <X",
"n.8.X.O.4X5XR.C.N v B ( z.L.7X7XU.S.7 3 E ~ $.~ T P T ~ &.rXsXsXlXlXrX&.$.E P E ~ $.! s 7 0.fX>X>X~.z.F G.4X4X4XX.Z w.B Y c.H.3X",
"d.c.' ` 5XW.L.N M H S.E.P./.7X)._.B.<.^ E ! E E E ] rXlXvXbXNXZXbXbXbXvXcXeX%.E ~ E ! T B M.gXjX:X~.v.r.F.5XY.A.N v r.n.V.V.(.3X",
"a.s.( D.Z.9.c 5 M D.9X{.).i.0.!.!.~.s./ ~ E P E @.lXNXDXFXHXJXJXIXPXHXFXDXbXlX$.T P I E Q.$XhXgX^.d.5.7.9.Z.x.9 5 m S.].#X~.b.5.",
"5 7 b n v c c c B A.W._.!.1.1.0.n.c./ ] E T O E sXZXHXIXIXIXIXIXUXUXUXUXUXJXNXrXW O $ ~  XiXhX%XV.3.c c c c c l b B R.]._.!.d.>.",
"g w : : l J F.H.z.z.m 9 x.M.`.(.' z h d d +   @.bXFXIXUXPXPXPXPXPXPXLXPXUXIXFXvX@.  @ ^ }.&XOXY...{ r 0 0 p D X.D.A.z.8 9 Y N.B.",
"h a i 2 A <X2XI.R.s.2 w G W.yXtXG.f k u u X   *.ZXJXPXIXPXJXLXJXKXJXJXPXIXIXJXbX&.    b }..XN.G { [ g g g k O.+.Y.S.9 5 : b R.+X",
"K D.A.W.H.2XF.Z.R.A.S ..+.9XjX,X@X/ Y 7 < + Q rXNXDXDXHXLXPXPXJXKXPXPXPXJXDXAXbX*.s o 7 f.B.<.x  ...' Z.c.S.2XD.I.P.x.B g K 9XyX",
"I.].yX*X9XJ.r.x.N.A.D | ..3X:X:X;X.Xf.U - s &.xXZXNXbXbXDXHXLXLXPXKXHXDXZXbXbXbXlX#.* < 8 v.8 c J Y.OX.X&XV.Z.r.q.b.M.r.f ..5X$X",
"yX%XgX*XW.t.3.6.s./ k [ f H ^.:X;X;XoXa.< s lXbXZXMX:.*.cXAXHXLXLXHXAXbX-.:.MXNXvXaXs - <.n.,.m L.@X,X;XoXf.z.3.<.1.q.B f r N M.",
"gXgX,X+Xc.c l 8 U b k = e y 1.^.;XkX&Xs.- R lXNXGXBX;.o.zXNXHXIXIXFXAXzXo.;.MXBXNXsXT - N J.0.v.).%XkXkX.Xa.9 , 3.5.7.v f w c ,.",
">X>XE.7 2 : 3 d R R s d v e.4.1X5XqX4XA q _ eXNXGXCXVXmXmXSXJXUXUXPXSXBXmXVXCXGXMXrXs X 6 P./.).=X>X*X X] u & f h A z d 7 8 5.5.",
"-X`.6.1 1 1 1 1 T _ ] T.W.U.q.1X1X6X .g q k #.sXNXCXCXCXCXSXFXJXJXFXGXBXVXVXBXBXlX#.1 X 7 z./.[.-X-XQ.] j & = f f g S ' N.R.n.0.",
").0.6 5 B m 2 : d T.pXiXyX].e.Z  .X.t 0 w u i ] aXmXmXBXSXAXAXAXZXZXAXNXMXmXxXaX@.b y ; > b S.'.[.).q.m b _ _ d q i R.+XpXyXW.7.",
"w.3.6 s.V.R./ 4 8 B.iXhXyXW.M z J <XN n a 1 . X d #.sXcXMXvXvXcXlXcXvXvXxX:.@.3 : y e.Z p & b D.(.u.2.2.x.R.T.N.5 9 _.iXnXyXI.v ",
"e.e.5.b.#X#X~.b.b.~.XXXXB.7 2 b F.9X9X3XS # X o 1 d ~ #.#.#.] ] _ ] #.#.] Q s u A 2XqXqXO.= % h w.u.4.4.p.^.&X&Xa.g.^.%X#XB.8 > ",
"y.t.P.~.%XiXiX$X^.^..X~.<.5 : x L.{.uX9Xe.w > : X . X : o o : X X X : : : X   o J 7XdXdX4Xj % o z w.4.p.).[.&X&XXX^.^.[.].C.a ; ",
"D.L.`.%XtXpXiXgX>X^.~.M.C.F r v !.^.>X[.K.c 5 > .     . . % o & + o o O O O   . N /.-XfX5X+.a > > N p.0X0XpXpXnX*XXX^./.6X6XV 0 ",
"J._.`.$XtXtXpXuX[.!.M.I.K.1X .w.!.^.^.^.i.w.v n k W I * * = * * * j = * * * = z t.).=X^.P.y.m x 9 8.7X0X0XtX|.wX%X%X_.J.6X6X<XZ ",
"5X'._.!.v.z.W.W.L.9.6.c.I.3X3X3X_.~.h.1.5.Z v +.aXaX;.= I = * = = * = * * o.@.eX4X/.^.d.6.F F r.t.U.8X'.(.c.] N.Q._.8.N 2X6X2Xu.",
"8X'.!.b.<.<.8.r.F F x B I.3X3X7X(.V.z.8 x l l 4XsXxX*.O.W * = * % * = I * @.xXcXeX(.1.>.5 a A y.3X(.7X(.b.s.8 Y A.D.v z D F.3X7X",
"U.(./.!.i.5.e.J | j w 4 x.P.'.(.L.' n i u : X O.sXvX*.~ * + & * & + s & % *.NXZXsXz.4 6 1 & p x w.u.(.(./.M.s.9 G D g i 3 s.!.~.",
"7.t.K./.1.5.8.K | } q < 9 x./.U.y.A h d k a 2 K aXaX@.T * + + * * * * 1 o #.MXMXeXm l 2 d d z v 3.3.t.K.L.m.6.7.G V V w 2 4 <.!.",
"c M G G 9 8 9 ( D k d i l F y.<XX.V g V H Z.Z.Z.H D s * * T * * * s * * * R #.eX2XC z z C H S.n.,.6 n A A F N r.y.<XZ z i l m 7.",
"6 l g k b / / / ` S n h z F X.X.X.J V v t.U.8X_.6 - . $ * * T * * * * * * O ; w J L C z F F.8X`.!.<.a f } ..L y.y.e.J Z z z F v ",
"6.N A D G.T.Q.T.G n l A L 2X3X5X2X<XC y c /.uXuX_./ d @ $ % % s + O @ @ O k +.2X6X2XJ c , 7.{.%XXXB.F h ..+.4X5XI.e.Z v A L 2X3X",
"v.9.J 2XY.Q.A.` S K ` H.Z.J.U.7X'.I.5.<.v.`.gXhX$XN.b & % % & & u * s W R ^ G.5X5X(.n.,.5.P.uXgXoX~.C.X.2X4X4XY.H J r.Z.S.S.U.(.",
"d.q.u.u.F.C.B n D +.5X9XE.1.g.!.h.g.a.g.[.fXhXgXOXd.9 l u u + 1 w D ] &.) N.N.K._.!.g.g.).[.hX,X&Xa.s.Z.F.G.] U 7 F F.9XE.B.b.v.",
"<.5.4.w.e.N x x X.2X9XtX~.a.>.g.g.g.g.h.>XgXgX+XB.s.9 5 l 2 3 l y y.wX|.|.) l.q.!.!.d.!.>XjXhX*X}.a.<.7.3./ U < 5 N 3X9X.Xf.d.<.",
"> , y y C S L ' H 8.C.z.x.v.!.q.r.B ( _.:X:X$XS.b 2 > < < 3 m t.4.u.x./ ) ) 3X6X1Xy.x S.%X:X>X`./ i 2 > 2 < U U 8.4.u.x.Y s.A.S.",
"p w > > V K +.G.c.z.7 b ' I.0X5X` h b E.>X>XM.n u u : < 7 n 8.u.p.p.<.U U N.qXqX6XX.f ( XX>X~.n.z e w 1 < 2 R / K./.4.3.7 ^ Y.wX",
"S A b c G L D.H.B.l.7 a ` 5XjXpX4Xh S m.^.^.5.p p k ^ 7 ^ G y.(.p.i.i.l k 2XpXdXqX2Xf ^ ~..Xd.c t g n b m b _ D./.p.u.3.q D wXpX",
"4XQ.V.V.H.F.F.c.B.N.h } +.5XjXjX%XR.N.s.d.1.6 y K S.N.}.Y.2Xu.1X).i.q.A j #.uXjXfX].l.Y s.f.4 6 Z 2X(.).E.S.+.<XK././.e.r ..qXpX",
"@X%X*X;X~.q.5.<.s./ Q } | D.yX,X;X;X.Xf.s.,.c N 3XtX*X*X@X5X1Xe.1.v.H | [ | ^.:XkX;Xk.j.N.Y 7 5 t.'.>X:X>X0X2X<X9.0.J.y.}  .2X_.",
"iX,X,XoX!.<.,.9 Y ^ | f e Z g.:X;X,X.Xf.s.8 ,.K.0XfX,X*X@XF.Z Z <.z.S k [ p 1.k.;XkXoX}.N.8 8 z.(.[.jXjX>X7X<XV N s.9.<X} { v d.",
"jXhX&XB.8 > l M ( b w 0 0 , >.).uXyXR./ / N.b.`.uXjXiX+X( w r z B m 5 q q w 4 g.$XyXtXT.` / l.!.[.fXhXuXQ.z w r n m Y b # 0 5 ,.",
"jXuXY.d 1 : u d D D G r.8.5.2.q.4X4X_ b / N.B.{.fXuXtXG.i # q a n b m m ' z.,.3.3X4X+...^ / m.[.-X>XyXwX_ # # f d 7 7 ^ ^ / 8.5.",
"`.M.b s d d u q h ` 9XuX0X(.0.3.H _ u 1 d A.E.{.{.(.z.n z k j h 1 m R.tXpX@Xv.c y.X.V f i ^ M.{.-X).N.^ s k k | u 2 ^ W.tXpXE.q.",
"0.c l d 2XD.n > x L.iXjXfX{.9.c F n 2 1 d G R.'._.5.6 l ` ` ` d > 8 +XiXhXyXm.v D A V a u b A.(.(.(.6 2 ^ ` ` _ p 5 N.@XnXgX].5.",
"r.G b ( 8X].n.,.1.~.>X:X[.v.l C ' T.N._ f e S D.J.C., 6 Q. XN.Y 4 a.XX*XXXB.m u ` +.T.` D q p X.2X2Xy 6 s..X}.B.7 8 OX>X,XXX1.6 ",
"L ' T.E.$XuX{.!.~.h.>X^.d.9 q n L.]. XH.V 0 p n L r.t.n.OX&X&X.XB.!..XXX~.s.i u ` Q.@X'.H p q g X.2Xw.q.~..X.X&XB.V.OXXXXX!.,.0 ",
"B S.E.$XuXfXgXiX#X~.OXV.8.z r F U.{.$X`.r.t 0 > x t.(.{.OXXX*X*X%X@X`._.L.N w a t.7X>X$XI.A t w l J I.`.^.XX*X*X%X#XOXV.E.J.F 0 ",
"8.L.+X%XuXhXjXhX%X}.R.( S g r Z /.0X>X0XK.C , - 5 t.8XuX#XoXkXhXgXuX'.K.y.Z r y 4.0X-X[.(.L c - - c /.{.[.%X,XnXhXiX].N.T.`  .t "
};
