/* XPM */
static char *right1727179829[] = {
/* columns rows colors chars-per-pixel */
"64 64 255 2 ",
"   c #060401",
".  c #170200",
"X  c #0C1307",
"o  c #30130F",
"O  c #193016",
"+  c #2E2D17",
"@  c #382519",
"#  c #1B0F24",
"$  c #38162C",
"%  c #162B23",
"&  c #282827",
"*  c #382927",
"=  c #342E2E",
"-  c #393825",
";  c #4E0A0D",
":  c #471918",
">  c #581A19",
",  c #651A17",
"<  c #741614",
"1  c #4D2E11",
"2  c #44241C",
"3  c #4A281B",
"4  c #56281A",
"5  c #59341A",
"6  c #6F2B07",
"7  c #672918",
"8  c #772A1B",
"9  c #6A361A",
"0  c #77361B",
"q  c #54082B",
"w  c #481926",
"e  c #571B27",
"r  c #481634",
"t  c #541835",
"y  c #6A1B27",
"u  c #651331",
"i  c #4B2627",
"p  c #442D23",
"a  c #562627",
"s  c #532C2B",
"d  c #5C2B2B",
"f  c #483527",
"g  c #583729",
"h  c #4A2836",
"j  c #572736",
"k  c #5B2C33",
"l  c #483836",
"z  c #583536",
"x  c #682726",
"c  c #642B2C",
"v  c #6C2C2B",
"b  c #772926",
"n  c #742C2B",
"m  c #6C3424",
"M  c #6B332C",
"N  c #673828",
"B  c #743D24",
"V  c #783826",
"C  c #74332C",
"Z  c #7B342C",
"A  c #7B3C2B",
"S  c #672A35",
"D  c #772C34",
"F  c #6C3432",
"G  c #6C3A33",
"H  c #663738",
"J  c #743333",
"K  c #7B3333",
"L  c #743B33",
"P  c #7C3B34",
"I  c #77353B",
"U  c #733B3C",
"Y  c #7B3B3A",
"T  c #3A462B",
"R  c #374831",
"E  c #58431A",
"W  c #684117",
"Q  c #7C461D",
"!  c #47462D",
"~  c #58442B",
"^  c #50532B",
"/  c #494732",
"(  c #574736",
")  c #4C5234",
"_  c #53563A",
"`  c #57573A",
"'  c #6B4528",
"]  c #794727",
"[  c #7C432C",
"{  c #684536",
"}  c #7D4434",
"|  c #784836",
" . c #7C433C",
".. c #705434",
"X. c #2B2546",
"o. c #4E1942",
"O. c #4F2A48",
"+. c #593446",
"@. c #6E2A45",
"#. c #683A45",
"$. c #783944",
"%. c #595543",
"&. c #6D424B",
"*. c #7A4646",
"=. c #675946",
"-. c #795A47",
";. c #5D6242",
":. c #636645",
">. c #6A6849",
",. c #716A4F",
"<. c #776856",
"1. c #7A7A55",
"2. c #7C776A",
"3. c #8D3108",
"4. c #872A18",
"5. c #92211D",
"6. c #88381A",
"7. c #973B1A",
"8. c #862C27",
"9. c #992D2F",
"0. c #863727",
"q. c #8C3523",
"w. c #843B2C",
"e. c #8C3D2C",
"r. c #963926",
"t. c #933D2B",
"y. c #852C35",
"u. c #883636",
"i. c #843B33",
"p. c #8B3C34",
"a. c #843C3A",
"s. c #963A36",
"d. c #A23B25",
"f. c #A43D36",
"g. c #954E0C",
"h. c #87451B",
"j. c #99471B",
"k. c #98561B",
"l. c #AF4E10",
"z. c #A54B1C",
"x. c #A4591B",
"c. c #9A621A",
"v. c #B26A1C",
"b. c #874826",
"n. c #84432D",
"m. c #8C432B",
"M. c #8C4B2C",
"N. c #944323",
"B. c #9A4727",
"V. c #94452C",
"C. c #934B2D",
"Z. c #9A4A2C",
"A. c #8B542B",
"S. c #985629",
"D. c #9B542A",
"F. c #844432",
"G. c #8B4434",
"H. c #854C33",
"J. c #8C4C34",
"K. c #83453B",
"L. c #8B433B",
"P. c #834B3C",
"I. c #8B4B3A",
"U. c #944434",
"Y. c #994537",
"T. c #934B34",
"R. c #9C4C33",
"E. c #924B3B",
"W. c #9C4C3B",
"Q. c #8A5339",
"!. c #945433",
"~. c #9B5533",
"^. c #975A37",
"/. c #93533B",
"(. c #9B533C",
"). c #A64A28",
"_. c #A75629",
"`. c #B65928",
"'. c #A64A35",
"]. c #A34C3B",
"[. c #B44B36",
"{. c #A45433",
"}. c #A4533B",
"|. c #A85838",
" X c #B75A38",
".X c #9B6329",
"XX c #8D6232",
"oX c #9D6436",
"OX c #AA6628",
"+X c #B6672A",
"@X c #B97328",
"#X c #AA6433",
"$X c #A86638",
"%X c #AC633C",
"&X c #B36434",
"*X c #B76839",
"=X c #AB7130",
"-X c #BA7438",
";X c #C45B27",
":X c #C35C38",
">X c #C7762B",
",X c #CD6F31",
"<X c #C66838",
"1X c #C77838",
"2X c #873B44",
"3X c #8E3648",
"4X c #884846",
"5X c #974A45",
"6X c #8A5445",
"7X c #995646",
"8X c #8C4D54",
"9X c #A54B43",
"0X c #A75844",
"qX c #B65947",
"wX c #AE5A54",
"eX c #986646",
"rX c #946C4E",
"tX c #836C57",
"yX c #87745A",
"uX c #A86643",
"iX c #B46C45",
"pX c #B86845",
"aX c #AF714C",
"sX c #BB7447",
"dX c #917A64",
"fX c #A47C6D",
"gX c #C66B46",
"hX c #C37343",
"jX c #C87749",
"kX c #CF724D",
"lX c #7B815C",
"zX c #CB8039",
"xX c #88825D",
"cX c #898A64",
"vX c #998669",
"bX c #94946B",
"nX c #969473",
"mX c #A5896B",
"MX c #A78D75",
"NX c #A9947A",
"BX c #B5997B",
"VX c #C78B56",
"CX c #97938A",
"ZX c #B19D85",
"AX c #BAA285",
"SX c #9EA8A8",
"DX c #B4B6B2",
"FX c #C7A889",
"GX c #C9B197",
"HX c #D7B897",
"JX c #D0BBA4",
"KX c #E2C29D",
"LX c #DDC1A6",
"PX c #F0CCA7",
"IX c #F5D2AB",
/* pixels */
"6 4 v J Z 4.8 V P P.^.^.!.h.6.7.t.Z.V.|.-X1X@X_.3.6 7 d n Z b 8 B [ Q.7X^.C.6.3.r.N.t.{.*X1X1X*Xk.6 < 8 n Z J v x n P.(.$X^.h.3.",
"a e t j n V A [ | | ] b.H.C.Z.B.p.Z e.Z.+X>X#XC.A x w w c n Z w.[ ] F.H.H.M.S.D.M.w.n M.#X-X=X#Xn.x x > e c J $.u.p.G.H.H.A.M.N.",
"z h $ $ a C H.J.Q.| 5 5 ] ^.*X#XG.y x M.OX+XB.D S j * $ a D a.U.!.b.0 5 g ] OX&XS.[ w N .X=XS.] H t s w w w #.4X5X9Xs.8 1 ' S.%X",
"#.H H N J Y P./.!.] i $ N ^.hX-XD.x V h._.x.8.u @.#.H ' I Y 4XI.!.M.' @ & | -X-X#XA.a 9 k.c.h.x o.O.U B N U $.8X9X9Xs.8 # N ^.iX",
"P.^.=X$X(.5X3XU.C.H.&.+.&.7XjX1X@Xx.k.).).r.8.D D L._.=X|.7XL.i.A.Q.| +.O.*.iX1X>Xv.x.x.S.B.6.8 C F._._.&XuX4X2XL.Y.L.4X+.$.wXpX",
"%X*X@X@X}.5Xu.e.C.P.&.O.+.4X*X,X>X@Xv.x.r.9.8.r.Y.$X>X-X&XT.i.Z b.H.| #.O.#.(.<X>X>Xv.l.).t.b 0 b.D.>X1X-X%XP.U w.t.L.2XO.@.5X'.",
"jXhX>X=XT.y.8.0.b.A j $ r S z.`.>X1XOXD.t.s.q.s.qXgX1X1X_.0.v M F.} G h $ t 0.z.>X1X@XOXC.a.y.e.).+X1X1X*XS.G c Z i.i.F o.t D 6.",
"jXsX=Xc.m q u G ] m d a t n 4.).iX-XS.n.K.L.Z.'.<XhX-X=XQ 7 e c L G k a j x < r.%X*XOX!.} 2X4XW.`.<XjX-XS.B i a F P v c r x 8 4.",
"iX$XA.E p r r s g ' { P./.E.e.s.5X6XM g { 6X}. X:X*X.X^ g i t k k H { } Q.J.t.s.5X6X{ g ( *.5XqX:X;X%XQ.~ = = h S c M ' | A.N.j.",
"^.J.W p k d a w g ..XXuXuX7Xu.I $.$.t p l ..}.*X:X{.' f g c c x a G Q.oXuX%XY.u.$.$.z h h &.6X0X:X`.T.' l l z z a c [ !.=X$XS.r.",
"V.w.8 8 Z.t.< < b ~.sXsXaX^.G F I I S i + g A.(.}.V.8 7 m.G.8., ; P uXjXhXuXJ.v I Y D x w i | E.9X].8.8 V n.} G ; 7 !.iX1X1XS.0 ",
"q.8.9.d. X`.z.5.r.|.hXsX$X] f z Y 4X4XU 3 + g [ G.p.8.7.{. X_.N.4.Z.iXjXsX^.N i I 2X5Xs.v 3 4 V L.Y.4.4.B.{.|./.m A |.-XjX@Xh.4 ",
"y.u.f.[.<X,X:X;X[.[.&X#XQ 5 @ z 4X0XqX0XB @ @ 4 C i.s.'. XgXgX*X).`.`.*X_.] 3 2 A 5XqXqX].x : > v u.q.N._.*XsXaX|.~.#X+X+Xz.0 : ",
"i.U.9XqXgX1XkXkX:X[._.h.9 1 * G W.:XkXpXG.a : : c i.].[.*XpXhXgX:X`.).D.w.8 : 4 e.0XkXgX}.w.> ; , n m.{.|.*XgXjXiX$X|._.j.6.7 : ",
"K.5XqXqX|.%XhXgX*X`.{.!.| | d n z.;X;X;X'.D v M M p.W.}.R.}.%XiX X|.Z.H.Q.P.J n r.).;X,X).r.b b v A A.oXoX$XwXpXsX%X_.B.'.U.n c ",
"6X0X0X0X!.!.%XuX[.B.M.Q.6X4XY s.[.l.l.).9.y.I I U P.7XeXrXrXrXxXrXrX6X6X-.*.Y u.Z.).l.l.d.u.y.K K I.XX.X^.^.0X9XuX%XM.h.V.Y.p.Y ",
"7X7X_._.6.6.T.T.n.V m [ Q./.5X].[.).j.q.b S I $. .6XyXxXxXcXbXbXbXcXlX,.:.&.Y L.].|.).h.C S I $.4X5X(.~.D.m.e.p.E.I.I 8 0.V.Y.E.",
"7X7X_.g.3.6.b n k s 4 6 m.W.].0X].E.K x e d U *.-.yXxXcXbXbXnXbXbXlXlX>.;.` { K.].(.G.M s h z #.4XE.].{.B.r.6.Z I #.j e 6 b.Z.{.",
"w.M.D._.j.6.w.I H j 2 6 6.V.].].G.J v d i i ( =.lXbXnXnXnXbXbXcXlXlX1.>.;.` _ { i.u.C d h h h k M y.V.'.'.B.q.J $.@.+.u 7 3.N.R.",
"b V m.M.N.0.A I U S 3 4 9 w.Y.s.i.c k s i f ( :.xXbXbXbXbXbXbXxX1.1.>.:.;.;.) ~ N c d d S H P I n 8 V w.n.n.] | $.$.@.@.4 9 b.U.",
"x S H H N ' ] w.u.D d p s G u.u.L z g g s ( _ :.1.1.1.lX1.1.1.1.>.>.;.;.` _ ^ ^ g c g x n s.].W.N.9 7 s g ~ ' | 3X3X3XS p g C Y ",
"Z S j h { ] H.n.u.K G z g L u.s.K.| g g g / ` ;.:.:.:.:.:.:.:.:.;.;.` _ ) ) ) ^ { { 9 8 4.r. X<X_.N.7 p f ( ` -.3X3Xy.D 5 ~ U 2X",
"N.i.U &.6X7X!.i.Z C A [ H.E.9X9X(.H.0 5 f ! ) ` ;.;.:.:.:.;.;.` _ _ _ _ ) ) %.=.6X6X0.3.4.7.<XgX-X_.w.L K.6XQ.Q.$.y.y.w.Q H.I.5X",
"j.M.}  .7X(.U.A C P T.R.Z.'.[.9X|.D.Q 9 f R ) ` _ _ ` ` ` ` _ _ _ ) ) ^ _ <.nXMXfXeXr.3.7.{.gXjX<X`.m.i.4X7X/.P.G n w.V.D.D.'.5X",
"g.h.[ K.G.e.b 7 M P.0X%X'.).d.d.)._.h.9 f T ) _ ) ) _ ) ) ) / ( ` ) - - ..NXJXLXAXfXf.3. XgXjXhX`.z.6.u.p.n.0.0 7 V J.|.&X_.B.q.",
"7 9 m m b b b b A H.}.|.).7.7.r.T.M.' g ! T ! ! ! ! ! ! ! ^ ^ ` ;.) O * ,.AXIXIXJXfX2X7.*XjXjX*XB.8.b b b b n v 9 A !.^.{._.j.3.",
"k e : : x I a.I.n.[ 0 V m.Z.|.(.K.k i p - - - - - - - T T ! ` ` ` T X f yXGXIXIXJXMX( 9 OX-X$XQ.#.r r q q j H  .K.n.n.6.0 b.M.S.",
"j k 4 a J $.5XE.!.b.> > L (.pXpXP.h i f f f + & - + * - p ! ~ ` ~ o   ~ vXGXIXIXHXZX%.1 k.@XA.U O.X.j k d k #.*.6XJ.B 7 : N A.$X",
"U K.Q.^.I.4Xp.I.!.H.z z 4XuXkX1X$X] Q W W f @ @ @ f f f p @ X . : . . =.MXHXIXIXKXBX-.6 g._.0 v @.#.} m.A.I.4X4XE.Z.M.A j U 7XiX",
"6X|.*XiX0XU.u.b.A.H.&.O.#.6X1X,X>Xv.c.h.9 3 2 @ 3 s 4 1 o @ - l f o   ( MXFXKXKXKXFXaXg.g.B.0 v I 4X$X+XOX~.G.i.t.B.Z.i.h #.7X*X",
"iXsX1X-X(.e.Z 0.h.] z o.h u.`.;X>X>Xv.k.9 i 2 p g f 3 o o ( <.2.=.* . ..MXAXBXBXFXBXuXg.z.r.8 8.T.%X1X>Xv.c.m.4.6.7.t.K r j w.t.",
"hX<X-X$XM.b b 9 W ' z = r y 7.`.1X1XOXb.N @ 2 p p 2 o p g yXNXCX<.%.( <.NXZXZXnXNXMX$Xj.j.r.r.B.'.-XzX>X=Xg.8 y 8.q.0.C h e b 4.",
"gX<X!.B 4 : 4 ~ ~ ~ f g C u.9.5XwX7X4XU s p p @ o     ~ vXBXFXBXdX<.rXMXGXJXDXCX2.=...] n.U.'.`.:X<X*XoX{ p * h z H c d 9 9 q.r.",
":X_.0.3 4 3 2 1 ! { ..Q.(.R.y.3X3X8X@.s i p 3 @ @ ~ -.mXFXHXHXBXnXdXmXBXGXDXDXSX2.%.f 4 m w.].`.:X:X(...g = = h h k G ] A.^.V.r.",
"[.r.8 7 A B 4 : g A.aXsXiX|.u.D @.$.u q $ @ o @ l tXBXHXKXPXKXBXZXMXMXBXGXDXDXDXCX<.d ; ; N G.}.[.[.t.m M { { ~ w x J.uXaXiX(.u.",
"8.8.0 6.D.!.0 7 Q ^.sXjXiX(.C v I 2XK m i o . p -.MXHXPXIXPXKXHXBXmXdXmXMXAXSXSXCXyXY y 3 f G K.9Xf.5.4.m.!.^.] 7 0 {.sXVXiXJ.b ",
"u.u.q.B.&X=X_.B.N._.+X+XS.9 4 c L.7X0X5XG o X / dXBXKXPXPXPXIXKXBXyX{ ' -.tX<.<.,.<.5X8X&.l = s u.s.9.9.f.`.=X=Xj.z.`.<XOXS.0 : ",
"2Xu.Z._.*XsXsX*X`._.+X_.6.7 : m T. XpXuXK.q . z yXBXFXHXHXKXPXHXMX-.@ o g ' W g g | wXwX8X( & : y y.9.f.[.:X-X=XOX`.+X`.{.m.c ; ",
"F.R.|.*XiXaXjXjX*X`._.Z.F.D u D B.`.<X X'.b > 4 { tXaXMXNXBXFXFXvX{ 2 @ g N N 1 1 0  XqX0X .c : > b 9XqXqXaXaX=X-X;X`.].8X2X@.q ",
"E.(.|. X7XuXaXpX X).Z.Y.4X2XD y.).`.;X`.s.y.C N 9 N ' -.tXvXmXmX<.=.f 3 g { ~ l g 6.`.`.).a.C v m w.9XqXqXuXrXoX-X&X'.5X8X8X$.D ",
"7X}.'.).M.M.^.(.V.e.w.F.E.5X4X5X{._.x.j.8.D P  .4X} ' ~ ;.:.>.>.` ( - @ p p f N } V.z.z.q.J K i.U.W.9X}.~.M.| A.^.~.e.K *.4X4X3X",
"0X}.).).3.q.w.K J F m A T.5X9X9X}.Z.0.0 8 S U *.4X4X~ f ) R T T T - & & & @ g A T.R.j.6.9 a G Y 4X].9X].B.6.Q ] H.K.v x U K.W.9X",
"W.].'.).r.r.u.I #.O.w 6 m.R.}.].R.[ N s i p k H $.Y g ! _ _ T O X   X % % s F.(.R.C.0.9 3 * s v y.s.].].'.Z.h.0 L H d a 5 Q )._.",
"u.e.Y.Z.7.q.w.U +.h i 4 0 m.].W.a.H k s s d M J v c g ! _ _ _ %.>.>.( = O s F.T.T.w.n a s g c n 8.q.p.T.E.V.6.0.I S S e 4 6 7.).",
"b n L L 0 0 0 [ U z k a c J u.4X$.S j c L G.I.n.8 4 f - - l =.dXZXZXyXg & p H  .Y I v y F U J.V.4.8 n M H C V u.a.2XD S a x n 0.",
"8 x k z m ] b.[ ' G N c c J Y $.$.@.S D u.].|.{.h.5 - - O f =.vXGXGXvX! - + s #.*.U S v J G.0X|.).6.k h O.H Y a.a.a.K n c c C Z ",
"q.C H H Q.Q.Q.Q.L N c F I 4X5X8X4X2Xv y b R.pXpX^.' T % + ! ,.mXFXFXdXf O - ( 4X8X4Xi.x < w. X*X+XS.F H #.8X6X5XL.u.K n F Y 4X5X",
"N.m.u.$.6XQ.A.| U G K.G.J.Y.W.9X}.R.e.6.t. XhXjX$XQ g % + T %.<.MXmX<.- O - G 6X7X].V.4.q.Y.pXhX-XS.w.$.8X6X6XQ.P K i.L.J.J.W.].",
"j.t.s.3XG.J.A F H 2X7X0X~.j.d.)._.l.g.z.`.<XjXsXOXh.5 * & % - ! =.%.T O O f B U.{.).z.z.).gXkX1X@Xc.h.w.G.I.| W 9 n 5X(.~.D.B.V.",
"6.r.9.y.u.A m c #.4XeX|._.g.3.l.g.l.l._.<XjXhX&XS.6.7 $ & # # . . . . o @ 5 [ s.).).z.).:X<XjX-Xc.g.6.8.q.h.W E 4 Z E.0XOXk.j.6.",
"> , , y S G U P a.i.n.n.m.N.).t.w.A [ {.,X,X%XJ.m 4 o o o * s F b 8 , ; 1 9 3X8Xa.a.M M.<X,X*X|.[ 4 a > > 1 E ] e.9.s.m.h.b.b.J.",
"a > > e S I *.P.M.b.m m } /.qX7X .d G ~.<X<XR.M i i : 1 3 g G p.f.9.0 7 5 } wXwX5X$.h [ &X<X`.t.x r w 3 4 1 ~ ] Z.f.9.8.9 ' Q.eX",
"U G 9 m L $.4XJ.S.h.N k  .uXjXaX6Xc G C._.`.q.a k g g W ' } a.s.[.f.r.b z 4XaXkXwX4Xh ' S.v.j.b S t M m m ' { K.].f.s.8.w H eXaX",
"I./.~.~.T.L.p.T.S.A.k z &.7XkXkX$X!.A.h.j.7.8 y U I.!..XQ.L.s.3Xf.).U.J l *.gXkXgX0XA.Q A.k.6 b J 2X'.[.(.T.K.$.Y.).'.u.r #.wXaX",
"%X*X>X@X_.t.q.6.h.] z O.+.P.pX1X,X>Xv.k.j.8 8 y.5X0X-X-X%X7X3Xu.r.N.P +.X.%. X,X,X>Xv.c.k.Q 7 8 p.].<X,X<XqX4X2Xe.r.Y.2XO.@.4X{.",
"sXhX1X@X_.6.4.0 Q ] +.h r n _.;X1X1XOXk.h.0 q.s.qXhXzX-X%XL.I D 6.n.G z X.j j.l.zXzX@X.X] ] 9 n.'.pXkXkX<X9X2XS Z h.n.2Xo.o.K j.",
"kXjX$XA.9 > m G ' H i q q < 3.'.iXiX^.] ] A.N.|.gXgXsXuX[ e e c [ B x w $ e 6 7.%XpXuXQ.| ] b.). XgXjXpX!.m t t M B Q x $ w b 4.",
"kXpXQ.g : : i d H G L i.q.r.5.t.7X6X' g ' !.{.*XpXpXuXP.a $ r s m m B B n.w.4.6.5X6X*.&.' ] C. X:XgXiXeX{ $ $ h d m 9 ' ' ] w.q.",
"|.Z.B f N z p w d  .0XpXpX[.r.8.Y G i 3 N H.{.|. X].w.M N z z h e m !.%XiX%XN.8.a.$.S h s B !. X:X[.C.' g l +.l i 4 ] ^.aXiX~.r.",
"q.8.x g P.P.c > v E.sXkXgX}.u.n M M 4 3 f L /.{.~.r.8 x |  .| g 4 0 #XsXjXiXT.n F H S d 3 m F.(.].'.0 4 N | | | a 4 A.$XzXsX|.0.",
"F.L N F.0X}.V.4.7.`.<X<X XV.x c } Q.A.{ h r U K.E.e.y 8 ^.oXA.Q 6 h.+X@X+XS.B i U  .Q.| c w d U 5X4Xv 8 h._..XS.6 0 _.-X1X`.N.8 ",
"Y } H.^.pXpX X_._.OX;X+Xj.8 e G Q.|.oXI.S q a v P a.w.B.#X=X=XOXk._.&X+X_.b.a i  .(.uX}.} t w j #.2Xy.r.x.+X=XOXS.D.#X*X+X).4.q ",
"P J.~.*X*XgXjXpX_.OX_.S.A x r D ]. X*X}.a.t e > m w.].|.#X+X-X-X*X%X|.{.T.K a e p.0X*XqXE.F y e a K Y.{. X+X-X1XsX$X#XD.~.J.D q ",
"w.C.$X*XpXjXkXjX-X~.^.} G k t D ].qX:XqXY.b , ; , p.qXpX&X-X1XzXhXpX}.U.L.D t y s.[.:X<X].Y b ; ; 8 }.qX&X+X1XjXjXsX#XA.Q. .@.u "
};
